<?xml version="1.0" encoding="utf-8"?>
<!-- Generator: Adobe Illustrator 15.0.2, SVG Export Plug-In . SVG Version: 6.00 Build 0)  -->
<!DOCTYPE svg PUBLIC "-//W3C//DTD SVG 1.1//EN" "http://www.w3.org/Graphics/SVG/1.1/DTD/svg11.dtd">
<svg version="1.1" id="Ebene_1" xmlns="http://www.w3.org/2000/svg" xmlns:xlink="http://www.w3.org/1999/xlink" x="0px" y="0px"
	 width="70.339px" height="15.489px" viewBox="0 0 70.339 15.489" enable-background="new 0 0 70.339 15.489" xml:space="preserve">
<g>
	<path fill="#FFFFFF" d="M5.811,8.099c0.127-0.251,0.191-0.505,0.191-0.765c0-0.178-0.031-0.345-0.092-0.503
		C5.848,6.675,5.756,6.535,5.633,6.415C5.51,6.294,5.356,6.198,5.171,6.128c-0.185-0.071-0.4-0.106-0.646-0.106
		c-0.355,0-0.674,0.062-0.957,0.188C3.286,6.335,3.036,6.507,2.82,6.726C2.604,6.945,2.419,7.197,2.266,7.484
		C2.113,7.771,1.988,8.079,1.89,8.407C1.792,8.735,1.72,9.071,1.675,9.415C1.63,9.76,1.607,10.096,1.607,10.424
		c0,0.587,0.076,1.122,0.229,1.602c0.153,0.481,0.359,0.892,0.619,1.23c0.26,0.339,0.563,0.603,0.909,0.79
		c0.346,0.187,0.715,0.28,1.107,0.28c0.415,0,0.835-0.108,1.261-0.324c0.426-0.217,0.84-0.566,1.241-1.049
		C7,12.966,7.035,12.985,7.079,13.01c0.043,0.025,0.083,0.054,0.12,0.086c0.037,0.032,0.068,0.063,0.096,0.096
		c0.028,0.033,0.041,0.062,0.041,0.089c0,0.019-0.002,0.029-0.007,0.034l-0.014,0.027c-0.442,0.715-0.973,1.25-1.593,1.606
		c-0.62,0.356-1.299,0.533-2.037,0.533c-0.401,0-0.77-0.056-1.107-0.167c-0.337-0.112-0.643-0.268-0.916-0.465
		c-0.273-0.199-0.514-0.434-0.721-0.705c-0.208-0.271-0.38-0.564-0.52-0.88c-0.139-0.317-0.244-0.65-0.314-0.998
		C0.035,11.916,0,11.564,0,11.209c0-0.479,0.052-0.958,0.157-1.439c0.105-0.48,0.259-0.943,0.461-1.387
		C0.821,7.938,1.067,7.524,1.357,7.14c0.29-0.386,0.618-0.721,0.984-1.006c0.367-0.284,0.771-0.508,1.213-0.67
		C3.997,5.303,4.468,5.222,4.97,5.222c0.374,0,0.722,0.046,1.046,0.137C6.34,5.45,6.619,5.579,6.853,5.746
		c0.235,0.166,0.419,0.366,0.554,0.602C7.541,6.582,7.609,6.843,7.609,7.13c0,0.187-0.028,0.353-0.085,0.495
		c-0.058,0.143-0.138,0.266-0.24,0.368c-0.103,0.103-0.223,0.18-0.363,0.232c-0.139,0.053-0.29,0.079-0.454,0.079
		c-0.1,0-0.204-0.011-0.311-0.03c-0.107-0.021-0.213-0.054-0.318-0.1L5.811,8.099z"/>
	<path fill="#FFFFFF" d="M10.281,15.296l-0.109-0.007c0.037-0.433,0.071-0.904,0.103-1.415c0.032-0.51,0.062-1.029,0.089-1.554
		c0.027-0.527,0.051-1.049,0.072-1.566c0.021-0.516,0.039-1,0.055-1.449c0.016-0.448,0.027-0.851,0.034-1.206
		c0.007-0.355,0.01-0.635,0.01-0.84c0-0.169-0.007-0.314-0.021-0.438C10.5,6.697,10.47,6.595,10.422,6.513
		c-0.048-0.082-0.117-0.143-0.208-0.181C10.123,6.293,10,6.273,9.845,6.273c-0.078,0-0.157,0.005-0.239,0.014
		C9.524,6.296,9.431,6.311,9.331,6.329S9.118,6.371,8.992,6.401C8.867,6.43,8.722,6.465,8.558,6.506L8.456,6.015
		c0.756-0.273,1.37-0.466,1.839-0.578c0.469-0.111,0.786-0.167,0.95-0.167c0.301,0,0.516,0.088,0.646,0.263
		c0.13,0.176,0.195,0.437,0.195,0.783c0,0.032-0.004,0.125-0.014,0.28c-0.01,0.155-0.022,0.356-0.038,0.604
		c-0.016,0.249-0.035,0.537-0.058,0.865s-0.049,0.68-0.079,1.057c-0.03,0.375-0.062,0.768-0.099,1.176
		c-0.037,0.407-0.075,0.814-0.116,1.219l0.068,0.007c0.219-0.894,0.466-1.726,0.742-2.498c0.276-0.773,0.585-1.444,0.93-2.013
		c0.345-0.569,0.722-1.018,1.135-1.344c0.413-0.325,0.865-0.488,1.357-0.488c0.173,0,0.335,0.027,0.485,0.082
		c0.15,0.055,0.28,0.131,0.39,0.229c0.109,0.099,0.196,0.215,0.26,0.35c0.064,0.134,0.096,0.281,0.096,0.44
		c0,0.205-0.044,0.402-0.133,0.591c-0.089,0.189-0.229,0.357-0.42,0.503h-0.055c-0.191-0.159-0.373-0.274-0.543-0.345
		c-0.171-0.071-0.352-0.106-0.543-0.106c-0.205,0-0.403,0.039-0.595,0.116S14.489,7.23,14.33,7.376
		c-0.26,0.237-0.501,0.549-0.725,0.94c-0.223,0.389-0.427,0.821-0.612,1.295c-0.185,0.474-0.351,0.971-0.499,1.494
		c-0.148,0.521-0.276,1.029-0.383,1.523c-0.107,0.495-0.194,0.959-0.26,1.394c-0.066,0.436-0.113,0.802-0.14,1.098L10.281,15.296z"
		/>
	<path fill="#FFFFFF" d="M24.158,13c0.027,0.014,0.062,0.033,0.106,0.059c0.043,0.024,0.083,0.052,0.12,0.082
		c0.037,0.029,0.068,0.061,0.096,0.096c0.027,0.033,0.041,0.066,0.041,0.099c0,0.019-0.007,0.036-0.021,0.055
		c-0.255,0.355-0.53,0.664-0.824,0.926c-0.294,0.262-0.599,0.48-0.916,0.656c-0.317,0.175-0.639,0.305-0.967,0.389
		c-0.328,0.085-0.652,0.127-0.971,0.127c-0.547,0-1.048-0.111-1.504-0.335c-0.456-0.224-0.848-0.528-1.176-0.916
		c-0.328-0.388-0.584-0.842-0.769-1.364c-0.185-0.521-0.277-1.081-0.277-1.678c0-0.487,0.054-0.975,0.161-1.462
		c0.107-0.487,0.262-0.952,0.465-1.395c0.203-0.443,0.45-0.853,0.742-1.234c0.292-0.38,0.623-0.711,0.995-0.99
		c0.372-0.281,0.779-0.501,1.224-0.66c0.445-0.159,0.922-0.239,1.432-0.239c0.337,0,0.659,0.046,0.964,0.137
		c0.305,0.091,0.573,0.222,0.803,0.394c0.23,0.17,0.414,0.381,0.55,0.632c0.136,0.251,0.205,0.535,0.205,0.854
		c0,0.465-0.151,0.87-0.455,1.216c-0.304,0.346-0.722,0.639-1.255,0.881c-0.533,0.242-1.161,0.437-1.883,0.585
		c-0.722,0.147-1.503,0.258-2.341,0.331v0.116c0,0.583,0.074,1.116,0.222,1.599c0.148,0.483,0.352,0.896,0.612,1.24
		c0.26,0.344,0.565,0.612,0.916,0.803s0.729,0.287,1.135,0.287c0.41,0,0.831-0.102,1.261-0.304
		C23.279,13.785,23.716,13.456,24.158,13z M22.873,7.512c0-0.21-0.035-0.405-0.106-0.588c-0.071-0.183-0.168-0.341-0.294-0.476
		c-0.125-0.134-0.274-0.24-0.448-0.317c-0.174-0.077-0.36-0.116-0.561-0.116c-0.296,0-0.565,0.053-0.807,0.157
		c-0.242,0.104-0.457,0.247-0.649,0.427c-0.191,0.181-0.36,0.391-0.506,0.629c-0.146,0.24-0.27,0.494-0.373,0.762
		c-0.103,0.269-0.186,0.545-0.25,0.827c-0.064,0.282-0.109,0.559-0.137,0.827c0.647-0.046,1.227-0.124,1.74-0.235
		c0.513-0.112,0.946-0.256,1.299-0.432c0.353-0.175,0.623-0.385,0.81-0.629C22.779,8.105,22.873,7.826,22.873,7.512z"/>
	<path fill="#FFFFFF" d="M31.568,8.092c0-0.36-0.059-0.671-0.178-0.936c-0.119-0.265-0.273-0.48-0.465-0.649
		c-0.192-0.169-0.408-0.294-0.649-0.376c-0.241-0.082-0.483-0.123-0.725-0.123c-0.324,0-0.597,0.034-0.82,0.103
		c-0.223,0.069-0.404,0.162-0.543,0.28c-0.139,0.118-0.239,0.259-0.301,0.421c-0.062,0.161-0.092,0.336-0.092,0.522
		c0,0.219,0.04,0.438,0.12,0.659c0.08,0.222,0.197,0.437,0.352,0.646L28.24,8.714c-0.26,0.128-0.522,0.191-0.786,0.191
		c-0.155,0-0.3-0.024-0.434-0.071c-0.134-0.049-0.25-0.118-0.349-0.209s-0.175-0.203-0.232-0.335s-0.085-0.28-0.085-0.444
		c0-0.268,0.065-0.521,0.195-0.758c0.13-0.237,0.302-0.453,0.516-0.649s0.462-0.371,0.745-0.526
		c0.283-0.155,0.574-0.286,0.875-0.394c0.301-0.106,0.603-0.188,0.906-0.246c0.303-0.057,0.584-0.085,0.844-0.085
		c0.479,0,0.888,0.063,1.227,0.191s0.615,0.313,0.827,0.558c0.212,0.243,0.367,0.538,0.465,0.885
		c0.098,0.347,0.147,0.738,0.147,1.175c0,0.301-0.013,0.631-0.038,0.991c-0.025,0.36-0.054,0.737-0.085,1.132
		c-0.032,0.394-0.061,0.8-0.085,1.219s-0.038,0.836-0.038,1.251c0,0.656,0.122,1.149,0.366,1.48c0.244,0.33,0.564,0.495,0.96,0.495
		c0.351,0,0.743-0.13,1.176-0.39l0.198,0.294c-0.305,0.306-0.638,0.538-0.998,0.697c-0.36,0.159-0.738,0.239-1.135,0.239
		c-0.296,0-0.57-0.05-0.82-0.15s-0.467-0.25-0.649-0.447c-0.182-0.199-0.324-0.448-0.424-0.749c-0.1-0.301-0.15-0.649-0.15-1.045
		c0-0.118,0.003-0.237,0.01-0.355c0.007-0.118,0.021-0.244,0.044-0.376H31.39c-0.196,0.392-0.423,0.778-0.68,1.159
		c-0.257,0.38-0.54,0.72-0.848,1.018c-0.308,0.299-0.636,0.541-0.984,0.725c-0.349,0.186-0.714,0.277-1.097,0.277
		c-0.314,0-0.602-0.055-0.861-0.164c-0.259-0.109-0.482-0.26-0.667-0.451s-0.328-0.418-0.431-0.68
		c-0.103-0.263-0.154-0.549-0.154-0.858c0-0.401,0.074-0.766,0.222-1.094c0.148-0.328,0.353-0.622,0.615-0.882
		c0.262-0.26,0.575-0.484,0.94-0.674c0.365-0.188,0.761-0.345,1.189-0.47c0.428-0.126,0.882-0.219,1.36-0.281
		c0.479-0.061,0.966-0.092,1.463-0.092c0.032-0.287,0.058-0.565,0.079-0.834S31.568,8.416,31.568,8.092z M27.371,12.788
		c0,0.178,0.02,0.348,0.058,0.509c0.039,0.162,0.1,0.304,0.185,0.427c0.085,0.123,0.191,0.22,0.321,0.291
		c0.13,0.07,0.286,0.105,0.468,0.105c0.205,0,0.417-0.048,0.636-0.144c0.219-0.096,0.434-0.228,0.646-0.396s0.415-0.37,0.608-0.604
		c0.194-0.235,0.368-0.491,0.523-0.77c0.155-0.279,0.284-0.57,0.386-0.879c0.103-0.307,0.17-0.623,0.202-0.946
		c-0.337,0.009-0.672,0.03-1.005,0.065c-0.333,0.033-0.648,0.087-0.947,0.16c-0.298,0.073-0.575,0.169-0.831,0.287
		c-0.256,0.118-0.475,0.266-0.66,0.441s-0.329,0.383-0.434,0.621C27.423,12.197,27.371,12.474,27.371,12.788z"/>
	<path fill="#FFFFFF" d="M38.835,0.342c-0.191,0.866-0.352,1.759-0.482,2.683c-0.13,0.922-0.24,1.833-0.332,2.73
		c0.214,0.009,0.423,0.016,0.625,0.021c0.202,0.005,0.392,0.009,0.567,0.014c0.175,0.005,0.335,0.007,0.479,0.007s0.263,0,0.359,0
		c0.415,0,0.754-0.025,1.019-0.075c0.023,0.077,0.041,0.148,0.055,0.212s0.021,0.123,0.021,0.178c0,0.2-0.083,0.33-0.25,0.39
		s-0.407,0.089-0.721,0.089c-0.301,0-0.637-0.019-1.008-0.055c-0.371-0.036-0.778-0.07-1.22-0.103
		c-0.05,0.487-0.092,0.963-0.126,1.424c-0.034,0.463-0.062,0.899-0.082,1.31c-0.02,0.411-0.035,0.791-0.044,1.142
		c-0.009,0.35-0.014,0.656-0.014,0.916c0,0.487,0.025,0.923,0.075,1.306c0.05,0.383,0.139,0.708,0.267,0.973
		c0.127,0.268,0.303,0.471,0.526,0.612c0.223,0.141,0.506,0.212,0.848,0.212c0.246,0,0.521-0.043,0.824-0.13
		c0.303-0.087,0.648-0.226,1.036-0.417c0.123,0.123,0.194,0.273,0.212,0.451c-0.283,0.187-0.567,0.356-0.854,0.51
		c-0.287,0.152-0.57,0.283-0.848,0.393c-0.278,0.11-0.547,0.193-0.807,0.253c-0.26,0.06-0.506,0.089-0.738,0.089
		c-0.305,0-0.584-0.056-0.837-0.168c-0.253-0.111-0.472-0.31-0.656-0.594c-0.185-0.285-0.328-0.669-0.431-1.152
		s-0.154-1.093-0.154-1.832c0-0.415,0.007-0.842,0.021-1.281c0.014-0.44,0.032-0.886,0.055-1.337
		c0.023-0.451,0.052-0.902,0.089-1.354c0.037-0.451,0.078-0.895,0.123-1.333c-0.36,0.005-0.694,0.02-1.001,0.045
		c-0.308,0.024-0.571,0.064-0.79,0.119c-0.014-0.027-0.021-0.06-0.021-0.096c0-0.096,0.047-0.186,0.14-0.27
		c0.093-0.085,0.223-0.161,0.39-0.229c0.167-0.068,0.366-0.125,0.598-0.171c0.232-0.046,0.488-0.077,0.766-0.096
		c0.105-0.952,0.216-1.852,0.335-2.7c0.119-0.848,0.237-1.604,0.355-2.269c0.023-0.118,0.065-0.217,0.126-0.294
		c0.061-0.077,0.133-0.139,0.215-0.185c0.082-0.046,0.171-0.077,0.267-0.096s0.189-0.027,0.28-0.027c0.15,0,0.286,0.016,0.407,0.048
		C38.62,0.237,38.73,0.282,38.835,0.342z"/>
	<path fill="#FFFFFF" d="M44.229,5.502c-0.078,0.52-0.144,1.04-0.198,1.562c-0.055,0.522-0.099,1.027-0.133,1.514
		c-0.034,0.487-0.059,0.949-0.075,1.384c-0.016,0.436-0.024,0.829-0.024,1.179c0,0.474,0.007,0.881,0.021,1.221
		c0.014,0.339,0.037,0.625,0.068,0.857c0.032,0.232,0.072,0.417,0.12,0.556c0.048,0.14,0.107,0.246,0.178,0.322
		c0.071,0.074,0.153,0.124,0.246,0.146c0.093,0.022,0.199,0.034,0.318,0.034c0.219,0,0.455-0.033,0.708-0.099
		c0.253-0.066,0.509-0.159,0.769-0.277l0.13,0.355c-0.164,0.132-0.37,0.267-0.619,0.403c-0.249,0.136-0.509,0.262-0.783,0.376
		c-0.274,0.114-0.541,0.206-0.803,0.277c-0.262,0.07-0.489,0.105-0.68,0.105c-0.127,0-0.244-0.01-0.349-0.031
		c-0.105-0.02-0.199-0.071-0.284-0.153s-0.16-0.203-0.226-0.362c-0.066-0.159-0.121-0.376-0.164-0.649
		c-0.043-0.273-0.076-0.615-0.099-1.025c-0.023-0.41-0.034-0.907-0.034-1.49c0-0.342,0.003-0.728,0.01-1.159
		c0.007-0.43,0.017-0.893,0.031-1.387c0.014-0.495,0.032-1.017,0.055-1.566c0.023-0.549,0.052-1.115,0.089-1.698
		c0.009-0.128,0.043-0.231,0.103-0.312c0.059-0.079,0.132-0.141,0.219-0.184C42.908,5.359,43,5.33,43.098,5.313
		c0.098-0.016,0.188-0.023,0.27-0.023C43.673,5.29,43.96,5.36,44.229,5.502z M43.635,2.413c-0.16,0-0.301-0.033-0.424-0.099
		s-0.228-0.153-0.314-0.259c-0.086-0.107-0.153-0.23-0.198-0.369c-0.045-0.14-0.068-0.282-0.068-0.428
		c0-0.205,0.034-0.387,0.103-0.543c0.068-0.158,0.157-0.29,0.267-0.396c0.109-0.107,0.23-0.188,0.362-0.24
		C43.494,0.026,43.624,0,43.751,0c0.155,0,0.294,0.028,0.417,0.086c0.123,0.057,0.229,0.135,0.318,0.235
		c0.089,0.1,0.157,0.216,0.205,0.345c0.048,0.131,0.072,0.271,0.072,0.421c0,0.159-0.027,0.317-0.082,0.476
		c-0.055,0.156-0.131,0.299-0.229,0.427c-0.098,0.127-0.216,0.23-0.355,0.307C43.958,2.374,43.803,2.413,43.635,2.413z"/>
	<path fill="#FFFFFF" d="M49.126,15.358c-0.059-0.438-0.13-0.896-0.212-1.378c-0.082-0.48-0.17-0.965-0.263-1.455
		c-0.093-0.49-0.191-0.975-0.294-1.453s-0.205-0.934-0.308-1.367s-0.202-0.832-0.297-1.196c-0.095-0.364-0.185-0.679-0.267-0.943
		c-0.086-0.269-0.168-0.489-0.246-0.659c-0.078-0.172-0.158-0.306-0.243-0.404c-0.084-0.098-0.177-0.165-0.277-0.201
		c-0.1-0.036-0.214-0.055-0.342-0.055c-0.146,0-0.302,0.016-0.468,0.048c-0.166,0.032-0.366,0.075-0.598,0.13l-0.103-0.492
		c0.273-0.101,0.541-0.192,0.803-0.277C46.274,5.571,46.517,5.5,46.74,5.44c0.223-0.06,0.421-0.104,0.595-0.137
		c0.174-0.033,0.31-0.048,0.41-0.048c0.123,0,0.236,0.021,0.338,0.065c0.103,0.043,0.202,0.117,0.297,0.222
		c0.095,0.105,0.187,0.247,0.273,0.427c0.086,0.181,0.173,0.407,0.26,0.681c0.059,0.183,0.129,0.418,0.208,0.708
		c0.08,0.289,0.163,0.618,0.25,0.987c0.087,0.369,0.177,0.769,0.27,1.2c0.093,0.43,0.184,0.876,0.27,1.335
		c0.086,0.46,0.167,0.929,0.243,1.404c0.075,0.477,0.14,0.945,0.195,1.405c0.228-0.333,0.457-0.676,0.687-1.032
		c0.23-0.356,0.451-0.716,0.663-1.08c0.212-0.364,0.409-0.732,0.591-1.103c0.182-0.372,0.342-0.74,0.479-1.104
		c0.137-0.364,0.244-0.723,0.321-1.073c0.077-0.35,0.116-0.69,0.116-1.018c0-0.41-0.072-0.795-0.215-1.155
		c-0.143-0.36-0.389-0.677-0.735-0.95l0.075-0.164c0.082-0.009,0.162-0.016,0.239-0.021c0.077-0.005,0.153-0.007,0.226-0.007
		c0.611,0,1.071,0.144,1.381,0.431c0.31,0.287,0.465,0.686,0.465,1.196c0,0.388-0.082,0.828-0.246,1.323
		c-0.164,0.494-0.38,1.013-0.649,1.555s-0.574,1.094-0.916,1.658c-0.342,0.562-0.69,1.105-1.046,1.63s-0.702,1.014-1.039,1.473
		c-0.337,0.457-0.636,0.853-0.896,1.186L49.126,15.358z"/>
	<path fill="#FFFFFF" d="M61.98,13c0.027,0.014,0.062,0.033,0.106,0.059c0.043,0.024,0.082,0.052,0.119,0.082
		c0.037,0.029,0.068,0.061,0.096,0.096c0.027,0.033,0.041,0.066,0.041,0.099c0,0.019-0.007,0.036-0.021,0.055
		c-0.255,0.355-0.53,0.664-0.823,0.926c-0.295,0.262-0.6,0.48-0.916,0.656c-0.317,0.175-0.64,0.305-0.968,0.389
		c-0.328,0.085-0.651,0.127-0.971,0.127c-0.547,0-1.048-0.111-1.504-0.335c-0.456-0.224-0.848-0.528-1.176-0.916
		c-0.328-0.388-0.585-0.842-0.769-1.364c-0.185-0.521-0.277-1.081-0.277-1.678c0-0.487,0.054-0.975,0.161-1.462
		c0.107-0.487,0.262-0.952,0.464-1.395c0.203-0.442,0.451-0.853,0.742-1.234c0.291-0.38,0.623-0.711,0.994-0.99
		c0.372-0.281,0.779-0.501,1.225-0.66c0.443-0.159,0.922-0.239,1.432-0.239c0.338,0,0.658,0.046,0.964,0.137
		s0.573,0.222,0.804,0.394c0.229,0.17,0.413,0.381,0.55,0.632c0.137,0.251,0.205,0.535,0.205,0.854c0,0.465-0.151,0.87-0.454,1.216
		C61.7,8.796,61.282,9.09,60.749,9.331c-0.533,0.241-1.161,0.437-1.884,0.585c-0.722,0.147-1.502,0.258-2.341,0.331v0.116
		c0,0.583,0.074,1.116,0.222,1.599s0.353,0.896,0.612,1.24c0.26,0.344,0.565,0.612,0.916,0.803s0.729,0.287,1.135,0.287
		c0.41,0,0.831-0.102,1.261-0.304C61.103,13.785,61.538,13.456,61.98,13z M60.695,7.512c0-0.21-0.035-0.405-0.106-0.588
		c-0.07-0.183-0.168-0.341-0.293-0.476c-0.126-0.134-0.275-0.24-0.448-0.317c-0.173-0.077-0.36-0.116-0.561-0.116
		c-0.296,0-0.565,0.053-0.807,0.157s-0.458,0.247-0.649,0.427C57.64,6.78,57.472,6.99,57.325,7.228
		c-0.146,0.24-0.27,0.494-0.373,0.762c-0.102,0.269-0.186,0.545-0.249,0.827c-0.063,0.282-0.109,0.559-0.137,0.827
		c0.647-0.046,1.228-0.124,1.739-0.235c0.514-0.112,0.946-0.256,1.299-0.432c0.354-0.175,0.623-0.385,0.811-0.629
		C60.603,8.105,60.695,7.826,60.695,7.512z"/>
	<path fill="#FFFFFF" d="M64.681,12.651c0.031,0.347,0.124,0.645,0.277,0.895c0.152,0.251,0.34,0.456,0.563,0.615
		c0.223,0.159,0.471,0.278,0.741,0.355c0.271,0.077,0.541,0.116,0.811,0.116c0.25,0,0.492-0.034,0.725-0.103
		c0.233-0.069,0.438-0.166,0.615-0.294c0.177-0.128,0.32-0.285,0.428-0.472c0.106-0.187,0.16-0.396,0.16-0.628
		c0-0.241-0.057-0.453-0.171-0.636c-0.114-0.183-0.267-0.349-0.458-0.499s-0.414-0.289-0.666-0.417
		c-0.254-0.128-0.517-0.258-0.79-0.39c-0.241-0.114-0.484-0.229-0.728-0.346c-0.244-0.115-0.48-0.242-0.708-0.378
		c-0.228-0.137-0.44-0.285-0.64-0.444c-0.197-0.159-0.371-0.336-0.52-0.53c-0.147-0.193-0.264-0.41-0.348-0.648
		c-0.085-0.24-0.127-0.505-0.127-0.797c0-0.314,0.055-0.603,0.164-0.868c0.109-0.265,0.259-0.503,0.447-0.714
		c0.189-0.213,0.408-0.398,0.656-0.558c0.249-0.159,0.514-0.293,0.797-0.399c0.283-0.107,0.573-0.188,0.871-0.24
		c0.299-0.052,0.59-0.078,0.872-0.078c0.364,0,0.71,0.04,1.036,0.119c0.325,0.08,0.61,0.196,0.854,0.35
		C69.786,5.814,69.98,6,70.124,6.219c0.143,0.219,0.215,0.465,0.215,0.738c0,0.104-0.018,0.219-0.055,0.342
		c-0.037,0.123-0.098,0.238-0.185,0.346c-0.087,0.106-0.2,0.196-0.342,0.269c-0.142,0.073-0.314,0.111-0.52,0.116
		c-0.191,0-0.392-0.029-0.602-0.089l-0.021-0.068c0.064-0.146,0.109-0.28,0.137-0.403c0.028-0.123,0.041-0.237,0.041-0.342
		c-0.004-0.21-0.059-0.386-0.16-0.53c-0.104-0.143-0.232-0.261-0.387-0.352c-0.155-0.091-0.327-0.157-0.516-0.198
		s-0.375-0.062-0.558-0.062c-0.323,0-0.612,0.043-0.868,0.13c-0.256,0.087-0.471,0.202-0.646,0.345
		c-0.175,0.145-0.31,0.307-0.402,0.489c-0.094,0.183-0.141,0.371-0.141,0.567c0,0.25,0.066,0.474,0.198,0.673
		c0.132,0.197,0.308,0.38,0.526,0.547c0.219,0.166,0.471,0.322,0.756,0.468c0.284,0.146,0.582,0.292,0.892,0.438
		c0.347,0.164,0.69,0.334,1.032,0.509c0.342,0.176,0.646,0.375,0.916,0.598c0.27,0.224,0.486,0.479,0.652,0.769
		c0.167,0.29,0.25,0.631,0.25,1.022c0,0.47-0.104,0.886-0.311,1.25c-0.208,0.364-0.484,0.672-0.831,0.923
		c-0.347,0.251-0.744,0.44-1.192,0.571c-0.449,0.129-0.916,0.194-1.398,0.194c-0.242,0-0.491-0.019-0.748-0.055
		c-0.258-0.036-0.508-0.091-0.749-0.164c-0.241-0.073-0.471-0.163-0.687-0.271c-0.217-0.106-0.406-0.229-0.568-0.369
		c-0.161-0.139-0.289-0.293-0.383-0.465c-0.093-0.17-0.14-0.358-0.14-0.563c0-0.178,0.038-0.328,0.112-0.451
		c0.076-0.123,0.175-0.224,0.298-0.301c0.123-0.077,0.261-0.136,0.413-0.175c0.153-0.038,0.309-0.06,0.469-0.064L64.681,12.651z"/>
</g>
</svg>
