<?xml version="1.0" encoding="UTF-8"?>
<svg width="208px" height="60px" viewBox="0 0 208 60" version="1.1" xmlns="http://www.w3.org/2000/svg" xmlns:xlink="http://www.w3.org/1999/xlink">
    <g id="Page-1" stroke="none" stroke-width="1" fill="none" fill-rule="evenodd">
        <g id="creatives">
            <path d="M18.6328125,34.9414062 C18.9973977,34.2252568 19.1796875,33.4960975 19.1796875,32.7539062 C19.1796875,32.2460912 19.0917978,31.7675804 18.9160156,31.3183594 C18.7402335,30.8691384 18.4765643,30.4720069 18.125,30.1269531 C17.7734357,29.7818993 17.333987,29.5084646 16.8066406,29.3066406 C16.2792942,29.1048167 15.664066,29.0039062 14.9609375,29.0039062 C13.9453074,29.0039062 13.0338582,29.1829409 12.2265625,29.5410156 C11.4192668,29.8990903 10.7063833,30.3906219 10.0878906,31.015625 C9.46939795,31.6406281 8.94205947,32.3632771 8.50585938,33.1835938 C8.06965928,34.0039104 7.71158994,34.8828078 7.43164062,35.8203125 C7.15169131,36.7578172 6.94661523,37.718094 6.81640625,38.7011719 C6.68619727,39.6842497 6.62109375,40.6445266 6.62109375,41.5820312 C6.62109375,43.2617271 6.83919053,44.7884046 7.27539062,46.1621094 C7.71159072,47.5358142 8.30077754,48.7076774 9.04296875,49.6777344 C9.78515996,50.6477913 10.6510367,51.3997369 11.640625,51.9335938 C12.6302133,52.4674506 13.6848902,52.734375 14.8046875,52.734375 C15.9895893,52.734375 17.1907491,52.4251333 18.4082031,51.8066406 C19.6256571,51.1881479 20.8072859,50.188809 21.953125,48.8085938 C22.0312504,48.8476564 22.1321608,48.9029944 22.2558594,48.9746094 C22.3795579,49.0462243 22.4934891,49.1276037 22.5976562,49.21875 C22.7018234,49.3098963 22.7929684,49.4010412 22.8710938,49.4921875 C22.9492191,49.5833338 22.9882812,49.6679684 22.9882812,49.7460938 C22.9882812,49.7981773 22.9817709,49.8307291 22.96875,49.84375 L22.9296875,49.921875 C21.6666604,51.9661561 20.1497484,53.4960887 18.3789062,54.5117188 C16.6080641,55.5273488 14.6679793,56.0351562 12.5585938,56.0351562 C11.4127547,56.0351562 10.3580777,55.8756526 9.39453125,55.5566406 C8.43098477,55.2376286 7.55859766,54.7949247 6.77734375,54.2285156 C5.99608984,53.6621065 5.30924775,52.9915403 4.71679688,52.2167969 C4.124346,51.4420534 3.62955928,50.6022181 3.23242188,49.6972656 C2.83528447,48.7923132 2.5358083,47.8418019 2.33398438,46.8457031 C2.13216045,45.8496044 2.03125,44.8437551 2.03125,43.828125 C2.03125,42.4609307 2.18098809,41.0905017 2.48046875,39.7167969 C2.77994941,38.3430921 3.21939814,37.0214907 3.79882812,35.7519531 C4.37825811,34.4824155 5.08137607,33.2975315 5.90820312,32.1972656 C6.73503018,31.0969997 7.6725208,30.139978 8.72070312,29.3261719 C9.76888545,28.5123657 10.9244729,27.8743513 12.1875,27.4121094 C13.4505271,26.9498675 14.7981699,26.71875 16.2304688,26.71875 C17.2981824,26.71875 18.2942662,26.848957 19.21875,27.109375 C20.1432338,27.369793 20.9407519,27.7376278 21.6113281,28.2128906 C22.2819044,28.6881534 22.8092429,29.2610644 23.1933594,29.9316406 C23.5774759,30.6022169 23.7695312,31.3476521 23.7695312,32.1679688 C23.7695312,32.7018256 23.6881519,33.1738261 23.5253906,33.5839844 C23.3626294,33.9941427 23.1347671,34.3457017 22.8417969,34.6386719 C22.5488267,34.9316421 22.203778,35.152994 21.8066406,35.3027344 C21.4095032,35.4524747 20.9765648,35.5273438 20.5078125,35.5273438 C20.2213527,35.5273438 19.9251317,35.4980472 19.6191406,35.4394531 C19.3131495,35.3808591 19.0104182,35.286459 18.7109375,35.15625 L18.6328125,34.9414062 Z M29.8046875,55.5078125 L29.4921875,55.4882812 C29.5963547,54.2512959 29.69401,52.9036531 29.7851562,51.4453125 C29.8763025,49.9869719 29.9609371,48.5058669 30.0390625,47.0019531 C30.1171879,45.4980394 30.1855466,44.0071688 30.2441406,42.5292969 C30.3027347,41.0514249 30.3548175,39.6712304 30.4003906,38.3886719 C30.4459638,37.1061134 30.4785155,35.9570363 30.4980469,34.9414062 C30.5175782,33.9257762 30.5273438,33.1250029 30.5273438,32.5390625 C30.5273438,32.0572893 30.5078127,31.6406268 30.46875,31.2890625 C30.4296873,30.9374982 30.3417976,30.6445324 30.2050781,30.4101562 C30.0683587,30.1757801 29.869793,30.0032558 29.609375,29.8925781 C29.348957,29.7819005 28.997398,29.7265625 28.5546875,29.7265625 C28.3333322,29.7265625 28.1054699,29.7395832 27.8710938,29.765625 C27.6367176,29.7916668 27.3763035,29.8307289 27.0898438,29.8828125 C26.803384,29.9348961 26.4811216,30.0032548 26.1230469,30.0878906 C25.7649722,30.1725265 25.3515648,30.2734369 24.8828125,30.390625 L24.5898438,28.984375 C26.7513129,28.2031211 28.5025975,27.6529964 29.84375,27.3339844 C31.1849025,27.0149724 32.0898414,26.8554688 32.5585938,26.8554688 C33.417973,26.8554688 34.0332013,27.1061173 34.4042969,27.6074219 C34.7753925,28.1087265 34.9609375,28.8541617 34.9609375,29.84375 C34.9609375,29.9348963 34.9479168,30.2018207 34.921875,30.6445312 C34.8958332,31.0872418 34.8600263,31.6634079 34.8144531,32.3730469 C34.76888,33.0826858 34.713542,33.9062453 34.6484375,34.84375 C34.583333,35.7812547 34.508464,36.787104 34.4238281,37.8613281 C34.3391923,38.9355522 34.2447922,40.0553327 34.140625,41.2207031 C34.0364578,42.3860735 33.9257818,43.5481713 33.8085938,44.7070312 L34.0039062,44.7265625 C34.6289094,42.1744664 35.3352825,39.7949329 36.1230469,37.5878906 C36.9108112,35.3808483 37.796219,33.4635498 38.7792969,31.8359375 C39.7623747,30.2083252 40.8430931,28.9290411 42.0214844,27.9980469 C43.1998757,27.0670526 44.4921805,26.6015625 45.8984375,26.6015625 C46.3932316,26.6015625 46.8554666,26.6796867 47.2851562,26.8359375 C47.7148459,26.9921883 48.0859359,27.2102851 48.3984375,27.4902344 C48.7109391,27.7701837 48.9583324,28.1022116 49.140625,28.4863281 C49.3229176,28.8704446 49.4140625,29.2903623 49.4140625,29.7460938 C49.4140625,30.3320342 49.2871106,30.8951796 49.0332031,31.4355469 C48.7792956,31.9759142 48.378909,32.454425 47.8320312,32.8710938 L47.6757812,32.8710938 C47.1289035,32.4153623 46.6113306,32.0865896 46.1230469,31.8847656 C45.6347632,31.6829417 45.1171902,31.5820312 44.5703125,31.5820312 C43.9843721,31.5820312 43.4179715,31.6927072 42.8710938,31.9140625 C42.324216,32.1354178 41.8229189,32.454425 41.3671875,32.8710938 C40.6249963,33.5481805 39.934899,34.4433538 39.296875,35.5566406 C38.658851,36.6699274 38.0761745,37.9036391 37.5488281,39.2578125 C37.0214817,40.6119859 36.5462261,42.0344978 36.1230469,43.5253906 C35.6998677,45.0162835 35.335288,46.4680919 35.0292969,47.8808594 C34.7233058,49.2936269 34.4759124,50.6217386 34.2871094,51.8652344 C34.0983063,53.1087302 33.9648441,54.1536416 33.8867188,55 L29.8046875,55.5078125 Z M69.4726562,48.9453125 C69.5507816,48.9843752 69.6516921,49.0397132 69.7753906,49.1113281 C69.8990892,49.1829431 70.0130203,49.2610673 70.1171875,49.3457031 C70.2213547,49.430339 70.3124996,49.5214839 70.390625,49.6191406 C70.4687504,49.7167974 70.5078125,49.8111975 70.5078125,49.9023438 C70.5078125,49.9544273 70.4882814,50.0065102 70.4492188,50.0585938 C69.7200484,51.0742238 68.9355511,51.9563765 68.0957031,52.7050781 C67.2558552,53.4537798 66.3834681,54.0787735 65.4785156,54.5800781 C64.5735632,55.0813827 63.6523484,55.4524728 62.7148438,55.6933594 C61.7773391,55.934246 60.8528691,56.0546875 59.9414062,56.0546875 C58.3788984,56.0546875 56.9466211,55.7356803 55.6445312,55.0976562 C54.3424414,54.4596322 53.2226609,53.5872451 52.2851562,52.4804688 C51.3476516,51.3736924 50.615237,50.0748772 50.0878906,48.5839844 C49.5605442,47.0930915 49.296875,45.4948002 49.296875,43.7890625 C49.296875,42.3958264 49.4498683,41.0026111 49.7558594,39.609375 C50.0618505,38.2161389 50.5045544,36.8880271 51.0839844,35.625 C51.6634144,34.3619729 52.3697875,33.1868544 53.203125,32.0996094 C54.0364625,31.0123644 54.9837187,30.0683634 56.0449219,29.2675781 C57.1061251,28.4667929 58.271478,27.8385439 59.5410156,27.3828125 C60.8105532,26.9270811 62.1744719,26.6992188 63.6328125,26.6992188 C64.596359,26.6992188 65.5143186,26.8294258 66.3867188,27.0898438 C67.2591189,27.3502617 68.0240853,27.7246069 68.6816406,28.2128906 C69.339196,28.7011743 69.8632793,29.3033818 70.2539062,30.0195312 C70.6445332,30.7356807 70.8398438,31.5494746 70.8398438,32.4609375 C70.8398438,33.7890691 70.4069054,34.9479117 69.5410156,35.9375 C68.6751259,36.9270883 67.4804764,37.7669236 65.9570312,38.4570312 C64.4335861,39.1471389 62.6399843,39.7037739 60.5761719,40.1269531 C58.5123595,40.5501323 56.2825641,40.8658844 53.8867188,41.0742188 L53.8867188,41.40625 C53.8867188,43.072925 54.0983052,44.5963473 54.5214844,45.9765625 C54.9446636,47.3567777 55.52734,48.5384065 56.2695312,49.5214844 C57.0117225,50.5045622 57.8841096,51.2695285 58.8867188,51.8164062 C59.8893279,52.363284 60.9700463,52.6367188 62.1289062,52.6367188 C63.3007871,52.6367188 64.501947,52.3470081 65.7324219,51.7675781 C66.9628968,51.1881481 68.2096291,50.2474023 69.4726562,48.9453125 Z M65.8007812,33.2617188 C65.8007812,32.6627574 65.6998708,32.1028672 65.4980469,31.5820312 C65.2962229,31.0611953 65.0162778,30.6087259 64.6582031,30.2246094 C64.3001284,29.8404929 63.8737004,29.5377615 63.3789062,29.3164062 C62.8841121,29.095051 62.3502633,28.984375 61.7773438,28.984375 C60.9309854,28.984375 60.1627639,29.1341131 59.4726562,29.4335938 C58.7825486,29.7330744 58.1640652,30.1399714 57.6171875,30.6542969 C57.0703098,31.1686224 56.5885437,31.7675747 56.171875,32.4511719 C55.7552063,33.134769 55.4003921,33.8606732 55.1074219,34.6289062 C54.8144517,35.3971393 54.5768238,36.1848918 54.3945312,36.9921875 C54.2122387,37.7994832 54.0820316,38.5872357 54.0039062,39.3554688 C55.8528738,39.2252598 57.5097583,39.0006526 58.9746094,38.6816406 C60.4394604,38.3626286 61.6764272,37.9524765 62.6855469,37.4511719 C63.6946665,36.9498673 64.4661432,36.3509149 65,35.6542969 C65.5338568,34.9576788 65.8007812,34.1601607 65.8007812,33.2617188 Z M90.6445312,34.921875 C90.6445312,33.893224 90.4752621,33.0013059 90.1367188,32.2460938 C89.7981754,31.4908816 89.3554715,30.8723982 88.8085938,30.390625 C88.261716,29.9088518 87.6432326,29.5507824 86.953125,29.3164062 C86.2630174,29.0820301 85.5729201,28.9648438 84.8828125,28.9648438 C83.9583287,28.9648438 83.1770865,29.062499 82.5390625,29.2578125 C81.9010385,29.453126 81.3834655,29.7200504 80.9863281,30.0585938 C80.5891907,30.3971371 80.3027353,30.7975237 80.1269531,31.2597656 C79.951171,31.7220075 79.8632812,32.2200494 79.8632812,32.7539062 C79.8632812,33.3789094 79.9772124,34.0071583 80.2050781,34.6386719 C80.4329438,35.2701854 80.768227,35.8854137 81.2109375,36.484375 L81.1328125,36.6992188 C80.3906213,37.0638039 79.6419309,37.2460938 78.8867188,37.2460938 C78.4440082,37.2460938 78.0306009,37.1777351 77.6464844,37.0410156 C77.2623679,36.9042962 76.9303399,36.7057305 76.6503906,36.4453125 C76.3704413,36.1848945 76.1490894,35.8658873 75.9863281,35.4882812 C75.8235669,35.1106752 75.7421875,34.6875023 75.7421875,34.21875 C75.7421875,33.450517 75.9277325,32.727868 76.2988281,32.0507812 C76.6699237,31.3736945 77.1614553,30.7552111 77.7734375,30.1953125 C78.3854197,29.6354139 79.095048,29.1341168 79.9023438,28.6914062 C80.7096395,28.2486957 81.5429645,27.8743505 82.4023438,27.5683594 C83.261723,27.2623683 84.1243446,27.0279956 84.9902344,26.8652344 C85.8561241,26.7024731 86.6601525,26.6210938 87.4023438,26.6210938 C88.7695381,26.6210938 89.9381462,26.8033836 90.9082031,27.1679688 C91.8782601,27.5325539 92.6660126,28.0631476 93.2714844,28.7597656 C93.8769562,29.4563837 94.3196601,30.2994742 94.5996094,31.2890625 C94.8795587,32.2786508 95.0195312,33.3984313 95.0195312,34.6484375 C95.0195312,35.5078168 94.9837243,36.4518178 94.9121094,37.4804688 C94.8404944,38.5091197 94.759115,39.5865829 94.6679688,40.7128906 C94.5768225,41.8391983 94.4954431,43.0012961 94.4238281,44.1992188 C94.3522132,45.3971414 94.3164062,46.5885357 94.3164062,47.7734375 C94.3164062,49.6484469 94.6647101,51.057938 95.3613281,52.0019531 C96.0579462,52.9459683 96.9726506,53.4179688 98.1054688,53.4179688 C99.1080779,53.4179688 100.227858,53.0468787 101.464844,52.3046875 L102.03125,53.1445312 C101.15885,54.0169314 100.208338,54.6809873 99.1796875,55.1367188 C98.1510365,55.5924502 97.0703182,55.8203125 95.9375,55.8203125 C95.0911416,55.8203125 94.3098994,55.6770848 93.59375,55.390625 C92.8776006,55.1041652 92.2591172,54.6777372 91.7382812,54.1113281 C91.2174453,53.544919 90.8138035,52.8320355 90.5273438,51.9726562 C90.240884,51.113277 90.0976562,50.1171932 90.0976562,48.984375 C90.0976562,48.6458316 90.1074218,48.3072934 90.1269531,47.96875 C90.1464845,47.6302066 90.1888018,47.2721373 90.2539062,46.8945312 L90.1367188,46.8945312 C89.5768201,48.0143285 88.9290401,49.1178331 88.1933594,50.2050781 C87.4576786,51.2923231 86.650395,52.2623655 85.7714844,53.1152344 C84.8925737,53.9681032 83.9550831,54.6582005 82.9589844,55.1855469 C81.9628856,55.7128933 80.9179742,55.9765625 79.8242188,55.9765625 C78.9257768,55.9765625 78.1054725,55.8203141 77.3632812,55.5078125 C76.62109,55.1953109 75.9863308,54.7656277 75.4589844,54.21875 C74.931638,53.6718723 74.5214858,53.0240923 74.2285156,52.2753906 C73.9355454,51.526689 73.7890625,50.7096398 73.7890625,49.8242188 C73.7890625,48.6783797 74.0006489,47.6367234 74.4238281,46.6992188 C74.8470073,45.7617141 75.432939,44.9218787 76.1816406,44.1796875 C76.9303423,43.4374963 77.8255156,42.7962267 78.8671875,42.2558594 C79.9088594,41.7154921 81.0416605,41.2662778 82.265625,40.9082031 C83.4895895,40.5501284 84.7851494,40.283204 86.1523438,40.1074219 C87.5195381,39.9316397 88.9127533,39.84375 90.3320312,39.84375 C90.4231775,39.0234334 90.4980466,38.2291705 90.5566406,37.4609375 C90.6152347,36.6927045 90.6445312,35.8463588 90.6445312,34.921875 Z M78.6523438,48.3398438 C78.6523438,48.8476588 78.7076817,49.33268 78.8183594,49.7949219 C78.929037,50.2571638 79.1048165,50.6640607 79.3457031,51.015625 C79.5865897,51.3671893 79.8925763,51.6438792 80.2636719,51.8457031 C80.6347675,52.0475271 81.0807266,52.1484375 81.6015625,52.1484375 C82.1875029,52.1484375 82.7929656,52.0117201 83.4179688,51.7382812 C84.0429719,51.4648424 84.6582001,51.087242 85.2636719,50.6054688 C85.8691437,50.1236955 86.4485649,49.5475294 87.0019531,48.8769531 C87.5553413,48.2063769 88.0533832,47.4739623 88.4960938,46.6796875 C88.9388043,45.8854127 89.3066392,45.0488325 89.5996094,44.1699219 C89.8925796,43.2910112 90.084635,42.3893275 90.1757812,41.4648438 C89.2122348,41.4908855 88.2552131,41.5527339 87.3046875,41.6503906 C86.3541619,41.7480474 85.4524782,41.9010406 84.5996094,42.109375 C83.7467405,42.3177094 82.9557328,42.5911441 82.2265625,42.9296875 C81.4973922,43.2682309 80.8691433,43.6881485 80.3417969,44.1894531 C79.8144505,44.6907577 79.4010432,45.2831997 79.1015625,45.9667969 C78.8020818,46.650394 78.6523438,47.4414018 78.6523438,48.3398438 Z M113.007812,12.7734375 C112.460935,15.2474082 112.001955,17.8027212 111.630859,20.4394531 C111.259764,23.0761851 110.944012,25.6770705 110.683594,28.2421875 C111.295576,28.2682293 111.891273,28.2877604 112.470703,28.3007812 C113.050133,28.3138021 113.590492,28.3268229 114.091797,28.3398438 C114.593101,28.3528646 115.048826,28.359375 115.458984,28.359375 L116.484375,28.359375 C117.669277,28.359375 118.639319,28.2877611 119.394531,28.1445312 C119.459636,28.3658865 119.511719,28.5677074 119.550781,28.75 C119.589844,28.9322926 119.609375,29.1015617 119.609375,29.2578125 C119.609375,29.830732 119.371747,30.2018221 118.896484,30.3710938 C118.421222,30.5403654 117.734379,30.625 116.835938,30.625 C115.976558,30.625 115.016281,30.5729172 113.955078,30.46875 C112.893875,30.3645828 111.731777,30.2669275 110.46875,30.1757812 C110.32552,31.5690174 110.205079,32.9264257 110.107422,34.2480469 C110.009765,35.5696681 109.931641,36.8164004 109.873047,37.9882812 C109.814453,39.1601621 109.772136,40.2473908 109.746094,41.25 C109.720052,42.2526092 109.707031,43.1249963 109.707031,43.8671875 C109.707031,45.2604236 109.778645,46.5039008 109.921875,47.5976562 C110.065105,48.6914117 110.319009,49.6191368 110.683594,50.3808594 C111.048179,51.1425819 111.549476,51.7252584 112.1875,52.1289062 C112.825524,52.5325541 113.632808,52.734375 114.609375,52.734375 C115.312504,52.734375 116.097001,52.6106783 116.962891,52.3632812 C117.82878,52.1158842 118.815099,51.7187527 119.921875,51.171875 C120.273439,51.5234393 120.47526,51.9531225 120.527344,52.4609375 C119.720048,52.9947943 118.906254,53.4798155 118.085938,53.9160156 C117.265621,54.3522157 116.458337,54.7265609 115.664062,55.0390625 C114.869788,55.3515641 114.101566,55.5924471 113.359375,55.7617188 C112.617184,55.9309904 111.914066,56.015625 111.25,56.015625 C110.3776,56.015625 109.580082,55.8561214 108.857422,55.5371094 C108.134762,55.2180974 107.509768,54.6516968 106.982422,53.8378906 C106.455075,53.0240845 106.044923,51.9270902 105.751953,50.546875 C105.458983,49.1666598 105.3125,47.4218855 105.3125,45.3125 C105.3125,44.1275982 105.332031,42.9069073 105.371094,41.6503906 C105.410156,40.3938739 105.462239,39.1211002 105.527344,37.8320312 C105.592448,36.5429623 105.677083,35.2539127 105.78125,33.9648438 C105.885417,32.6757748 106.002604,31.4062562 106.132812,30.15625 C105.104162,30.1692709 104.150395,30.2115882 103.271484,30.2832031 C102.392574,30.3548181 101.640628,30.4687492 101.015625,30.625 C100.976562,30.5468746 100.957031,30.4557297 100.957031,30.3515625 C100.957031,30.0781236 101.090493,29.8209647 101.357422,29.5800781 C101.62435,29.3391915 101.99544,29.1210947 102.470703,28.9257812 C102.945966,28.7304678 103.515622,28.567709 104.179688,28.4375 C104.843753,28.307291 105.572913,28.2161461 106.367188,28.1640625 C106.666668,25.4426947 106.985675,22.8711059 107.324219,20.4492188 C107.662762,18.0273316 108.0013,15.8658949 108.339844,13.9648438 C108.404948,13.6263004 108.52539,13.3463553 108.701172,13.125 C108.876954,12.9036447 109.08203,12.7278652 109.316406,12.5976562 C109.550782,12.4674473 109.804686,12.3763023 110.078125,12.3242188 C110.351564,12.2721352 110.618488,12.2460938 110.878906,12.2460938 C111.308596,12.2460938 111.695962,12.2916662 112.041016,12.3828125 C112.386069,12.4739588 112.708332,12.6041658 113.007812,12.7734375 Z M128.320312,18.6914062 C127.864581,18.6914062 127.460939,18.5970062 127.109375,18.4082031 C126.757811,18.2194001 126.458335,17.9720067 126.210938,17.6660156 C125.96354,17.3600245 125.77474,17.0084655 125.644531,16.6113281 C125.514322,16.2141907 125.449219,15.8072937 125.449219,15.390625 C125.449219,14.8046846 125.546874,14.2871116 125.742188,13.8378906 C125.937501,13.3886696 126.191405,13.0110692 126.503906,12.7050781 C126.816408,12.399087 127.161456,12.1712247 127.539062,12.0214844 C127.916669,11.871744 128.287759,11.796875 128.652344,11.796875 C129.095054,11.796875 129.492186,11.8782544 129.84375,12.0410156 C130.195314,12.2037769 130.498046,12.428384 130.751953,12.7148438 C131.005861,13.0013035 131.201171,13.3300763 131.337891,13.7011719 C131.47461,14.0722675 131.542969,14.4726541 131.542969,14.9023438 C131.542969,15.3580752 131.464845,15.8105446 131.308594,16.2597656 C131.152343,16.7089866 130.934246,17.1158836 130.654297,17.4804688 C130.374348,17.8450539 130.035809,18.1380197 129.638672,18.359375 C129.241534,18.5807303 128.802086,18.6914062 128.320312,18.6914062 Z M130.019531,27.5195312 C129.798176,29.0039137 129.609376,30.491529 129.453125,31.9824219 C129.296874,33.4733147 129.169922,34.9153576 129.072266,36.3085938 C128.974609,37.7018299 128.902995,39.0201761 128.857422,40.2636719 C128.811849,41.5071677 128.789062,42.6302033 128.789062,43.6328125 C128.789062,44.9869859 128.808594,46.1490837 128.847656,47.1191406 C128.886719,48.0891976 128.951822,48.9062467 129.042969,49.5703125 C129.134115,50.2343783 129.248046,50.764972 129.384766,51.1621094 C129.521485,51.5592468 129.690754,51.8652333 129.892578,52.0800781 C130.094402,52.2949229 130.328775,52.4348955 130.595703,52.5 C130.862632,52.5651045 131.165363,52.5976562 131.503906,52.5976562 C132.128909,52.5976562 132.802731,52.5032562 133.525391,52.3144531 C134.24805,52.1256501 134.980465,51.8619809 135.722656,51.5234375 L136.09375,52.5390625 C135.624998,52.9166686 135.035811,53.3007793 134.326172,53.6914062 C133.616533,54.0820332 132.871098,54.4401025 132.089844,54.765625 C131.30859,55.0911475 130.543624,55.3548167 129.794922,55.5566406 C129.04622,55.7584646 128.39844,55.859375 127.851562,55.859375 C127.486977,55.859375 127.154949,55.8300784 126.855469,55.7714844 C126.555988,55.7128903 126.285808,55.5664074 126.044922,55.3320312 C125.804035,55.0976551 125.589194,54.7526064 125.400391,54.296875 C125.211588,53.8411436 125.055339,53.2226602 124.931641,52.4414062 C124.807942,51.6601523 124.713542,50.6835996 124.648438,49.5117188 C124.583333,48.3398379 124.550781,46.9205812 124.550781,45.2539062 C124.550781,44.2773389 124.560547,43.1738343 124.580078,41.9433594 C124.599609,40.7128845 124.628906,39.3912831 124.667969,37.9785156 C124.707031,36.5657481 124.759114,35.0748776 124.824219,33.5058594 C124.889323,31.9368411 124.973958,30.3190187 125.078125,28.6523438 C125.104167,28.2877586 125.201822,27.9915376 125.371094,27.7636719 C125.540365,27.5358062 125.748697,27.3600267 125.996094,27.2363281 C126.243491,27.1126296 126.50716,27.027995 126.787109,26.9824219 C127.067059,26.9368487 127.324218,26.9140625 127.558594,26.9140625 C128.430994,26.9140625 129.251298,27.1158834 130.019531,27.5195312 Z M143.984375,55.6835938 C143.815103,54.4335875 143.613282,53.1217517 143.378906,51.7480469 C143.14453,50.3743421 142.893882,48.9876372 142.626953,47.5878906 C142.360025,46.188144 142.08008,44.8046943 141.787109,43.4375 C141.494139,42.0703057 141.201173,40.7682354 140.908203,39.53125 C140.615233,38.2942646 140.332033,37.1549531 140.058594,36.1132812 C139.785155,35.0716094 139.531251,34.1731809 139.296875,33.4179688 C139.049478,32.6497357 138.815105,32.0214868 138.59375,31.5332031 C138.372395,31.0449194 138.141277,30.6608087 137.900391,30.3808594 C137.659504,30.1009101 137.395835,29.9088547 137.109375,29.8046875 C136.822915,29.7005203 136.497398,29.6484375 136.132812,29.6484375 C135.716144,29.6484375 135.270185,29.69401 134.794922,29.7851562 C134.319659,29.8763025 133.750003,29.9999992 133.085938,30.15625 L132.792969,28.75 C133.574223,28.4635402 134.339189,28.199871 135.087891,27.9589844 C135.836592,27.7180978 136.529945,27.5130217 137.167969,27.34375 C137.805993,27.1744783 138.372393,27.0442713 138.867188,26.953125 C139.361982,26.8619787 139.752603,26.8164062 140.039062,26.8164062 C140.390627,26.8164062 140.712889,26.8782546 141.005859,27.0019531 C141.29883,27.1256517 141.58203,27.3372381 141.855469,27.6367188 C142.128908,27.9361994 142.389322,28.3430964 142.636719,28.8574219 C142.884116,29.3717474 143.131509,30.0195273 143.378906,30.8007812 C143.548178,31.3216172 143.746744,31.9954386 143.974609,32.8222656 C144.202475,33.6490927 144.440103,34.5898385 144.6875,35.6445312 C144.934897,36.699224 145.192056,37.8417907 145.458984,39.0722656 C145.725913,40.3027405 145.983072,41.5755143 146.230469,42.890625 C146.477866,44.2057357 146.708983,45.543613 146.923828,46.9042969 C147.138673,48.2649808 147.324218,49.602858 147.480469,50.9179688 C148.131514,49.9674432 148.785804,48.9843801 149.443359,47.96875 C150.100915,46.9531199 150.732419,45.9244844 151.337891,44.8828125 C151.943362,43.8411406 152.506508,42.7897188 153.027344,41.7285156 C153.54818,40.6673124 154.003904,39.6158906 154.394531,38.5742188 C154.785158,37.5325469 155.091145,36.5104217 155.3125,35.5078125 C155.533855,34.5052033 155.644531,33.5351609 155.644531,32.5976562 C155.644531,31.4257754 155.439455,30.325526 155.029297,29.296875 C154.619139,28.268224 153.919276,27.3632852 152.929688,26.5820312 L153.144531,26.1132812 C153.378907,26.0872395 153.60677,26.0677084 153.828125,26.0546875 C154.04948,26.0416666 154.264322,26.0351562 154.472656,26.0351562 C156.217457,26.0351562 157.532548,26.4453084 158.417969,27.265625 C159.30339,28.0859416 159.746094,29.2252531 159.746094,30.6835938 C159.746094,31.7903701 159.511721,33.0501231 159.042969,34.4628906 C158.574216,35.8756581 157.955733,37.3567631 157.1875,38.90625 C156.419267,40.4557369 155.54688,42.0344972 154.570312,43.6425781 C153.593745,45.2506591 152.597661,46.8033779 151.582031,48.3007812 C150.566401,49.7981846 149.576828,51.2011653 148.613281,52.5097656 C147.649735,53.8183659 146.796879,54.9479119 146.054688,55.8984375 L143.984375,55.6835938 Z M182.285156,48.9453125 C182.363282,48.9843752 182.464192,49.0397132 182.587891,49.1113281 C182.711589,49.1829431 182.82552,49.2610673 182.929688,49.3457031 C183.033855,49.430339 183.125,49.5214839 183.203125,49.6191406 C183.28125,49.7167974 183.320312,49.8111975 183.320312,49.9023438 C183.320312,49.9544273 183.300781,50.0065102 183.261719,50.0585938 C182.532548,51.0742238 181.748051,51.9563765 180.908203,52.7050781 C180.068355,53.4537798 179.195968,54.0787735 178.291016,54.5800781 C177.386063,55.0813827 176.464848,55.4524728 175.527344,55.6933594 C174.589839,55.934246 173.665369,56.0546875 172.753906,56.0546875 C171.191398,56.0546875 169.759121,55.7356803 168.457031,55.0976562 C167.154941,54.4596322 166.035161,53.5872451 165.097656,52.4804688 C164.160152,51.3736924 163.427737,50.0748772 162.900391,48.5839844 C162.373044,47.0930915 162.109375,45.4948002 162.109375,43.7890625 C162.109375,42.3958264 162.262368,41.0026111 162.568359,39.609375 C162.87435,38.2161389 163.317054,36.8880271 163.896484,35.625 C164.475914,34.3619729 165.182288,33.1868544 166.015625,32.0996094 C166.848962,31.0123644 167.796219,30.0683634 168.857422,29.2675781 C169.918625,28.4667929 171.083978,27.8385439 172.353516,27.3828125 C173.623053,26.9270811 174.986972,26.6992188 176.445312,26.6992188 C177.408859,26.6992188 178.326819,26.8294258 179.199219,27.0898438 C180.071619,27.3502617 180.836585,27.7246069 181.494141,28.2128906 C182.151696,28.7011743 182.675779,29.3033818 183.066406,30.0195312 C183.457033,30.7356807 183.652344,31.5494746 183.652344,32.4609375 C183.652344,33.7890691 183.219405,34.9479117 182.353516,35.9375 C181.487626,36.9270883 180.292976,37.7669236 178.769531,38.4570312 C177.246086,39.1471389 175.452484,39.7037739 173.388672,40.1269531 C171.324859,40.5501323 169.095064,40.8658844 166.699219,41.0742188 L166.699219,41.40625 C166.699219,43.072925 166.910805,44.5963473 167.333984,45.9765625 C167.757164,47.3567777 168.33984,48.5384065 169.082031,49.5214844 C169.824222,50.5045622 170.69661,51.2695285 171.699219,51.8164062 C172.701828,52.363284 173.782546,52.6367188 174.941406,52.6367188 C176.113287,52.6367188 177.314447,52.3470081 178.544922,51.7675781 C179.775397,51.1881481 181.022129,50.2474023 182.285156,48.9453125 Z M178.613281,33.2617188 C178.613281,32.6627574 178.512371,32.1028672 178.310547,31.5820312 C178.108723,31.0611953 177.828778,30.6087259 177.470703,30.2246094 C177.112628,29.8404929 176.6862,29.5377615 176.191406,29.3164062 C175.696612,29.095051 175.162763,28.984375 174.589844,28.984375 C173.743485,28.984375 172.975264,29.1341131 172.285156,29.4335938 C171.595049,29.7330744 170.976565,30.1399714 170.429688,30.6542969 C169.88281,31.1686224 169.401044,31.7675747 168.984375,32.4511719 C168.567706,33.134769 168.212892,33.8606732 167.919922,34.6289062 C167.626952,35.3971393 167.389324,36.1848918 167.207031,36.9921875 C167.024739,37.7994832 166.894532,38.5872357 166.816406,39.3554688 C168.665374,39.2252598 170.322258,39.0006526 171.787109,38.6816406 C173.25196,38.3626286 174.488927,37.9524765 175.498047,37.4511719 C176.507167,36.9498673 177.278643,36.3509149 177.8125,35.6542969 C178.346357,34.9576788 178.613281,34.1601607 178.613281,33.2617188 Z M190,47.9492188 C190.091146,48.938807 190.354816,49.7916631 190.791016,50.5078125 C191.227216,51.2239619 191.76432,51.8098936 192.402344,52.265625 C193.040368,52.7213564 193.746741,53.0598947 194.521484,53.28125 C195.296228,53.5026053 196.067704,53.6132812 196.835938,53.6132812 C197.552087,53.6132812 198.242184,53.515626 198.90625,53.3203125 C199.570316,53.124999 200.156247,52.8450539 200.664062,52.4804688 C201.171878,52.1158836 201.578775,51.6666693 201.884766,51.1328125 C202.190757,50.5989557 202.34375,50.0000033 202.34375,49.3359375 C202.34375,48.6458299 202.180991,48.0403672 201.855469,47.5195312 C201.529946,46.9986953 201.093753,46.5234396 200.546875,46.09375 C199.999997,45.6640604 199.365238,45.2669289 198.642578,44.9023438 C197.919918,44.5377586 197.167973,44.1666686 196.386719,43.7890625 C195.696611,43.46354 195.003259,43.1347673 194.306641,42.8027344 C193.610023,42.4707015 192.936201,42.109377 192.285156,41.71875 C191.634111,41.328123 191.025393,40.9049502 190.458984,40.4492188 C189.892575,39.9934873 189.397789,39.4889351 188.974609,38.9355469 C188.55143,38.3821587 188.219402,37.7636753 187.978516,37.0800781 C187.737629,36.396481 187.617188,35.638025 187.617188,34.8046875 C187.617188,33.9062455 187.773436,33.0794309 188.085938,32.3242188 C188.398439,31.5690066 188.824867,30.8886749 189.365234,30.2832031 C189.905602,29.6777313 190.530595,29.1471377 191.240234,28.6914062 C191.949873,28.2356748 192.708329,27.8548192 193.515625,27.5488281 C194.322921,27.242837 195.152991,27.0149747 196.005859,26.8652344 C196.858728,26.715494 197.688798,26.640625 198.496094,26.640625 C199.537766,26.640625 200.524084,26.7545562 201.455078,26.9824219 C202.386072,27.2102876 203.199866,27.5423155 203.896484,27.9785156 C204.593102,28.4147157 205.146482,28.9453094 205.556641,29.5703125 C205.966799,30.1953156 206.171875,30.8984336 206.171875,31.6796875 C206.171875,31.9791682 206.119792,32.3046857 206.015625,32.65625 C205.911458,33.0078143 205.735678,33.336587 205.488281,33.6425781 C205.240884,33.9485692 204.915367,34.2057281 204.511719,34.4140625 C204.108071,34.6223969 203.613284,34.7330729 203.027344,34.7460938 C202.480466,34.7460938 201.907555,34.6614592 201.308594,34.4921875 L201.25,34.296875 C201.432293,33.8802063 201.5625,33.4960955 201.640625,33.1445312 C201.71875,32.792967 201.757812,32.4674494 201.757812,32.1679688 C201.744792,31.5690074 201.591798,31.0644552 201.298828,30.6542969 C201.005858,30.2441386 200.638023,29.9088555 200.195312,29.6484375 C199.752602,29.3880195 199.26107,29.1992193 198.720703,29.0820312 C198.180336,28.9648432 197.649742,28.90625 197.128906,28.90625 C196.204422,28.90625 195.377608,29.0299467 194.648438,29.2773438 C193.919267,29.5247408 193.304039,29.8535136 192.802734,30.2636719 C192.30143,30.6738302 191.917319,31.1393203 191.650391,31.6601562 C191.383462,32.1809922 191.25,32.7213514 191.25,33.28125 C191.25,33.9973994 191.4388,34.638669 191.816406,35.2050781 C192.194012,35.7714872 192.695309,36.2923153 193.320312,36.7675781 C193.945316,37.2428409 194.664709,37.6888 195.478516,38.1054688 C196.292322,38.5221375 197.141923,38.9388 198.027344,39.3554688 C199.016932,39.8242211 199.999995,40.3092423 200.976562,40.8105469 C201.95313,41.3118515 202.825517,41.8815072 203.59375,42.5195312 C204.361983,43.1575553 204.983722,43.8899698 205.458984,44.7167969 C205.934247,45.5436239 206.171875,46.5169215 206.171875,47.6367188 C206.171875,48.9778713 205.875654,50.1692656 205.283203,51.2109375 C204.690752,52.2526094 203.899745,53.1315068 202.910156,53.8476562 C201.920568,54.5638057 200.784512,55.10742 199.501953,55.4785156 C198.219395,55.8496112 196.888028,56.0351562 195.507812,56.0351562 C194.817705,56.0351562 194.104821,55.9830734 193.369141,55.8789062 C192.63346,55.7747391 191.920576,55.6184906 191.230469,55.4101562 C190.540361,55.2018219 189.886071,54.944663 189.267578,54.6386719 C188.649085,54.3326808 188.108726,53.9811218 187.646484,53.5839844 C187.184242,53.186847 186.819663,52.7441431 186.552734,52.2558594 C186.285806,51.7675757 186.152344,51.2304717 186.152344,50.6445312 C186.152344,50.1367162 186.259765,49.707033 186.474609,49.3554688 C186.689454,49.0039045 186.972654,48.717449 187.324219,48.4960938 C187.675783,48.2747385 188.069659,48.1087245 188.505859,47.9980469 C188.942059,47.8873692 189.388019,47.8255209 189.84375,47.8125 L190,47.9492188 Z" fill="#FFFFFF"></path>
        </g>
    </g>
</svg>
