<?xml version="1.0" encoding="utf-8"?>
<!-- Generator: Adobe Illustrator 15.0.2, SVG Export Plug-In . SVG Version: 6.00 Build 0)  -->
<!DOCTYPE svg PUBLIC "-//W3C//DTD SVG 1.1//EN" "http://www.w3.org/Graphics/SVG/1.1/DTD/svg11.dtd">
<svg version="1.1" id="Ebene_1" xmlns="http://www.w3.org/2000/svg" xmlns:xlink="http://www.w3.org/1999/xlink" x="0px" y="0px"
	 width="149.948px" height="43.987px" viewBox="0 0 149.948 43.987" enable-background="new 0 0 149.948 43.987"
	 xml:space="preserve">
<g>
	<path fill="#FFFFFF" d="M12.461,11.807c-0.074,0-0.15,0.002-0.228,0.007c-0.079,0.005-0.159,0.012-0.242,0.021L11.915,12
		c0.175,0.139,0.32,0.288,0.436,0.45c0.115,0.161,0.206,0.332,0.273,0.511c0.066,0.18,0.114,0.367,0.142,0.563
		c0.028,0.196,0.042,0.397,0.042,0.605c0,0.498-0.074,1.009-0.221,1.534s-0.343,1.054-0.584,1.586
		c-0.241,0.532-0.518,1.065-0.829,1.6c-0.311,0.535-0.628,1.058-0.95,1.569c-0.106-0.585-0.226-1.195-0.359-1.828
		c-0.134-0.633-0.275-1.271-0.425-1.915c-0.149-0.643-0.302-1.279-0.456-1.908c-0.154-0.629-0.305-1.229-0.453-1.8
		c-0.134-0.069-0.278-0.123-0.432-0.163c-0.154-0.04-0.305-0.059-0.453-0.059c-0.221,0-0.379,0.04-0.473,0.121
		c-0.095,0.081-0.142,0.195-0.142,0.342c0,0.074,0.016,0.172,0.048,0.297c0.037,0.147,0.074,0.304,0.11,0.469
		c0.037,0.166,0.07,0.332,0.101,0.498c0.03,0.166,0.054,0.331,0.073,0.495c0.019,0.164,0.027,0.317,0.027,0.459
		c0,0.106-0.005,0.213-0.017,0.321c-0.012,0.108-0.031,0.218-0.059,0.328c-0.042,0.162-0.108,0.357-0.201,0.588
		c-0.093,0.231-0.201,0.479-0.325,0.746c-0.125,0.268-0.259,0.543-0.404,0.826c-0.145,0.283-0.291,0.559-0.436,0.826
		c-0.145,0.267-0.285,0.519-0.419,0.749c-0.134,0.23-0.251,0.424-0.353,0.58c-0.064-0.46-0.137-0.925-0.218-1.392
		c-0.081-0.468-0.165-0.927-0.252-1.378c-0.088-0.452-0.177-0.887-0.27-1.307c-0.092-0.419-0.181-0.81-0.266-1.171
		s-0.167-0.688-0.246-0.978c-0.078-0.291-0.147-0.532-0.207-0.726c-0.083-0.267-0.168-0.488-0.256-0.664
		c-0.088-0.175-0.177-0.313-0.27-0.414c-0.092-0.102-0.19-0.173-0.293-0.215c-0.104-0.042-0.213-0.062-0.329-0.062
		c-0.193,0-0.516,0.059-0.967,0.176C1.152,12.377,0.617,12.546,0,12.767l0.104,0.498c0.235-0.055,0.436-0.099,0.604-0.131
		c0.168-0.032,0.326-0.049,0.473-0.049c0.125,0,0.235,0.019,0.332,0.056c0.097,0.037,0.188,0.106,0.273,0.208
		c0.085,0.101,0.168,0.244,0.249,0.428s0.167,0.424,0.259,0.719c0.079,0.253,0.164,0.562,0.256,0.923
		c0.092,0.361,0.188,0.758,0.287,1.188c0.099,0.431,0.198,0.886,0.297,1.365c0.099,0.479,0.195,0.967,0.287,1.461
		c0.092,0.496,0.178,0.986,0.259,1.473c0.081,0.486,0.151,0.95,0.211,1.392l0.753,0.083c0.17-0.239,0.352-0.506,0.543-0.801
		c0.191-0.294,0.384-0.605,0.581-0.929c0.196-0.325,0.393-0.659,0.59-1.002c0.198-0.343,0.388-0.684,0.57-1.023
		c0.182-0.338,0.354-0.668,0.515-0.988c0.161-0.32,0.304-0.621,0.429-0.902c0.221,0.949,0.424,1.893,0.608,2.83
		s0.341,1.844,0.47,2.719l0.739,0.083c0.253-0.35,0.542-0.759,0.867-1.227c0.325-0.467,0.657-0.966,0.995-1.496
		c0.339-0.53,0.669-1.077,0.992-1.642c0.322-0.564,0.611-1.118,0.867-1.662c0.255-0.544,0.46-1.063,0.615-1.559
		c0.154-0.495,0.231-0.938,0.231-1.33c0-0.516-0.146-0.919-0.439-1.209C13.526,11.952,13.074,11.807,12.461,11.807z"/>
	<path fill="#FFFFFF" d="M26.841,21.178c-0.076,0.046-0.16,0.089-0.252,0.128c-0.092,0.04-0.19,0.073-0.294,0.101
		c-0.104,0.028-0.208,0.041-0.314,0.041c-0.18,0-0.358-0.051-0.536-0.155c-0.177-0.104-0.335-0.293-0.473-0.567
		c-0.138-0.274-0.251-0.65-0.338-1.127c-0.088-0.477-0.131-1.091-0.131-1.842c0-0.396,0.007-0.829,0.021-1.299
		s0.034-0.951,0.062-1.441c0.028-0.49,0.059-0.981,0.093-1.472c0.035-0.491,0.073-0.956,0.114-1.393l-0.111-0.007l-1.465,0.18
		c-0.074,1.17-0.242,2.261-0.505,3.272c-0.263,1.012-0.581,1.923-0.954,2.734s-0.765,1.427-1.175,1.849
		c-0.411,0.421-0.811,0.632-1.202,0.632c-0.346,0-0.623-0.126-0.83-0.38c-0.208-0.253-0.311-0.654-0.311-1.203
		c0-0.184,0.01-0.414,0.031-0.688c0.021-0.273,0.046-0.574,0.076-0.901c0.03-0.327,0.062-0.673,0.097-1.04
		c0.035-0.367,0.067-0.734,0.097-1.103s0.055-0.732,0.076-1.089c0.021-0.357,0.031-0.692,0.031-1.005
		c0-0.208-0.013-0.392-0.038-0.553c-0.025-0.162-0.07-0.3-0.135-0.415c-0.065-0.115-0.15-0.203-0.255-0.263
		c-0.106-0.06-0.242-0.089-0.408-0.089c-0.083,0-0.213,0.016-0.391,0.048c-0.177,0.032-0.394,0.081-0.649,0.145
		c-0.255,0.065-0.546,0.146-0.871,0.245c-0.324,0.1-0.676,0.216-1.053,0.349l0.104,0.498c0.276-0.078,0.54-0.141,0.791-0.186
		c0.251-0.046,0.455-0.069,0.612-0.069c0.157,0,0.28,0.023,0.37,0.069c0.089,0.046,0.157,0.117,0.204,0.214
		c0.047,0.097,0.076,0.219,0.09,0.366s0.021,0.323,0.021,0.525c0,0.502-0.019,1.01-0.055,1.524
		c-0.037,0.514-0.077,1.011-0.121,1.493c-0.044,0.481-0.084,0.936-0.121,1.361c-0.037,0.427-0.055,0.801-0.055,1.123
		c0,0.493,0.056,0.908,0.169,1.244c0.113,0.336,0.264,0.606,0.453,0.812c0.188,0.205,0.404,0.352,0.646,0.442
		c0.242,0.09,0.494,0.135,0.757,0.135c0.35,0,0.719-0.103,1.105-0.307c0.387-0.206,0.773-0.547,1.158-1.026
		c0.385-0.479,0.76-1.11,1.126-1.894c0.366-0.783,0.706-1.753,1.02-2.91l0.076,0.014c-0.042,0.314-0.077,0.601-0.107,0.86
		c-0.03,0.261-0.054,0.504-0.073,0.729c-0.019,0.226-0.032,0.44-0.041,0.643c-0.01,0.203-0.014,0.404-0.014,0.602
		c0,0.618,0.059,1.134,0.176,1.548c0.117,0.414,0.273,0.747,0.467,0.995c0.193,0.25,0.416,0.427,0.667,0.533
		c0.251,0.105,0.51,0.159,0.777,0.159c0.212,0,0.421-0.025,0.629-0.076s0.406-0.121,0.594-0.21c0.189-0.09,0.369-0.196,0.54-0.318
		c0.17-0.122,0.322-0.252,0.456-0.39l-0.228-0.319C26.983,21.091,26.917,21.132,26.841,21.178z"/>
	<path fill="#FFFFFF" d="M37.578,21.105c-0.258,0.067-0.506,0.101-0.746,0.101c-0.166,0-0.307-0.024-0.422-0.072
		c-0.115-0.049-0.208-0.139-0.277-0.271c-0.068-0.13-0.118-0.309-0.148-0.535c-0.03-0.226-0.044-0.519-0.044-0.878
		c0-0.208,0.007-0.45,0.024-0.729c0.016-0.278,0.036-0.573,0.059-0.881c0.023-0.309,0.049-0.624,0.08-0.943
		c0.03-0.32,0.056-0.623,0.079-0.909c0.023-0.286,0.042-0.545,0.059-0.778c0.016-0.232,0.024-0.417,0.024-0.556
		c0-0.475-0.056-0.879-0.166-1.214c-0.111-0.333-0.259-0.606-0.446-0.818c-0.186-0.212-0.4-0.367-0.639-0.463
		c-0.24-0.097-0.489-0.145-0.747-0.145c-0.373,0-0.765,0.113-1.175,0.339c-0.41,0.226-0.822,0.593-1.237,1.102
		c-0.415,0.509-0.822,1.173-1.224,1.99c-0.401,0.818-0.776,1.822-1.127,3.01l-0.041-0.006c0.041-0.401,0.081-0.803,0.117-1.206
		c0.037-0.403,0.07-0.794,0.1-1.171c0.031-0.378,0.057-0.734,0.08-1.068c0.023-0.333,0.042-0.63,0.059-0.888
		c0.016-0.258,0.029-0.471,0.038-0.639c0.009-0.168,0.014-0.275,0.014-0.321c0-0.387-0.075-0.66-0.225-0.819
		c-0.15-0.159-0.358-0.238-0.625-0.238c-0.11,0-0.263,0.019-0.456,0.055c-0.193,0.037-0.417,0.09-0.671,0.159
		c-0.253,0.069-0.531,0.151-0.833,0.245c-0.302,0.095-0.617,0.199-0.943,0.314l0.103,0.498c0.295-0.078,0.558-0.141,0.788-0.186
		c0.23-0.046,0.428-0.069,0.594-0.069c0.12,0,0.224,0.016,0.311,0.048c0.087,0.032,0.16,0.086,0.217,0.163
		c0.058,0.075,0.101,0.179,0.129,0.308c0.027,0.129,0.041,0.288,0.041,0.477c0,0.207-0.004,0.491-0.01,0.85
		c-0.007,0.359-0.019,0.766-0.035,1.22c-0.016,0.454-0.034,0.942-0.055,1.465c-0.02,0.523-0.044,1.051-0.073,1.583
		c-0.027,0.532-0.058,1.056-0.089,1.572c-0.033,0.517-0.067,0.994-0.104,1.431l0.111,0.007l1.444-0.18
		c0.037-0.682,0.127-1.364,0.27-2.046c0.143-0.682,0.322-1.335,0.539-1.959c0.216-0.624,0.459-1.205,0.729-1.742
		s0.55-1.002,0.844-1.396c0.292-0.394,0.586-0.704,0.881-0.93c0.294-0.226,0.576-0.339,0.843-0.339c0.336,0,0.605,0.128,0.809,0.384
		c0.202,0.256,0.304,0.654,0.304,1.192c0,0.203-0.016,0.474-0.045,0.812c-0.03,0.338-0.062,0.715-0.1,1.13
		c-0.037,0.414-0.071,0.851-0.101,1.31c-0.03,0.458-0.045,0.904-0.045,1.337c0,0.354,0.011,0.687,0.031,0.995
		c0.021,0.309,0.067,0.579,0.139,0.809c0.071,0.23,0.179,0.413,0.321,0.546c0.143,0.134,0.339,0.201,0.588,0.201
		c0.211,0,0.456-0.036,0.733-0.107c0.276-0.071,0.553-0.165,0.833-0.279c0.28-0.114,0.545-0.242,0.798-0.38
		c0.253-0.138,0.463-0.274,0.629-0.408L38.36,20.83C38.097,20.945,37.836,21.039,37.578,21.105z"/>
	<path fill="#FFFFFF" d="M49.517,21.105c-0.256,0.067-0.495,0.101-0.715,0.101c-0.12,0-0.224-0.013-0.311-0.038
		c-0.087-0.025-0.165-0.079-0.231-0.163c-0.067-0.083-0.123-0.2-0.166-0.352c-0.044-0.152-0.078-0.357-0.104-0.615
		c-0.026-0.258-0.044-0.574-0.056-0.947c-0.011-0.373-0.017-0.82-0.017-1.341c0-1.083,0.035-2.214,0.104-3.394
		c0.069-1.179,0.161-2.377,0.276-3.594c0.115-1.217,0.249-2.437,0.401-3.662c0.152-1.227,0.311-2.424,0.477-3.594
		c-0.304-0.147-0.594-0.221-0.871-0.221c-0.12,0-0.237,0.012-0.352,0.034c-0.115,0.023-0.219,0.059-0.311,0.107
		c-0.092,0.048-0.168,0.112-0.229,0.193c-0.06,0.081-0.096,0.176-0.11,0.287c-0.064,0.535-0.125,1.143-0.18,1.824
		c-0.055,0.682-0.106,1.406-0.152,2.17c-0.046,0.766-0.086,1.552-0.121,2.36c-0.035,0.808-0.063,1.604-0.086,2.388
		c-0.359-0.211-0.72-0.363-1.082-0.456c-0.362-0.092-0.725-0.139-1.089-0.139c-0.521,0-1.017,0.086-1.489,0.259
		s-0.911,0.411-1.316,0.715c-0.405,0.305-0.772,0.667-1.099,1.089c-0.327,0.422-0.607,0.879-0.839,1.372
		c-0.233,0.493-0.412,1.015-0.536,1.565c-0.125,0.551-0.187,1.109-0.187,1.676c0,0.47,0.046,0.928,0.138,1.372
		c0.092,0.445,0.234,0.839,0.425,1.182c0.191,0.343,0.437,0.62,0.736,0.83c0.299,0.209,0.657,0.314,1.071,0.314
		c0.41,0,0.838-0.145,1.286-0.432c0.447-0.288,0.892-0.699,1.334-1.233c0.442-0.534,0.872-1.18,1.289-1.935
		c0.417-0.756,0.803-1.602,1.158-2.537l0.062,0.013c-0.079,0.475-0.135,0.951-0.169,1.428c-0.035,0.477-0.052,0.945-0.052,1.406
		c0,0.434,0.013,0.833,0.038,1.202c0.025,0.369,0.059,0.691,0.101,0.968c0.032,0.207,0.075,0.377,0.128,0.511
		c0.053,0.134,0.117,0.24,0.193,0.321c0.076,0.081,0.167,0.137,0.273,0.169c0.106,0.032,0.23,0.048,0.373,0.048
		c0.193,0,0.422-0.036,0.688-0.107c0.265-0.071,0.536-0.165,0.812-0.279c0.276-0.115,0.541-0.242,0.792-0.38
		c0.251-0.138,0.459-0.274,0.625-0.408l-0.131-0.359C50.032,20.945,49.772,21.039,49.517,21.105z M46.428,14.733
		c-0.145,0.546-0.332,1.099-0.56,1.659s-0.488,1.105-0.781,1.634c-0.292,0.53-0.604,1-0.933,1.41
		c-0.33,0.41-0.667,0.739-1.012,0.988c-0.345,0.249-0.684,0.373-1.016,0.373c-0.185,0-0.345-0.047-0.48-0.142
		c-0.136-0.094-0.252-0.22-0.349-0.377c-0.097-0.156-0.177-0.333-0.242-0.528c-0.064-0.196-0.116-0.396-0.156-0.602
		c-0.039-0.205-0.066-0.403-0.08-0.595c-0.014-0.191-0.021-0.36-0.021-0.508c0-0.415,0.038-0.832,0.114-1.251
		c0.076-0.419,0.188-0.824,0.335-1.213c0.147-0.39,0.334-0.754,0.56-1.092c0.226-0.338,0.488-0.633,0.788-0.885
		c0.3-0.251,0.637-0.448,1.013-0.59s0.787-0.214,1.233-0.214c0.613,0,1.23,0.147,1.852,0.442
		C46.661,13.691,46.573,14.188,46.428,14.733z"/>
	<path fill="#FFFFFF" d="M54.736,16.793c0.73-0.149,1.365-0.346,1.904-0.591c0.539-0.244,0.961-0.542,1.268-0.892
		c0.307-0.35,0.46-0.76,0.46-1.23c0-0.322-0.069-0.61-0.208-0.863c-0.139-0.253-0.324-0.467-0.556-0.64
		c-0.233-0.172-0.503-0.305-0.812-0.397c-0.309-0.092-0.633-0.139-0.975-0.139c-0.516,0-0.998,0.081-1.447,0.242
		c-0.45,0.161-0.862,0.383-1.237,0.667c-0.375,0.284-0.711,0.618-1.006,1.002c-0.294,0.385-0.545,0.801-0.75,1.248
		c-0.205,0.446-0.361,0.917-0.47,1.41c-0.109,0.493-0.162,0.985-0.162,1.479c0,0.604,0.093,1.169,0.28,1.697
		c0.186,0.527,0.446,0.986,0.777,1.378c0.332,0.392,0.728,0.701,1.189,0.927c0.46,0.226,0.967,0.339,1.521,0.339
		c0.322,0,0.649-0.043,0.981-0.129c0.332-0.085,0.658-0.216,0.978-0.393c0.321-0.177,0.629-0.398,0.926-0.664
		c0.297-0.265,0.575-0.577,0.833-0.937c0.014-0.019,0.021-0.037,0.021-0.056c0-0.032-0.014-0.065-0.042-0.101
		c-0.027-0.034-0.06-0.066-0.097-0.097c-0.037-0.03-0.077-0.058-0.121-0.083c-0.044-0.025-0.079-0.045-0.107-0.059
		c-0.447,0.461-0.888,0.793-1.323,0.999c-0.436,0.205-0.861,0.307-1.275,0.307c-0.411,0-0.793-0.097-1.147-0.29
		c-0.354-0.194-0.664-0.464-0.926-0.812c-0.263-0.347-0.469-0.766-0.618-1.254c-0.15-0.488-0.225-1.027-0.225-1.617v-0.118
		C53.217,17.055,54.006,16.943,54.736,16.793z M52.549,15.684c0.064-0.285,0.148-0.564,0.252-0.836s0.229-0.528,0.376-0.771
		c0.147-0.242,0.318-0.454,0.512-0.636c0.193-0.182,0.412-0.325,0.657-0.431c0.244-0.106,0.516-0.159,0.815-0.159
		c0.203,0,0.392,0.039,0.566,0.118c0.175,0.078,0.326,0.185,0.453,0.321c0.127,0.136,0.226,0.296,0.297,0.48
		c0.071,0.184,0.107,0.383,0.107,0.594c0,0.318-0.095,0.601-0.284,0.847c-0.189,0.247-0.462,0.458-0.819,0.636
		c-0.357,0.177-0.795,0.323-1.313,0.435c-0.518,0.113-1.104,0.193-1.758,0.238C52.438,16.249,52.484,15.97,52.549,15.684z"/>
	<path fill="#FFFFFF" d="M67.809,12.674c-0.064-0.136-0.152-0.253-0.262-0.352c-0.111-0.099-0.242-0.177-0.394-0.232
		c-0.152-0.056-0.316-0.083-0.491-0.083c-0.498,0-0.956,0.165-1.372,0.494c-0.417,0.33-0.8,0.782-1.147,1.358
		c-0.348,0.576-0.661,1.254-0.94,2.035c-0.279,0.781-0.528,1.623-0.75,2.526l-0.069-0.007c0.042-0.41,0.081-0.821,0.118-1.233
		c0.037-0.412,0.07-0.809,0.1-1.189c0.03-0.38,0.057-0.736,0.08-1.068c0.022-0.332,0.042-0.623,0.059-0.875
		c0.016-0.25,0.029-0.454,0.038-0.611c0.009-0.156,0.014-0.251,0.014-0.283c0-0.35-0.065-0.614-0.197-0.792
		c-0.132-0.178-0.349-0.266-0.653-0.266c-0.166,0-0.486,0.057-0.96,0.169c-0.475,0.113-1.094,0.308-1.859,0.584l0.104,0.498
		c0.166-0.042,0.312-0.078,0.439-0.107c0.126-0.03,0.24-0.054,0.342-0.072c0.102-0.018,0.193-0.033,0.276-0.042
		s0.164-0.014,0.242-0.014c0.156,0,0.281,0.02,0.373,0.059c0.092,0.039,0.162,0.1,0.21,0.183c0.048,0.083,0.08,0.186,0.093,0.311
		c0.014,0.125,0.021,0.272,0.021,0.442c0,0.208-0.003,0.491-0.01,0.85c-0.007,0.359-0.019,0.766-0.035,1.22
		c-0.016,0.454-0.035,0.942-0.055,1.466c-0.021,0.523-0.045,1.05-0.073,1.582c-0.027,0.532-0.058,1.056-0.089,1.572
		c-0.033,0.516-0.067,0.993-0.104,1.43l0.111,0.007l1.444-0.18c0.028-0.299,0.075-0.669,0.142-1.109
		c0.067-0.439,0.154-0.91,0.263-1.41c0.108-0.5,0.237-1.013,0.387-1.541c0.15-0.527,0.318-1.031,0.504-1.51
		c0.187-0.479,0.393-0.916,0.619-1.31s0.47-0.71,0.733-0.95c0.161-0.147,0.338-0.261,0.532-0.338
		c0.194-0.078,0.394-0.118,0.602-0.118c0.194,0,0.377,0.036,0.549,0.107c0.172,0.071,0.356,0.187,0.549,0.349h0.056
		c0.193-0.147,0.335-0.317,0.425-0.508c0.09-0.19,0.135-0.39,0.135-0.597C67.905,12.958,67.874,12.81,67.809,12.674z"/>
	<path fill="#FFFFFF" d="M85.774,19.427c-0.494-0.521-0.971-1.068-1.434-1.642c-0.459-0.573-0.893-1.163-1.296-1.769
		c-0.404-0.605-0.763-1.213-1.076-1.822c-0.265,0.22-0.506,0.458-0.723,0.714c-0.218,0.257-0.403,0.536-0.56,0.838
		c-0.158,0.301-0.279,0.626-0.367,0.976c-0.088,0.348-0.131,0.723-0.131,1.121c0,0.743,0.115,1.385,0.345,1.926
		s0.528,0.987,0.901,1.338c0.371,0.351,0.789,0.611,1.256,0.778c0.465,0.167,0.938,0.251,1.416,0.251
		c0.295,0,0.586-0.03,0.871-0.089c0.287-0.061,0.564-0.145,0.834-0.255c0.271-0.109,0.524-0.242,0.768-0.396
		c0.24-0.154,0.468-0.329,0.677-0.522c-0.205-0.185-0.412-0.377-0.616-0.576C86.35,20.022,86.061,19.732,85.774,19.427z"/>
	<path fill="#FFFFFF" d="M83.157,12.67c0.459-0.269,0.847-0.573,1.169-0.912c0.322-0.339,0.582-0.688,0.781-1.047
		c0.199-0.359,0.345-0.712,0.434-1.062c0.09-0.349,0.135-0.671,0.135-0.965c0-0.274-0.039-0.529-0.115-0.766
		c-0.078-0.236-0.186-0.443-0.324-0.62c-0.141-0.177-0.312-0.316-0.514-0.416c-0.201-0.099-0.425-0.149-0.67-0.149
		c-0.343,0-0.632,0.071-0.867,0.213c-0.233,0.142-0.424,0.331-0.567,0.568C82.474,7.75,82.37,8.02,82.306,8.322
		c-0.064,0.302-0.099,0.612-0.099,0.931c0,0.514,0.084,1.056,0.252,1.63C82.625,11.457,82.858,12.052,83.157,12.67z"/>
	<path fill="#FFFFFF" d="M95.852,16.056l3.226-2.464l-3.622-1.831l2.115-3.463l-4.037-0.397l0.724-3.994l-3.91,1.088l-0.769-3.984
		l-3.253,2.427L84.168,0l-2.156,3.438l-3.251-2.427l-0.769,3.985l-3.909-1.088l0.723,3.994l-4.039,0.397l2.116,3.463l-3.622,1.83
		l3.225,2.464l-2.717,3.015l3.897,1.133l-1.444,3.792l4.043-0.352l0.021,4.059l3.644-1.788l0.723,1.837
		c0.924,2.188,0.193,6.695-0.885,10.178c-1.498,4.842,2.198,7.194,3.432,5.521c1.458-1.98-0.823-7.273-0.302-13.756
		c0.098-1.201,0.552-1.965,1.107-2.797c0.01-0.014,0.018-0.029,0.027-0.045l0.135-0.146l0.594,0.644
		c1.025,1.385,1.078,3.424,0.728,6.818c-0.23,2.216-0.687,4.318,1.139,5.193c2.126,1.02,2.188-3.11,1.789-5.256
		c-0.585-3.159-0.969-5.409-0.492-6.967l0.482-1.225l3.644,1.788l0.023-4.06l4.042,0.353l-1.443-3.792l3.896-1.134L95.852,16.056z
		 M93.188,13.755c-0.103,0.095-0.248,0.168-0.438,0.221c-0.188,0.052-0.416,0.087-0.681,0.104c-0.266,0.018-0.562,0.026-0.891,0.026
		c-0.259,0-0.525-0.006-0.801-0.015c-0.273-0.01-0.547-0.025-0.822-0.045c0.142,0.195,0.254,0.393,0.338,0.595
		c0.084,0.202,0.15,0.396,0.197,0.584c0.049,0.187,0.078,0.36,0.094,0.523c0.016,0.161,0.021,0.303,0.021,0.422
		c0,0.639-0.109,1.273-0.328,1.903c-0.66,1.898-1.188,2.838-3.056,4.184c-0.366,0.265-0.749,0.492-1.147,0.685
		c-0.398,0.191-0.812,0.342-1.238,0.444c-0.426,0.105-0.858,0.158-1.296,0.158c-0.658,0-1.279-0.11-1.865-0.33
		c-0.585-0.22-1.097-0.534-1.532-0.946c-0.437-0.412-0.783-0.91-1.039-1.496c-0.259-0.586-0.385-1.245-0.385-1.978
		c0-0.663,0.091-1.262,0.277-1.798c0.182-0.536,0.428-1.02,0.734-1.451c0.307-0.432,0.658-0.817,1.051-1.155
		c0.395-0.34,0.802-0.646,1.226-0.92c-0.289-0.643-0.515-1.265-0.679-1.866c-0.164-0.601-0.246-1.18-0.246-1.739
		c0-0.573,0.107-1.11,0.324-1.611c0.216-0.501,0.507-0.939,0.875-1.313c0.366-0.374,0.788-0.669,1.268-0.886
		c0.479-0.217,0.979-0.325,1.501-0.325c0.414,0,0.787,0.061,1.119,0.183c0.332,0.123,0.614,0.294,0.85,0.513
		c0.232,0.219,0.413,0.485,0.538,0.796c0.125,0.312,0.187,0.655,0.187,1.028c0,0.354-0.066,0.739-0.201,1.156
		c-0.136,0.416-0.354,0.846-0.658,1.29c-0.305,0.443-0.7,0.892-1.188,1.346c-0.489,0.454-1.085,0.893-1.788,1.316
		c0.294,0.538,0.625,1.079,0.995,1.623c0.369,0.543,0.763,1.075,1.183,1.596c0.418,0.521,0.854,1.022,1.309,1.503
		c0.453,0.481,0.912,0.931,1.376,1.35c0.214-0.409,0.368-0.835,0.467-1.279c0.097-0.444,0.146-0.892,0.146-1.347
		c0-0.528-0.078-1.039-0.234-1.533c-0.157-0.494-0.41-0.95-0.76-1.368c-0.328-0.04-0.604-0.076-0.826-0.109
		c-0.223-0.032-0.366-0.061-0.438-0.086c-0.108-0.035-0.188-0.075-0.231-0.123s-0.066-0.106-0.066-0.176
		c0-0.064,0.033-0.133,0.101-0.206c0.067-0.072,0.149-0.142,0.248-0.209c0.098-0.067,0.203-0.129,0.316-0.187
		c0.114-0.057,0.221-0.101,0.314-0.131c0.492,0.125,0.919,0.294,1.277,0.508c0.439,0,0.852-0.004,1.234-0.015
		c0.384-0.009,0.755-0.028,1.114-0.056c0.358-0.027,0.715-0.062,1.069-0.102c0.354-0.039,0.723-0.089,1.105-0.149
		c0.09,0.205,0.135,0.375,0.135,0.508C93.341,13.533,93.291,13.661,93.188,13.755z"/>
	<path fill="#FFFFFF" d="M106.234,12.263c0.231,0.014,0.453,0.025,0.668,0.033c0.215,0.009,0.414,0.016,0.603,0.021
		c0.187,0.006,0.354,0.011,0.504,0.017c0.148,0.005,0.277,0.008,0.386,0.01c0.211,0.004,0.412,0,0.601-0.01s0.353-0.021,0.485-0.033
		c0.047,0.176,0.067,0.314,0.065,0.416c-0.004,0.203-0.09,0.334-0.259,0.396s-0.413,0.089-0.729,0.083
		c-0.318-0.005-0.675-0.029-1.063-0.071c-0.392-0.041-0.821-0.082-1.291-0.123c-0.027,0.548-0.062,1.144-0.103,1.788
		c-0.039,0.644-0.086,1.312-0.144,2.002s-0.124,1.39-0.201,2.101c-0.075,0.71-0.146,1.453-0.284,2.065
		c-0.141,0.612-0.302,1.169-0.479,1.667c-0.285,0.782-0.604,1.434-0.954,1.956c-0.352,0.521-0.721,0.938-1.111,1.252
		c-0.391,0.312-0.793,0.534-1.207,0.662c-0.416,0.128-0.826,0.188-1.238,0.181c-0.354-0.006-0.683-0.051-0.98-0.135
		s-0.561-0.195-0.777-0.333c-0.219-0.138-0.392-0.296-0.515-0.476c-0.123-0.182-0.185-0.369-0.181-0.566
		c0.003-0.109,0.029-0.221,0.082-0.327c0.054-0.106,0.125-0.202,0.216-0.282c0.092-0.082,0.198-0.146,0.321-0.199
		c0.123-0.049,0.256-0.073,0.397-0.07c0.129,0.24,0.272,0.447,0.433,0.617c0.158,0.173,0.328,0.312,0.51,0.426
		c0.185,0.109,0.373,0.193,0.568,0.249c0.198,0.055,0.398,0.083,0.603,0.087c0.528,0.01,0.981-0.154,1.358-0.49
		c0.377-0.337,0.696-0.816,0.959-1.439c0.265-0.625,0.56-2.194,0.654-3.283c0.096-1.087,0.167-2.264,0.215-3.528
		c0.049-1.264,0.09-2.589,0.125-3.976c-0.435-0.003-0.834,0.006-1.203,0.026c-0.369,0.021-0.679,0.075-0.931,0.163
		c-0.017-0.042-0.024-0.086-0.024-0.132c0.002-0.11,0.059-0.212,0.166-0.305c0.106-0.092,0.258-0.173,0.449-0.243
		c0.192-0.071,0.424-0.126,0.694-0.168c0.271-0.041,0.569-0.065,0.896-0.074c0.025-0.433,0.059-0.846,0.092-1.239
		c0.035-0.394,0.076-0.782,0.129-1.167c0.052-0.384,0.111-0.768,0.184-1.154c0.072-0.386,0.16-0.785,0.266-1.198
		c0.135-0.536,0.305-1.018,0.51-1.445c0.207-0.427,0.438-0.806,0.695-1.135c0.256-0.33,0.532-0.611,0.832-0.846
		c0.295-0.234,0.6-0.426,0.909-0.575c0.312-0.149,0.628-0.255,0.946-0.322c0.318-0.065,0.631-0.095,0.936-0.089
		c0.445,0.007,0.844,0.074,1.188,0.198c0.346,0.123,0.639,0.283,0.876,0.479c0.237,0.196,0.418,0.414,0.541,0.656
		c0.123,0.242,0.182,0.488,0.177,0.737c-0.003,0.193-0.037,0.365-0.104,0.516c-0.065,0.151-0.151,0.278-0.264,0.379
		c-0.109,0.102-0.236,0.179-0.381,0.231c-0.145,0.052-0.296,0.077-0.458,0.075c-0.212-0.004-0.434-0.061-0.667-0.171l-0.025-0.076
		c0.09-0.201,0.16-0.377,0.205-0.529c0.049-0.151,0.072-0.307,0.076-0.468c0.004-0.221-0.037-0.412-0.125-0.573
		s-0.201-0.293-0.346-0.396c-0.143-0.104-0.305-0.181-0.48-0.23c-0.176-0.05-0.352-0.076-0.524-0.079
		c-0.519-0.009-0.954,0.098-1.315,0.322c-0.361,0.224-0.664,0.535-0.908,0.934c-0.244,0.399-0.44,0.87-0.59,1.414
		c-0.148,0.544-0.265,1.13-0.347,1.759c-0.083,0.63-0.146,1.289-0.188,1.977C106.311,10.89,106.271,11.577,106.234,12.263z"/>
	<path fill="#FFFFFF" d="M112.855,12.332c-0.078,0.525-0.146,1.051-0.201,1.579c-0.055,0.528-0.1,1.038-0.135,1.531
		c-0.035,0.494-0.062,0.959-0.076,1.4c-0.016,0.44-0.022,0.837-0.022,1.192c0,0.479,0.009,0.89,0.021,1.233
		c0.014,0.343,0.035,0.632,0.068,0.868c0.031,0.236,0.071,0.423,0.12,0.563c0.048,0.141,0.106,0.249,0.181,0.325
		c0.07,0.076,0.153,0.125,0.248,0.148c0.094,0.023,0.201,0.035,0.321,0.035c0.222,0,0.459-0.034,0.716-0.101
		c0.256-0.067,0.514-0.16,0.776-0.28l0.131,0.359c-0.166,0.133-0.373,0.27-0.625,0.408c-0.251,0.138-0.515,0.265-0.791,0.38
		c-0.276,0.115-0.547,0.208-0.812,0.279c-0.267,0.072-0.494,0.107-0.688,0.107c-0.129,0-0.246-0.01-0.353-0.031
		c-0.105-0.021-0.201-0.072-0.286-0.156c-0.087-0.083-0.162-0.205-0.229-0.366c-0.066-0.161-0.121-0.38-0.166-0.656
		c-0.043-0.277-0.076-0.622-0.1-1.038c-0.023-0.414-0.035-0.916-0.035-1.506c0-0.345,0.004-0.736,0.01-1.172
		c0.008-0.435,0.02-0.902,0.031-1.402c0.014-0.5,0.033-1.028,0.057-1.583c0.022-0.555,0.053-1.128,0.09-1.717
		c0.01-0.129,0.043-0.234,0.104-0.314s0.136-0.143,0.224-0.187s0.18-0.074,0.277-0.089s0.188-0.024,0.271-0.024
		C112.293,12.118,112.583,12.189,112.855,12.332z"/>
	<path fill="#FFFFFF" d="M119.704,7.114c-0.192,0.875-0.354,1.78-0.487,2.713c-0.131,0.933-0.242,1.853-0.335,2.76
		c0.218,0.01,0.429,0.017,0.634,0.021s0.396,0.009,0.571,0.014c0.179,0.004,0.34,0.007,0.483,0.007c0.146,0,0.267,0,0.363,0
		c0.418,0,0.762-0.025,1.028-0.076c0.022,0.078,0.041,0.15,0.056,0.214c0.016,0.065,0.021,0.125,0.021,0.18
		c0,0.203-0.084,0.334-0.252,0.394c-0.169,0.06-0.411,0.089-0.729,0.089c-0.306,0-0.646-0.019-1.021-0.055
		c-0.376-0.037-0.786-0.071-1.232-0.104c-0.052,0.493-0.095,0.974-0.128,1.441c-0.034,0.468-0.062,0.909-0.084,1.324
		c-0.021,0.415-0.034,0.799-0.045,1.154c-0.01,0.355-0.014,0.664-0.014,0.927c0,0.493,0.024,0.933,0.075,1.32
		s0.142,0.715,0.271,0.984c0.129,0.27,0.308,0.476,0.531,0.619c0.228,0.143,0.512,0.214,0.856,0.214
		c0.248,0,0.525-0.044,0.832-0.131c0.308-0.087,0.655-0.228,1.049-0.421c0.123,0.125,0.195,0.276,0.213,0.456
		c-0.284,0.189-0.572,0.36-0.862,0.515c-0.29,0.155-0.576,0.287-0.856,0.397c-0.279,0.111-0.554,0.196-0.813,0.255
		c-0.265,0.061-0.513,0.09-0.747,0.09c-0.311,0-0.591-0.057-0.848-0.169c-0.256-0.112-0.478-0.313-0.664-0.602
		c-0.187-0.288-0.332-0.676-0.437-1.164c-0.104-0.489-0.153-1.106-0.153-1.853c0-0.418,0.006-0.851,0.021-1.295
		s0.032-0.895,0.056-1.351c0.022-0.457,0.053-0.912,0.09-1.368c0.037-0.457,0.078-0.906,0.125-1.348
		c-0.362,0.004-0.701,0.02-1.012,0.045c-0.312,0.025-0.578,0.065-0.8,0.121c-0.015-0.027-0.021-0.06-0.021-0.097
		c0-0.097,0.047-0.188,0.142-0.273c0.094-0.085,0.226-0.162,0.396-0.231c0.168-0.069,0.369-0.126,0.604-0.173
		c0.235-0.046,0.494-0.078,0.772-0.097c0.106-0.962,0.222-1.873,0.34-2.73c0.119-0.857,0.238-1.622,0.359-2.294
		c0.022-0.12,0.064-0.219,0.127-0.297c0.062-0.078,0.135-0.14,0.219-0.186c0.082-0.046,0.172-0.079,0.271-0.097
		c0.099-0.019,0.19-0.027,0.283-0.027c0.151,0,0.289,0.016,0.411,0.048C119.482,7.008,119.598,7.054,119.704,7.114z"/>
	<path fill="#FFFFFF" d="M123.704,21.966c0.104-0.184,0.269-0.423,0.479-0.715c0.215-0.292,0.465-0.62,0.75-0.984
		c0.285-0.364,0.6-0.752,0.938-1.165c0.339-0.412,0.688-0.828,1.04-1.248c0.354-0.418,0.71-0.833,1.063-1.24
		c0.354-0.407,0.688-0.788,1.002-1.14c0.312-0.353,0.601-0.668,0.856-0.947c0.257-0.279,0.468-0.499,0.629-0.66l-0.041-0.048
		c-0.194,0.042-0.405,0.073-0.633,0.094s-0.444,0.031-0.653,0.031c-0.312,0-0.611-0.011-0.896-0.034s-0.549-0.049-0.784-0.076
		c-0.237-0.028-0.446-0.053-0.625-0.076c-0.181-0.023-0.317-0.034-0.415-0.034c-0.198,0-0.378,0.027-0.539,0.083
		c-0.161,0.056-0.302,0.148-0.421,0.28c-0.121,0.131-0.22,0.308-0.295,0.529c-0.075,0.221-0.127,0.497-0.154,0.829l-0.524-0.014
		c0.004-0.249,0.011-0.5,0.018-0.756c0.007-0.256,0.027-0.502,0.062-0.739s0.086-0.461,0.154-0.67
		c0.069-0.21,0.172-0.392,0.303-0.546c0.131-0.154,0.297-0.276,0.5-0.366s0.453-0.135,0.748-0.135c0.237,0,0.51,0.017,0.812,0.048
		c0.302,0.033,0.62,0.067,0.954,0.104s0.676,0.072,1.025,0.104c0.351,0.032,0.689,0.048,1.021,0.048
		c0.357,0,0.699-0.028,1.025-0.083c0.324-0.055,0.6-0.149,0.818-0.283l0.387,0.318c-0.093,0.203-0.231,0.448-0.422,0.736
		c-0.188,0.288-0.41,0.605-0.666,0.953c-0.257,0.348-0.539,0.718-0.851,1.11c-0.312,0.391-0.634,0.788-0.968,1.188
		s-0.674,0.802-1.017,1.203c-0.345,0.401-0.679,0.783-1.003,1.147s-0.633,0.705-0.924,1.023c-0.289,0.317-0.548,0.594-0.771,0.829
		l0.055,0.048c0.088-0.037,0.188-0.072,0.301-0.104c0.113-0.033,0.229-0.061,0.35-0.083c0.119-0.022,0.238-0.04,0.355-0.051
		c0.117-0.011,0.225-0.018,0.32-0.018c0.291,0,0.58,0.022,0.869,0.066c0.287,0.044,0.564,0.091,0.836,0.142
		c0.27,0.05,0.526,0.098,0.775,0.142s0.484,0.065,0.705,0.065c0.207,0,0.398-0.028,0.577-0.083c0.177-0.055,0.335-0.153,0.476-0.293
		c0.137-0.141,0.252-0.331,0.344-0.57c0.094-0.239,0.158-0.546,0.195-0.918l0.512,0.041c-0.01,0.664-0.065,1.212-0.166,1.645
		c-0.104,0.433-0.242,0.775-0.422,1.026c-0.182,0.251-0.395,0.427-0.638,0.526c-0.243,0.098-0.512,0.148-0.802,0.148
		c-0.307,0-0.629-0.038-0.973-0.114c-0.344-0.076-0.697-0.16-1.062-0.252c-0.365-0.092-0.738-0.176-1.115-0.252
		c-0.379-0.076-0.753-0.114-1.119-0.114c-0.348,0-0.681,0.046-0.998,0.138c-0.32,0.092-0.629,0.255-0.924,0.491L123.704,21.966z"/>
	<path fill="#FFFFFF" d="M136.225,12.332c-0.078,0.525-0.145,1.051-0.199,1.579c-0.055,0.528-0.102,1.038-0.135,1.531
		c-0.035,0.494-0.061,0.959-0.076,1.4c-0.018,0.44-0.023,0.837-0.023,1.192c0,0.479,0.007,0.89,0.021,1.233
		c0.015,0.343,0.037,0.632,0.067,0.868c0.033,0.235,0.073,0.423,0.121,0.563c0.049,0.141,0.106,0.249,0.181,0.325
		c0.072,0.076,0.154,0.125,0.25,0.148c0.094,0.023,0.2,0.035,0.319,0.035c0.224,0,0.46-0.034,0.716-0.101s0.516-0.16,0.777-0.28
		l0.132,0.359c-0.166,0.133-0.375,0.27-0.626,0.408c-0.251,0.138-0.516,0.265-0.792,0.38c-0.274,0.115-0.547,0.208-0.812,0.279
		c-0.266,0.072-0.494,0.107-0.688,0.107c-0.129,0-0.246-0.01-0.353-0.031c-0.105-0.021-0.201-0.072-0.287-0.156
		c-0.086-0.083-0.16-0.205-0.229-0.366c-0.066-0.161-0.121-0.38-0.166-0.656c-0.044-0.277-0.076-0.622-0.102-1.038
		c-0.022-0.414-0.033-0.916-0.033-1.506c0-0.345,0.003-0.736,0.011-1.172c0.007-0.435,0.017-0.902,0.031-1.402
		c0.015-0.501,0.03-1.028,0.056-1.583c0.021-0.555,0.053-1.128,0.09-1.717c0.008-0.129,0.043-0.234,0.104-0.314
		s0.134-0.143,0.221-0.187c0.089-0.044,0.183-0.074,0.28-0.089s0.189-0.024,0.271-0.024
		C135.663,12.118,135.954,12.189,136.225,12.332z M135.624,9.208c-0.16,0-0.306-0.034-0.429-0.101
		c-0.125-0.067-0.229-0.155-0.317-0.263c-0.088-0.108-0.153-0.232-0.198-0.374c-0.048-0.141-0.07-0.284-0.07-0.432
		c0-0.208,0.035-0.391,0.104-0.549c0.07-0.158,0.159-0.292,0.271-0.401c0.108-0.108,0.23-0.188,0.365-0.241
		c0.135-0.054,0.266-0.08,0.395-0.08c0.156,0,0.298,0.029,0.422,0.086c0.125,0.058,0.232,0.137,0.32,0.238
		c0.091,0.101,0.16,0.217,0.209,0.349s0.072,0.273,0.072,0.426c0,0.161-0.027,0.32-0.084,0.48c-0.057,0.159-0.131,0.303-0.23,0.431
		c-0.1,0.129-0.219,0.233-0.359,0.312C135.95,9.169,135.794,9.208,135.624,9.208z"/>
	<path fill="#FFFFFF" d="M149.707,11.792c-0.161-0.222-0.409-0.409-0.743-0.559l-0.094,0.063c0.006,0.038,0.008,0.07,0.011,0.098
		s0.006,0.059,0.006,0.091c0,0.211-0.041,0.4-0.121,0.565c-0.078,0.167-0.188,0.307-0.32,0.422
		c-0.137,0.115-0.293,0.202-0.473,0.263c-0.181,0.062-0.365,0.092-0.559,0.092c-0.232,0-0.438-0.034-0.612-0.103
		c-0.177-0.067-0.356-0.146-0.54-0.235c-0.119-0.057-0.25-0.114-0.388-0.172c-0.14-0.058-0.289-0.112-0.453-0.161
		c-0.164-0.05-0.344-0.09-0.537-0.124c-0.192-0.033-0.403-0.049-0.637-0.049c-0.608,0-1.188,0.108-1.74,0.324
		c-0.551,0.215-1.034,0.513-1.452,0.892c-0.418,0.379-0.75,0.83-0.996,1.352c-0.246,0.522-0.369,1.091-0.369,1.704
		c0,0.361,0.054,0.706,0.16,1.037c0.104,0.33,0.258,0.636,0.459,0.917c0.199,0.281,0.446,0.532,0.737,0.752
		c0.244,0.184,0.521,0.333,0.822,0.461l-0.06,0.188l0,0c-0.138,0.053-0.272,0.105-0.42,0.171c-0.193,0.087-0.371,0.19-0.533,0.309
		c-0.162,0.12-0.297,0.256-0.4,0.41c-0.105,0.153-0.159,0.327-0.159,0.52c0,0.17,0.04,0.323,0.119,0.458
		c0.078,0.134,0.183,0.254,0.312,0.361c0.129,0.105,0.271,0.197,0.433,0.275c0.159,0.077,0.323,0.146,0.489,0.207l-0.015,0.028
		c-0.229,0.057-0.468,0.134-0.713,0.23c-0.244,0.097-0.485,0.211-0.723,0.344c-0.237,0.134-0.46,0.282-0.673,0.449
		c-0.211,0.167-0.396,0.347-0.557,0.54c-0.162,0.193-0.287,0.4-0.382,0.625c-0.096,0.225-0.144,0.457-0.144,0.699
		c0,0.291,0.065,0.551,0.197,0.777c0.129,0.229,0.307,0.43,0.528,0.604s0.479,0.322,0.771,0.445s0.596,0.225,0.914,0.303
		c0.319,0.076,0.646,0.134,0.974,0.17c0.327,0.035,0.642,0.054,0.938,0.054c0.512,0,1.012-0.042,1.493-0.128
		c0.484-0.085,0.94-0.206,1.368-0.363c0.43-0.156,0.818-0.346,1.176-0.563c0.354-0.222,0.661-0.464,0.918-0.729
		c0.256-0.265,0.457-0.55,0.598-0.854c0.144-0.307,0.214-0.623,0.214-0.952c0-0.261-0.054-0.491-0.156-0.69
		c-0.104-0.199-0.248-0.373-0.433-0.521s-0.401-0.28-0.653-0.393c-0.253-0.112-0.526-0.209-0.824-0.292
		c-0.297-0.083-0.61-0.157-0.938-0.222c-0.327-0.065-0.66-0.127-0.998-0.188c-0.373-0.068-0.732-0.136-1.077-0.202
		c-0.345-0.066-0.646-0.143-0.908-0.229c-0.261-0.088-0.469-0.19-0.625-0.307c-0.153-0.118-0.231-0.259-0.231-0.427
		c0-0.083,0.026-0.166,0.082-0.247c0.054-0.082,0.131-0.158,0.229-0.23c0.1-0.072,0.214-0.134,0.345-0.187
		c0.048-0.019,0.097-0.034,0.147-0.049c0.041-0.01,0.082-0.02,0.127-0.027c0,0,0.291-0.051,0.633-0.015
		c0.104,0.011,0.209,0.014,0.314,0.014c0.412,0,0.806-0.054,1.182-0.161c0.377-0.108,0.73-0.259,1.059-0.454
		c0.328-0.194,0.627-0.423,0.896-0.688c0.268-0.264,0.497-0.555,0.688-0.872c0.19-0.316,0.338-0.651,0.441-1.004
		c0.104-0.354,0.156-0.716,0.156-1.086c0-0.356-0.049-0.708-0.146-1.053c-0.098-0.347-0.27-0.691-0.515-1.033l0.026-0.035
		c0.395,0.131,0.756,0.197,1.096,0.197c0.223,0,0.427-0.026,0.609-0.078c0.184-0.051,0.342-0.126,0.475-0.225
		c0.134-0.099,0.234-0.217,0.309-0.354c0.073-0.138,0.108-0.296,0.108-0.474C149.95,12.238,149.869,12.014,149.707,11.792z
		 M142.43,22.588c0.449,0.096,0.889,0.18,1.312,0.25c0.425,0.072,0.83,0.151,1.212,0.238c0.284,0.064,0.545,0.135,0.784,0.21
		c0.238,0.075,0.443,0.168,0.617,0.276c0.174,0.106,0.31,0.232,0.408,0.379c0.1,0.146,0.147,0.322,0.147,0.524
		c0,0.364-0.103,0.699-0.302,1.007c-0.2,0.307-0.471,0.571-0.811,0.799c-0.341,0.225-0.736,0.4-1.186,0.526
		c-0.451,0.127-0.924,0.19-1.418,0.19c-0.365,0-0.734-0.043-1.107-0.125c-0.373-0.084-0.713-0.213-1.018-0.389
		c-0.303-0.174-0.551-0.393-0.742-0.656c-0.191-0.262-0.286-0.575-0.286-0.939c0-0.295,0.063-0.566,0.192-0.816
		s0.303-0.474,0.522-0.668s0.474-0.36,0.759-0.498C141.807,22.766,142.109,22.661,142.43,22.588z M145.504,18.432
		c-0.162,0.146-0.538,0.355-0.748,0.441c-0.21,0.087-0.445,0.13-0.707,0.13c-0.295,0-0.564-0.047-0.812-0.142
		c-0.243-0.093-0.455-0.234-0.66-0.386c-0.549-0.406-1.274-1.384-1.383-2.342c-0.111-1.018,0.343-2.248,1.154-2.892
		c0.174-0.138,0.362-0.26,0.582-0.344c0.221-0.084,0.801-0.273,1.769-0.008c0.651,0.179,1.743,0.854,1.847,2.65
		C146.627,17.016,146.23,17.779,145.504,18.432z"/>
</g>
</svg>
