<?xml version="1.0" encoding="utf-8"?>
<!-- Generator: Adobe Illustrator 15.0.2, SVG Export Plug-In . SVG Version: 6.00 Build 0)  -->
<!DOCTYPE svg PUBLIC "-//W3C//DTD SVG 1.1//EN" "http://www.w3.org/Graphics/SVG/1.1/DTD/svg11.dtd">
<svg version="1.1" id="Ebene_1" xmlns="http://www.w3.org/2000/svg" xmlns:xlink="http://www.w3.org/1999/xlink" x="0px" y="0px"
	 width="53.974px" height="15.492px" viewBox="65.14 6.691 53.974 15.492" enable-background="new 65.14 6.691 53.974 15.492"
	 xml:space="preserve">
<g>
	<path fill="#FFFFFF" d="M66.492,19.346c0.032,0.346,0.124,0.645,0.277,0.896c0.152,0.25,0.34,0.455,0.563,0.615
		c0.223,0.158,0.471,0.277,0.741,0.354c0.271,0.078,0.542,0.116,0.811,0.116c0.251,0,0.492-0.034,0.725-0.104
		c0.233-0.068,0.438-0.166,0.615-0.293c0.177-0.127,0.32-0.285,0.428-0.473c0.106-0.188,0.16-0.396,0.16-0.629
		c0-0.242-0.057-0.454-0.171-0.637c-0.114-0.182-0.267-0.348-0.458-0.498s-0.414-0.291-0.666-0.418
		c-0.254-0.127-0.517-0.256-0.79-0.389c-0.241-0.115-0.484-0.229-0.728-0.346c-0.244-0.115-0.48-0.242-0.708-0.379
		c-0.228-0.137-0.44-0.285-0.64-0.443c-0.197-0.16-0.371-0.336-0.52-0.531c-0.147-0.193-0.264-0.41-0.348-0.648
		c-0.085-0.238-0.127-0.505-0.127-0.796c0-0.313,0.055-0.604,0.164-0.868c0.109-0.264,0.259-0.502,0.447-0.714
		c0.189-0.212,0.408-0.397,0.656-0.558c0.249-0.16,0.515-0.293,0.797-0.399c0.282-0.106,0.573-0.187,0.871-0.239
		c0.299-0.052,0.59-0.078,0.872-0.078c0.364,0,0.71,0.039,1.036,0.119c0.325,0.08,0.61,0.196,0.854,0.35
		c0.244,0.152,0.438,0.338,0.582,0.557c0.143,0.219,0.215,0.465,0.215,0.738c0,0.104-0.019,0.219-0.055,0.342
		c-0.036,0.123-0.098,0.238-0.185,0.345c-0.087,0.106-0.2,0.197-0.342,0.271c-0.142,0.072-0.314,0.111-0.52,0.115
		c-0.191,0-0.392-0.029-0.602-0.088l-0.021-0.068c0.063-0.146,0.109-0.28,0.137-0.403s0.041-0.237,0.041-0.343
		c-0.005-0.209-0.059-0.385-0.16-0.529c-0.104-0.145-0.231-0.262-0.387-0.352c-0.156-0.092-0.327-0.157-0.516-0.198
		s-0.375-0.062-0.558-0.062c-0.323,0-0.613,0.043-0.868,0.129c-0.255,0.088-0.471,0.203-0.646,0.346
		c-0.175,0.145-0.31,0.307-0.402,0.488c-0.094,0.183-0.141,0.373-0.141,0.567c0,0.25,0.066,0.476,0.198,0.673
		c0.132,0.198,0.308,0.381,0.526,0.547c0.218,0.168,0.471,0.322,0.756,0.469c0.284,0.146,0.582,0.291,0.892,0.438
		c0.347,0.164,0.69,0.334,1.032,0.51c0.342,0.174,0.647,0.375,0.916,0.598c0.269,0.223,0.486,0.479,0.652,0.769
		c0.167,0.29,0.25,0.63,0.25,1.022c0,0.469-0.104,0.886-0.311,1.25c-0.208,0.365-0.484,0.673-0.831,0.924
		c-0.347,0.251-0.744,0.441-1.192,0.57c-0.449,0.131-0.915,0.195-1.398,0.195c-0.241,0-0.491-0.018-0.748-0.055
		c-0.258-0.037-0.508-0.092-0.749-0.164c-0.241-0.072-0.471-0.163-0.687-0.27c-0.217-0.107-0.406-0.23-0.568-0.369
		c-0.161-0.139-0.289-0.295-0.383-0.465c-0.093-0.172-0.14-0.359-0.14-0.564c0-0.178,0.038-0.328,0.112-0.451
		c0.076-0.123,0.175-0.223,0.298-0.301s0.261-0.137,0.413-0.174c0.153-0.039,0.31-0.061,0.469-0.065L66.492,19.346z"/>
	<path fill="#FFFFFF" d="M77.121,7.034c-0.19,0.866-0.353,1.76-0.48,2.683c-0.131,0.924-0.241,1.834-0.332,2.73
		c0.213,0.01,0.422,0.017,0.625,0.021c0.203,0.004,0.393,0.01,0.567,0.014c0.176,0.004,0.334,0.008,0.479,0.008
		c0.143,0,0.263,0,0.357,0c0.415,0,0.755-0.025,1.019-0.075c0.021,0.078,0.041,0.147,0.055,0.212
		c0.015,0.065,0.021,0.123,0.021,0.178c0,0.201-0.083,0.332-0.249,0.391c-0.167,0.059-0.407,0.089-0.723,0.089
		c-0.301,0-0.637-0.019-1.009-0.056c-0.371-0.037-0.776-0.07-1.219-0.103c-0.05,0.487-0.093,0.963-0.126,1.425
		c-0.035,0.463-0.062,0.898-0.082,1.309c-0.021,0.41-0.036,0.791-0.045,1.143s-0.014,0.656-0.014,0.916
		c0,0.488,0.024,0.923,0.074,1.307c0.051,0.383,0.14,0.707,0.268,0.973c0.128,0.267,0.302,0.472,0.525,0.613
		c0.224,0.141,0.507,0.211,0.849,0.211c0.246,0,0.521-0.043,0.823-0.129c0.304-0.086,0.647-0.227,1.035-0.418
		c0.123,0.123,0.193,0.273,0.212,0.451c-0.281,0.188-0.566,0.355-0.853,0.51c-0.287,0.152-0.569,0.283-0.848,0.393
		c-0.279,0.109-0.548,0.193-0.808,0.253c-0.26,0.06-0.506,0.089-0.737,0.089c-0.306,0-0.585-0.057-0.837-0.167
		c-0.254-0.112-0.473-0.31-0.655-0.595c-0.187-0.285-0.328-0.67-0.433-1.152c-0.102-0.482-0.152-1.094-0.152-1.832
		c0-0.414,0.007-0.842,0.021-1.281c0.015-0.44,0.032-0.886,0.055-1.336c0.023-0.451,0.054-0.902,0.09-1.354
		c0.035-0.452,0.076-0.896,0.123-1.333c-0.36,0.004-0.694,0.02-1.001,0.044c-0.309,0.024-0.571,0.065-0.79,0.12
		c-0.014-0.027-0.021-0.059-0.021-0.096c0-0.096,0.047-0.187,0.141-0.271c0.093-0.084,0.223-0.161,0.389-0.229
		c0.167-0.067,0.366-0.125,0.599-0.17c0.233-0.047,0.487-0.078,0.767-0.097c0.104-0.952,0.217-1.853,0.335-2.7
		c0.117-0.847,0.236-1.604,0.354-2.27c0.022-0.119,0.064-0.217,0.127-0.295c0.062-0.077,0.133-0.139,0.215-0.184
		c0.082-0.047,0.171-0.078,0.268-0.097c0.096-0.019,0.187-0.026,0.276-0.026c0.15,0,0.286,0.016,0.406,0.049
		C76.903,6.93,77.017,6.975,77.121,7.034z"/>
	<path fill="#FFFFFF" d="M80.183,17.883c0-0.46,0.048-0.927,0.144-1.4c0.097-0.475,0.237-0.934,0.424-1.377
		c0.188-0.444,0.418-0.861,0.694-1.252c0.275-0.39,0.593-0.729,0.953-1.021s0.761-0.521,1.203-0.689
		c0.441-0.168,0.923-0.254,1.441-0.254c0.583,0,1.101,0.123,1.549,0.369c0.448,0.246,0.825,0.571,1.132,0.975
		c0.306,0.402,0.536,0.861,0.693,1.377c0.156,0.515,0.235,1.041,0.235,1.578c0,0.461-0.048,0.928-0.144,1.401
		c-0.097,0.474-0.238,0.933-0.429,1.377c-0.188,0.444-0.421,0.861-0.696,1.251c-0.275,0.391-0.594,0.73-0.953,1.021
		c-0.36,0.293-0.762,0.523-1.203,0.691c-0.442,0.168-0.923,0.252-1.442,0.252c-0.583,0-1.1-0.123-1.548-0.369
		c-0.449-0.246-0.825-0.57-1.129-0.974c-0.303-0.403-0.533-0.862-0.689-1.377C80.261,18.947,80.183,18.42,80.183,17.883z
		 M81.817,17.232c0,0.311,0.024,0.625,0.071,0.943c0.049,0.319,0.122,0.627,0.223,0.924c0.101,0.297,0.225,0.572,0.373,0.83
		c0.147,0.258,0.323,0.482,0.525,0.674c0.202,0.19,0.432,0.342,0.684,0.451c0.254,0.108,0.532,0.164,0.838,0.164
		c0.333,0,0.625-0.072,0.879-0.216c0.252-0.144,0.472-0.334,0.656-0.571c0.184-0.236,0.337-0.508,0.457-0.812
		c0.121-0.305,0.218-0.621,0.291-0.947c0.073-0.326,0.124-0.648,0.154-0.967c0.028-0.318,0.044-0.613,0.044-0.883
		c0-0.312-0.024-0.629-0.071-0.946c-0.049-0.317-0.122-0.622-0.223-0.916c-0.102-0.294-0.226-0.569-0.373-0.827
		c-0.147-0.257-0.323-0.48-0.525-0.67c-0.203-0.189-0.432-0.338-0.684-0.447c-0.254-0.109-0.532-0.164-0.838-0.164
		c-0.333,0-0.625,0.07-0.88,0.211c-0.252,0.142-0.471,0.332-0.655,0.567c-0.185,0.237-0.337,0.509-0.457,0.813
		c-0.121,0.305-0.219,0.619-0.291,0.943c-0.073,0.322-0.124,0.646-0.154,0.967C81.832,16.676,81.817,16.969,81.817,17.232z"/>
	<path fill="#FFFFFF" d="M91.223,21.99l-0.109-0.006c0.036-0.434,0.07-0.905,0.104-1.416c0.031-0.51,0.062-1.028,0.089-1.555
		c0.026-0.525,0.051-1.048,0.071-1.564c0.021-0.518,0.037-1,0.056-1.449c0.016-0.449,0.026-0.852,0.033-1.207
		c0.008-0.355,0.011-0.637,0.011-0.841c0-0.168-0.007-0.313-0.021-0.438c-0.015-0.123-0.045-0.226-0.093-0.308
		c-0.049-0.082-0.118-0.144-0.209-0.181c-0.091-0.039-0.214-0.059-0.368-0.059c-0.078,0-0.158,0.004-0.239,0.014
		c-0.082,0.01-0.173,0.023-0.272,0.041c-0.101,0.019-0.213,0.043-0.339,0.072c-0.125,0.03-0.271,0.065-0.435,0.105l-0.103-0.491
		c0.757-0.272,1.369-0.466,1.839-0.578c0.47-0.112,0.786-0.167,0.95-0.167c0.301,0,0.517,0.088,0.646,0.264
		c0.132,0.174,0.194,0.437,0.194,0.783c0,0.031-0.005,0.125-0.014,0.279c-0.009,0.154-0.021,0.355-0.037,0.605
		c-0.018,0.248-0.036,0.537-0.061,0.865c-0.021,0.327-0.049,0.68-0.077,1.055c-0.029,0.377-0.062,0.769-0.101,1.176
		c-0.037,0.408-0.074,0.812-0.115,1.221l0.067,0.008c0.22-0.895,0.466-1.727,0.741-2.5c0.275-0.771,0.586-1.443,0.93-2.013
		c0.346-0.569,0.723-1.019,1.134-1.343c0.414-0.326,0.864-0.489,1.356-0.489c0.174,0,0.336,0.026,0.483,0.082
		c0.149,0.056,0.281,0.131,0.392,0.229c0.108,0.098,0.196,0.213,0.26,0.349c0.064,0.135,0.097,0.28,0.097,0.44
		c0,0.205-0.045,0.402-0.133,0.592c-0.091,0.188-0.229,0.355-0.421,0.502h-0.055c-0.19-0.16-0.373-0.274-0.545-0.346
		c-0.17-0.07-0.353-0.105-0.543-0.105c-0.205,0-0.402,0.039-0.597,0.115c-0.19,0.078-0.365,0.189-0.524,0.336
		c-0.26,0.236-0.5,0.55-0.726,0.939c-0.226,0.391-0.429,0.821-0.61,1.295c-0.187,0.475-0.353,0.973-0.5,1.494
		c-0.146,0.521-0.275,1.03-0.383,1.523c-0.106,0.496-0.193,0.959-0.261,1.396c-0.064,0.435-0.111,0.802-0.141,1.097L91.223,21.99z"
		/>
	<path fill="#FFFFFF" d="M101.143,12.195c-0.076,0.52-0.146,1.039-0.197,1.562c-0.053,0.523-0.1,1.026-0.133,1.515
		c-0.035,0.488-0.062,0.949-0.076,1.383c-0.016,0.436-0.022,0.828-0.022,1.18c0,0.475,0.009,0.881,0.021,1.221
		c0.016,0.338,0.037,0.625,0.068,0.857s0.07,0.418,0.119,0.557c0.049,0.139,0.105,0.246,0.18,0.321
		c0.068,0.075,0.15,0.124,0.246,0.147c0.092,0.022,0.197,0.033,0.314,0.033c0.22,0,0.455-0.033,0.709-0.099
		c0.252-0.065,0.508-0.158,0.77-0.276l0.131,0.354c-0.164,0.133-0.371,0.268-0.619,0.404c-0.248,0.137-0.51,0.262-0.781,0.375
		c-0.271,0.115-0.541,0.207-0.805,0.277c-0.262,0.071-0.488,0.105-0.68,0.105c-0.13,0-0.244-0.01-0.352-0.03
		c-0.104-0.021-0.199-0.071-0.283-0.153c-0.084-0.082-0.158-0.203-0.227-0.363c-0.064-0.16-0.121-0.375-0.164-0.648
		s-0.076-0.615-0.1-1.025c-0.023-0.41-0.033-0.906-0.033-1.49c0-0.342,0.002-0.728,0.011-1.158c0.007-0.432,0.018-0.893,0.03-1.389
		c0.014-0.494,0.031-1.016,0.055-1.564c0.023-0.549,0.053-1.115,0.09-1.699c0.008-0.127,0.043-0.23,0.104-0.311
		c0.061-0.081,0.133-0.141,0.219-0.188c0.088-0.043,0.18-0.072,0.277-0.089s0.188-0.024,0.271-0.024
		C100.585,11.982,100.872,12.055,101.143,12.195z M100.546,9.105c-0.157,0-0.301-0.033-0.424-0.1s-0.228-0.152-0.312-0.26
		s-0.151-0.23-0.199-0.369c-0.045-0.139-0.067-0.281-0.067-0.428c0-0.204,0.035-0.385,0.104-0.543
		c0.067-0.156,0.156-0.289,0.268-0.396c0.109-0.107,0.229-0.188,0.361-0.24c0.133-0.051,0.262-0.078,0.391-0.078
		c0.154,0,0.293,0.027,0.416,0.084c0.123,0.058,0.229,0.137,0.318,0.236c0.088,0.1,0.156,0.215,0.205,0.346
		c0.047,0.129,0.07,0.27,0.07,0.42c0,0.16-0.027,0.318-0.082,0.475c-0.057,0.157-0.133,0.301-0.229,0.428s-0.217,0.229-0.354,0.307
		C100.869,9.066,100.717,9.105,100.546,9.105z"/>
	<path fill="#FFFFFF" d="M110.762,19.693c0.025,0.015,0.062,0.033,0.105,0.059c0.043,0.025,0.082,0.053,0.117,0.082
		c0.037,0.029,0.068,0.062,0.098,0.096c0.027,0.034,0.041,0.067,0.041,0.1c0,0.018-0.008,0.037-0.021,0.055
		c-0.254,0.355-0.529,0.664-0.822,0.926c-0.295,0.262-0.6,0.48-0.916,0.656c-0.317,0.176-0.641,0.305-0.969,0.391
		c-0.328,0.084-0.649,0.125-0.971,0.125c-0.548,0-1.05-0.111-1.505-0.334c-0.457-0.224-0.849-0.529-1.177-0.916
		c-0.328-0.388-0.586-0.843-0.77-1.365c-0.188-0.521-0.277-1.08-0.277-1.678c0-0.488,0.055-0.975,0.16-1.463
		c0.105-0.488,0.264-0.953,0.465-1.395c0.203-0.442,0.449-0.854,0.742-1.234c0.293-0.38,0.623-0.711,0.994-0.99
		c0.373-0.281,0.778-0.5,1.226-0.66c0.442-0.16,0.922-0.24,1.432-0.24c0.339,0,0.658,0.046,0.966,0.138
		c0.307,0.093,0.571,0.222,0.805,0.394c0.229,0.17,0.412,0.381,0.55,0.631c0.137,0.25,0.205,0.537,0.205,0.854
		c0,0.466-0.15,0.871-0.453,1.218c-0.306,0.346-0.724,0.639-1.257,0.881c-0.532,0.242-1.159,0.438-1.883,0.586
		c-0.723,0.148-1.502,0.26-2.342,0.332v0.117c0,0.582,0.073,1.116,0.223,1.6c0.146,0.482,0.353,0.896,0.611,1.24
		c0.26,0.346,0.563,0.613,0.916,0.803c0.352,0.191,0.729,0.287,1.135,0.287c0.41,0,0.832-0.102,1.263-0.303
		C109.884,20.479,110.318,20.15,110.762,19.693z M109.477,14.205c0-0.209-0.035-0.406-0.105-0.588
		c-0.069-0.182-0.168-0.342-0.293-0.475c-0.125-0.135-0.273-0.24-0.447-0.318c-0.174-0.078-0.359-0.116-0.562-0.116
		c-0.295,0-0.564,0.052-0.807,0.157c-0.242,0.104-0.457,0.246-0.648,0.427s-0.359,0.39-0.506,0.629
		c-0.147,0.239-0.271,0.493-0.373,0.763c-0.104,0.269-0.188,0.543-0.25,0.826c-0.062,0.283-0.107,0.559-0.137,0.827
		c0.646-0.045,1.229-0.124,1.738-0.235c0.516-0.113,0.945-0.256,1.301-0.432c0.354-0.175,0.622-0.385,0.811-0.629
		C109.385,14.797,109.477,14.52,109.477,14.205z"/>
	<path fill="#FFFFFF" d="M113.461,19.346c0.031,0.346,0.123,0.645,0.275,0.896c0.152,0.25,0.342,0.455,0.563,0.615
		c0.224,0.158,0.472,0.277,0.739,0.354c0.271,0.078,0.544,0.116,0.812,0.116c0.25,0,0.491-0.034,0.726-0.104
		c0.231-0.068,0.438-0.166,0.614-0.293s0.319-0.285,0.429-0.473c0.104-0.188,0.159-0.396,0.159-0.629
		c0-0.242-0.057-0.454-0.172-0.637c-0.112-0.182-0.267-0.348-0.457-0.498s-0.414-0.291-0.666-0.418
		c-0.254-0.127-0.518-0.256-0.791-0.389c-0.239-0.115-0.483-0.229-0.729-0.346c-0.244-0.115-0.48-0.242-0.708-0.379
		c-0.229-0.137-0.44-0.285-0.642-0.443c-0.197-0.16-0.371-0.336-0.52-0.531c-0.146-0.193-0.266-0.41-0.35-0.648
		c-0.086-0.238-0.127-0.505-0.127-0.796c0-0.313,0.056-0.604,0.164-0.868c0.107-0.264,0.258-0.502,0.445-0.714
		c0.188-0.212,0.408-0.397,0.656-0.558c0.249-0.16,0.516-0.293,0.797-0.399c0.282-0.106,0.574-0.187,0.873-0.239
		c0.299-0.052,0.59-0.078,0.871-0.078c0.362,0,0.711,0.039,1.036,0.119c0.324,0.08,0.608,0.196,0.854,0.35
		c0.244,0.152,0.438,0.338,0.582,0.557c0.144,0.219,0.216,0.465,0.216,0.738c0,0.104-0.021,0.219-0.056,0.342
		c-0.037,0.123-0.101,0.238-0.187,0.345c-0.088,0.106-0.199,0.197-0.343,0.271c-0.143,0.072-0.312,0.111-0.521,0.115
		c-0.19,0-0.393-0.029-0.604-0.088l-0.021-0.068c0.062-0.146,0.107-0.28,0.138-0.403c0.029-0.123,0.041-0.237,0.041-0.343
		c-0.006-0.209-0.06-0.385-0.16-0.529c-0.104-0.145-0.229-0.262-0.387-0.352c-0.156-0.092-0.328-0.157-0.519-0.198
		c-0.188-0.041-0.375-0.062-0.558-0.062c-0.323,0-0.612,0.043-0.869,0.129c-0.254,0.088-0.471,0.203-0.646,0.346
		c-0.176,0.145-0.311,0.307-0.4,0.488c-0.096,0.183-0.143,0.373-0.143,0.567c0,0.25,0.064,0.476,0.197,0.673
		c0.133,0.198,0.309,0.381,0.525,0.547c0.219,0.168,0.471,0.322,0.756,0.469c0.285,0.146,0.582,0.291,0.895,0.438
		c0.348,0.164,0.688,0.334,1.03,0.51c0.344,0.174,0.647,0.375,0.916,0.598c0.271,0.223,0.485,0.479,0.651,0.769
		c0.168,0.29,0.25,0.63,0.25,1.022c0,0.469-0.104,0.886-0.312,1.25c-0.207,0.365-0.483,0.673-0.83,0.924
		c-0.349,0.251-0.744,0.441-1.192,0.57c-0.449,0.131-0.914,0.195-1.397,0.195c-0.24,0-0.49-0.018-0.748-0.055
		c-0.259-0.037-0.509-0.092-0.749-0.164c-0.24-0.072-0.471-0.163-0.688-0.27c-0.218-0.107-0.406-0.23-0.568-0.369
		c-0.16-0.139-0.288-0.295-0.383-0.465c-0.094-0.172-0.141-0.359-0.141-0.564c0-0.178,0.038-0.328,0.111-0.451
		c0.076-0.123,0.176-0.223,0.299-0.301s0.262-0.137,0.413-0.174c0.151-0.039,0.312-0.061,0.47-0.065L113.461,19.346z"/>
</g>
</svg>
