<?xml version="1.0" encoding="UTF-8"?>
<svg width="128px" height="60px" viewBox="0 0 128 60" version="1.1" xmlns="http://www.w3.org/2000/svg" xmlns:xlink="http://www.w3.org/1999/xlink">
    <g id="Page-1" stroke="none" stroke-width="1" fill="none" fill-rule="evenodd">
        <g id="work">
            <path d="M27.3789062,55.6445312 C27.0143211,53.1705605 26.5716172,50.6087372 26.0507812,47.9589844 C25.5299453,45.3092315 24.9570344,42.6432426 24.3320312,39.9609375 C23.980467,40.7552123 23.5768252,41.6048132 23.1210938,42.5097656 C22.6653623,43.4147181 22.1803411,44.3456983 21.6660156,45.3027344 C21.1516901,46.2597704 20.6145861,47.2233024 20.0546875,48.1933594 C19.4947889,49.1634163 18.9381538,50.1074173 18.3847656,51.0253906 C17.8313774,51.943364 17.2845079,52.8190063 16.7441406,53.6523438 C16.2037733,54.4856812 15.6927107,55.240882 15.2109375,55.9179688 L13.0820312,55.6835938 C12.9127596,54.4335875 12.7141938,53.1217517 12.4863281,51.7480469 C12.2584624,50.3743421 12.0143242,48.9876372 11.7539062,47.5878906 C11.4934883,46.188144 11.2233087,44.8112047 10.9433594,43.4570312 C10.6634101,42.1028578 10.3834649,40.8170634 10.1035156,39.5996094 C9.82356631,38.3821554 9.55338672,37.2623749 9.29296875,36.2402344 C9.03255078,35.2180938 8.79166777,34.3489619 8.5703125,33.6328125 C8.30989453,32.799475 8.06575635,32.1223984 7.83789062,31.6015625 C7.6100249,31.0807266 7.37565225,30.6770848 7.13476563,30.390625 C6.893879,30.1041652 6.63672012,29.9088547 6.36328125,29.8046875 C6.08984238,29.7005203 5.77734551,29.6484375 5.42578125,29.6484375 C5.0091125,29.6484375 4.56315342,29.69401 4.08789062,29.7851562 C3.61262783,29.8763025 3.04297207,29.9999992 2.37890625,30.15625 L2.0859375,28.75 C3.83073789,28.1249969 5.34113945,27.646486 6.6171875,27.3144531 C7.89323555,26.9824202 8.80468477,26.8164062 9.3515625,26.8164062 C9.67708496,26.8164062 9.98632666,26.8749994 10.2792969,26.9921875 C10.5722671,27.1093756 10.848957,27.3111965 11.109375,27.5976562 C11.369793,27.884116 11.6236967,28.2747371 11.8710938,28.7695312 C12.1184908,29.2643254 12.3593738,29.8893191 12.59375,30.6445312 C12.7630217,31.191409 12.9583322,31.8749959 13.1796875,32.6953125 C13.4010428,33.5156291 13.6321603,34.4368438 13.8730469,35.4589844 C14.1139335,36.4811249 14.364582,37.5846295 14.625,38.7695312 C14.885418,39.954433 15.1393217,41.1848895 15.3867188,42.4609375 C15.6341158,43.7369855 15.8717437,45.0358007 16.0996094,46.3574219 C16.3274751,47.6790431 16.5325512,48.9908789 16.7148438,50.2929688 C17.0013035,49.8502582 17.3333314,49.3033887 17.7109375,48.6523438 C18.0885436,48.0012988 18.4824198,47.2981809 18.8925781,46.5429688 C19.3027364,45.7877566 19.7128886,45.0097696 20.1230469,44.2089844 C20.5332052,43.4081991 20.9140607,42.6302121 21.265625,41.875 C21.6171893,41.1197879 21.9231758,40.4166699 22.1835938,39.765625 C22.4440117,39.1145801 22.6328119,38.5612002 22.75,38.1054688 C22.8281254,37.7929672 22.8834634,37.4837255 22.9160156,37.1777344 C22.9485679,36.8717433 22.9648438,36.5690119 22.9648438,36.2695312 C22.9648438,35.8658834 22.9388023,35.432945 22.8867188,34.9707031 C22.8346352,34.5084612 22.7662765,34.0429711 22.6816406,33.5742188 C22.5970048,33.1054664 22.5026047,32.6367211 22.3984375,32.1679688 C22.2942703,31.6992164 22.1901047,31.2565125 22.0859375,30.8398438 C21.9947912,30.4882795 21.9492188,30.2083344 21.9492188,30 C21.9492188,29.5833313 22.082681,29.2610688 22.3496094,29.0332031 C22.6165378,28.8053374 23.0624969,28.6914062 23.6875,28.6914062 C24.1041687,28.6914062 24.5305968,28.7467442 24.9667969,28.8574219 C25.402997,28.9680995 25.8098939,29.1210928 26.1875,29.3164062 C26.6041687,30.9309977 27.0305968,32.6269442 27.4667969,34.4042969 C27.902997,36.1816495 28.3326802,37.9785065 28.7558594,39.7949219 C29.1790386,41.6113372 29.5794252,43.4147046 29.9570312,45.2050781 C30.3346373,46.9954517 30.6731756,48.7174396 30.9726563,50.3710938 C31.8841191,48.925774 32.7792925,47.4479242 33.6582031,45.9375 C34.5371138,44.4270758 35.318356,42.9199294 36.0019531,41.4160156 C36.6855503,39.9121019 37.235675,38.4179762 37.6523438,36.9335938 C38.0690125,35.4492113 38.2773438,34.0039133 38.2773438,32.5976562 C38.2773438,32.0117158 38.2382816,31.4420601 38.1601562,30.8886719 C38.0820309,30.3352837 37.9485687,29.80469 37.7597656,29.296875 C37.5709626,28.78906 37.3138037,28.3072939 36.9882812,27.8515625 C36.6627588,27.3958311 36.2526066,26.9726582 35.7578125,26.5820312 L35.9726562,26.1132812 C36.2070324,26.0872395 36.4348947,26.0677084 36.65625,26.0546875 C36.8776053,26.0416666 37.0924469,26.0351562 37.3007812,26.0351562 C39.0325607,26.0351562 40.3118448,26.4453084 41.1386719,27.265625 C41.9654989,28.0859416 42.3789062,29.2252531 42.3789062,30.6835938 C42.3789062,31.7903701 42.1608095,33.0436128 41.7246094,34.4433594 C41.2884093,35.843106 40.708988,37.3111902 39.9863281,38.8476562 C39.2636683,40.3841223 38.4466191,41.9498618 37.5351562,43.5449219 C36.6236934,45.1399819 35.6894579,46.6861904 34.7324219,48.1835938 C33.7753858,49.6809971 32.8378952,51.0904882 31.9199219,52.4121094 C31.0019485,53.7337306 30.1848994,54.889318 29.46875,55.8789062 L27.3789062,55.6445312 Z M44.9375,43.7695312 C44.9375,42.4544205 45.0742174,41.1197984 45.3476562,39.765625 C45.6210951,38.4114516 46.0247369,37.0996157 46.5585938,35.8300781 C47.0924506,34.5605405 47.7532513,33.3691462 48.5410156,32.2558594 C49.32878,31.1425726 50.236974,30.169275 51.265625,29.3359375 C52.294276,28.5026 53.4400979,27.8450545 54.703125,27.3632812 C55.9661521,26.881508 57.3398363,26.640625 58.8242188,26.640625 C60.4908937,26.640625 61.9654884,26.992184 63.2480469,27.6953125 C64.5306054,28.398441 65.6080686,29.3261661 66.4804688,30.4785156 C67.3528689,31.6308651 68.0136696,32.942701 68.4628906,34.4140625 C68.9121116,35.885424 69.1367188,37.3893152 69.1367188,38.9257812 C69.1367188,40.240892 69.0000014,41.5755141 68.7265625,42.9296875 C68.4531236,44.2838609 68.0462267,45.5956968 67.5058594,46.8652344 C66.9654921,48.134772 66.3014362,49.3261663 65.5136719,50.4394531 C64.7259075,51.5527399 63.8177135,52.5260375 62.7890625,53.359375 C61.7604115,54.1927125 60.6145896,54.850258 59.3515625,55.3320312 C58.0885354,55.8138045 56.7148512,56.0546875 55.2304688,56.0546875 C53.5637938,56.0546875 52.0891991,55.7031285 50.8066406,55 C49.5240821,54.2968715 48.4498741,53.3691464 47.5839844,52.2167969 C46.7180946,51.0644474 46.0605491,49.7526115 45.6113281,48.28125 C45.1621071,46.8098885 44.9375,45.3059973 44.9375,43.7695312 Z M49.6054688,41.9140625 C49.6054688,42.7994836 49.6738274,43.6979121 49.8105469,44.609375 C49.9472663,45.5208379 50.1588527,46.3997354 50.4453125,47.2460938 C50.7317723,48.0924521 51.0865864,48.8834599 51.5097656,49.6191406 C51.9329448,50.3548214 52.4342419,50.996091 53.0136719,51.5429688 C53.5931019,52.0898465 54.244137,52.5195297 54.9667969,52.8320312 C55.6894567,53.1445328 56.4869748,53.3007812 57.359375,53.3007812 C58.3099006,53.3007812 59.1464808,53.0957052 59.8691406,52.6855469 C60.5918005,52.2753886 61.2167942,51.7317742 61.7441406,51.0546875 C62.271487,50.3776008 62.7076806,49.6028689 63.0527344,48.7304688 C63.3977882,47.8580686 63.6744781,46.9563849 63.8828125,46.0253906 C64.0911469,45.0943964 64.2376298,44.1731816 64.3222656,43.2617188 C64.4069015,42.3502559 64.4492188,41.5104205 64.4492188,40.7421875 C64.4492188,39.8437455 64.3808601,38.9420618 64.2441406,38.0371094 C64.1074212,37.1321569 63.8958348,36.2597698 63.609375,35.4199219 C63.3229152,34.5800739 62.9681011,33.7923214 62.5449219,33.0566406 C62.1217427,32.3209599 61.6204456,31.6829454 61.0410156,31.1425781 C60.4615856,30.6022108 59.8105505,30.1757828 59.0878906,29.8632812 C58.3652308,29.5507797 57.5677127,29.3945312 56.6953125,29.3945312 C55.7447869,29.3945312 54.9082067,29.5963521 54.1855469,30 C53.462887,30.4036479 52.8378933,30.944007 52.3105469,31.6210938 C51.7832005,32.2981805 51.3470069,33.0729123 51.0019531,33.9453125 C50.6568993,34.8177127 50.3802094,35.7161412 50.171875,36.640625 C49.9635406,37.5651088 49.8170577,38.4863235 49.7324219,39.4042969 C49.647786,40.3222702 49.6054688,41.1588504 49.6054688,41.9140625 Z M76.4804688,55.5078125 L76.1679688,55.4882812 C76.2721359,54.2512959 76.3697912,52.9036531 76.4609375,51.4453125 C76.5520838,49.9869719 76.6367184,48.5058669 76.7148438,47.0019531 C76.7929691,45.4980394 76.8613278,44.0071688 76.9199219,42.5292969 C76.9785159,41.0514249 77.0305987,39.6712304 77.0761719,38.3886719 C77.121745,37.1061134 77.1542968,35.9570363 77.1738281,34.9414062 C77.1933595,33.9257762 77.203125,33.1250029 77.203125,32.5390625 C77.203125,32.0572893 77.1835939,31.6406268 77.1445312,31.2890625 C77.1054686,30.9374982 77.0175788,30.6445324 76.8808594,30.4101562 C76.7441399,30.1757801 76.5455742,30.0032558 76.2851562,29.8925781 C76.0247383,29.7819005 75.6731793,29.7265625 75.2304688,29.7265625 C75.0091135,29.7265625 74.7812512,29.7395832 74.546875,29.765625 C74.3124988,29.7916668 74.0520848,29.8307289 73.765625,29.8828125 C73.4791652,29.9348961 73.1569028,30.0032548 72.7988281,30.0878906 C72.4407534,30.1725265 72.0273461,30.2734369 71.5585938,30.390625 L71.265625,28.984375 C73.4270941,28.2031211 75.1783787,27.6529964 76.5195312,27.3339844 C77.8606838,27.0149724 78.7656227,26.8554688 79.234375,26.8554688 C80.0937543,26.8554688 80.7089825,27.1061173 81.0800781,27.6074219 C81.4511737,28.1087265 81.6367188,28.8541617 81.6367188,29.84375 C81.6367188,29.9348963 81.623698,30.2018207 81.5976562,30.6445312 C81.5716145,31.0872418 81.5358075,31.6634079 81.4902344,32.3730469 C81.4446612,33.0826858 81.3893232,33.9062453 81.3242188,34.84375 C81.2591143,35.7812547 81.1842452,36.787104 81.0996094,37.8613281 C81.0149735,38.9355522 80.9205734,40.0553327 80.8164062,41.2207031 C80.7122391,42.3860735 80.6015631,43.5481713 80.484375,44.7070312 L80.6796875,44.7265625 C81.3046906,42.1744664 82.0110638,39.7949329 82.7988281,37.5878906 C83.5865925,35.3808483 84.4720003,33.4635498 85.4550781,31.8359375 C86.438156,30.2083252 87.5188743,28.9290411 88.6972656,27.9980469 C89.8756569,27.0670526 91.1679617,26.6015625 92.5742188,26.6015625 C93.0690129,26.6015625 93.5312479,26.6796867 93.9609375,26.8359375 C94.3906271,26.9921883 94.7617172,27.2102851 95.0742188,27.4902344 C95.3867203,27.7701837 95.6341137,28.1022116 95.8164062,28.4863281 C95.9986988,28.8704446 96.0898438,29.2903623 96.0898438,29.7460938 C96.0898438,30.3320342 95.9628919,30.8951796 95.7089844,31.4355469 C95.4550769,31.9759142 95.0546902,32.454425 94.5078125,32.8710938 L94.3515625,32.8710938 C93.8046848,32.4153623 93.2871118,32.0865896 92.7988281,31.8847656 C92.3105444,31.6829417 91.7929715,31.5820312 91.2460938,31.5820312 C90.6601533,31.5820312 90.0937527,31.6927072 89.546875,31.9140625 C88.9999973,32.1354178 88.4987002,32.454425 88.0429688,32.8710938 C87.3007775,33.5481805 86.6106803,34.4433538 85.9726562,35.5566406 C85.3346322,36.6699274 84.7519558,37.9036391 84.2246094,39.2578125 C83.697263,40.6119859 83.2220073,42.0344978 82.7988281,43.5253906 C82.3756489,45.0162835 82.0110692,46.4680919 81.7050781,47.8808594 C81.399087,49.2936269 81.1516937,50.6217386 80.9628906,51.8652344 C80.7740876,53.1087302 80.6406254,54.1536416 80.5625,55 L76.4804688,55.5078125 Z M108.023438,42.421875 C109.585945,41.9010391 111.011712,41.3085971 112.300781,40.6445312 C113.58985,39.9804654 114.699865,39.2708371 115.630859,38.515625 C116.561854,37.7604129 117.281247,36.96615 117.789062,36.1328125 C118.296878,35.299475 118.550781,34.4466189 118.550781,33.5742188 C118.550781,33.2096336 118.482423,32.8743505 118.345703,32.5683594 C118.208984,32.2623683 118.026694,32.0019542 117.798828,31.7871094 C117.570962,31.5722646 117.304038,31.4062506 116.998047,31.2890625 C116.692056,31.1718744 116.363283,31.1132812 116.011719,31.1132812 C115.191402,31.1132812 114.341801,31.367185 113.462891,31.875 C112.58398,32.382815 111.711593,33.1184848 110.845703,34.0820312 C109.979813,35.0455777 109.136723,36.2239514 108.316406,37.6171875 C107.49609,39.0104236 106.734379,40.5924391 106.03125,42.3632812 C105.328121,44.1341234 104.696617,46.0807186 104.136719,48.203125 C103.57682,50.3255314 103.127606,52.5911338 102.789062,55 L98.84375,55.5078125 L98.53125,55.4882812 C98.6093754,53.9518152 98.6972651,52.2558687 98.7949219,50.4003906 C98.8925786,48.5449126 98.9967442,46.5755313 99.1074219,44.4921875 C99.2180995,42.4088437 99.3352858,40.2376415 99.4589844,37.9785156 C99.5826829,35.7193897 99.7063796,33.4179805 99.8300781,31.0742187 C99.9537767,28.730457 100.080729,26.3671994 100.210938,23.984375 C100.341146,21.6015506 100.468098,19.2480585 100.591797,16.9238281 C100.715495,14.5995978 100.835937,12.3242299 100.953125,10.0976562 C101.070313,7.87108262 101.180989,5.74219766 101.285156,3.7109375 C101.298177,3.39843594 101.389322,3.12825635 101.558594,2.90039062 C101.727865,2.6725249 101.945962,2.49023506 102.212891,2.35351562 C102.479819,2.21679619 102.78255,2.11588574 103.121094,2.05078125 C103.459637,1.98567676 103.811196,1.953125 104.175781,1.953125 C104.957035,1.953125 105.777339,2.16145625 106.636719,2.578125 C106.337238,5.24740918 106.070314,7.69530137 105.835938,9.921875 C105.601561,12.1484486 105.389975,14.2154853 105.201172,16.1230469 C105.012369,18.0306085 104.839845,19.8144448 104.683594,21.4746094 C104.527343,23.1347739 104.38737,24.7232997 104.263672,26.2402344 C104.139973,27.757169 104.022787,29.2415292 103.912109,30.6933594 C103.801432,32.1451896 103.694011,33.6197842 103.589844,35.1171875 C103.485677,36.6145908 103.378256,38.1640545 103.267578,39.765625 C103.1569,41.3671955 103.036459,43.0859283 102.90625,44.921875 L103.023438,44.9414062 C103.49219,43.3919193 104.04557,41.8619867 104.683594,40.3515625 C105.321618,38.8411383 106.024736,37.4056058 106.792969,36.0449219 C107.561202,34.684238 108.388016,33.4277401 109.273438,32.2753906 C110.158859,31.1230411 111.083329,30.1302125 112.046875,29.296875 C113.010421,28.4635375 114.006505,27.8092472 115.035156,27.3339844 C116.063807,26.8587216 117.105463,26.6210938 118.160156,26.6210938 C118.824222,26.6210938 119.436195,26.7285146 119.996094,26.9433594 C120.555992,27.1582042 121.041014,27.4641907 121.451172,27.8613281 C121.86133,28.2584655 122.180337,28.7369764 122.408203,29.296875 C122.636069,29.8567736 122.75,30.4817674 122.75,31.171875 C122.75,32.2526096 122.515627,33.3007762 122.046875,34.3164062 C121.578123,35.3320363 120.914067,36.3085891 120.054688,37.2460938 C119.195308,38.1835984 118.163417,39.0722614 116.958984,39.9121094 C115.754551,40.7519573 114.416674,41.5299443 112.945312,42.2460938 C113.817713,43.8476643 114.60221,45.2180933 115.298828,46.3574219 C115.995446,47.4967505 116.62695,48.4537722 117.193359,49.2285156 C117.759768,50.0032591 118.270831,50.6184873 118.726562,51.0742188 C119.182294,51.5299502 119.602212,51.8749988 119.986328,52.109375 C120.370445,52.3437512 120.731769,52.4967444 121.070312,52.5683594 C121.408856,52.6399743 121.747394,52.6757812 122.085938,52.6757812 C122.763024,52.6757812 123.466142,52.5716156 124.195312,52.3632812 C124.924483,52.1549469 125.660153,51.8815121 126.402344,51.5429688 L126.773438,52.5585938 C126.304685,52.9361998 125.712243,53.3203105 124.996094,53.7109375 C124.279944,54.1015645 123.521488,54.4596338 122.720703,54.7851562 C121.919918,55.1106787 121.125655,55.3743479 120.337891,55.5761719 C119.550126,55.7779958 118.856774,55.8789062 118.257812,55.8789062 C117.554684,55.8789062 116.854821,55.6217474 116.158203,55.1074219 C115.461585,54.5930964 114.712895,53.7955783 113.912109,52.7148438 C113.111324,51.6341092 112.229171,50.2636802 111.265625,48.6035156 C110.302079,46.9433511 109.195319,44.960949 107.945312,42.65625 L108.023438,42.421875 Z" fill="#FFFFFF"></path>
        </g>
    </g>
</svg>
