<?xml version="1.0" encoding="utf-8"?>
<!-- Generator: Adobe Illustrator 15.0.2, SVG Export Plug-In  -->
<!DOCTYPE svg PUBLIC "-//W3C//DTD SVG 1.1//EN" "http://www.w3.org/Graphics/SVG/1.1/DTD/svg11.dtd" [
	<!ENTITY ns_flows "http://ns.adobe.com/Flows/1.0/">
]>
<svg version="1.1"
	 xmlns="http://www.w3.org/2000/svg" xmlns:xlink="http://www.w3.org/1999/xlink" xmlns:a="http://ns.adobe.com/AdobeSVGViewerExtensions/3.0/"
	 x="0px" y="0px" width="129px" height="77px" viewBox="0 0 129 77" overflow="visible" enable-background="new 0 0 129 77"
	 xml:space="preserve">
<defs>
</defs>
<path fill="#9CAC21" d="M93.473,41.546h-0.108c-1.766,2.355-4.976,3.853-8.507,3.853c-8.508,0-13.433-6.957-13.433-13.645
	c0-6.368,5.298-13.646,13.699-13.646c3.854,0,6.796,1.66,8.241,3.853h0.108v-3.157h5.566v25.901l-5.566,0.756V41.546z
	 M85.553,40.155c4.389,0,8.135-3.746,8.135-8.401c0-4.656-3.747-8.401-8.135-8.401c-4.495,0-8.241,3.745-8.241,8.401
	C77.312,36.41,81.058,40.155,85.553,40.155z"/>
<path fill="#9CAC21" d="M128.767,26.039v18.658h-5.565V26.795L128.767,26.039z M123.201,24.395v-5.6h5.565v4.841L123.201,24.395z"/>
<path fill="#9CAC21" d="M63.877,49.805h5.566v14.503c0,3.797,2.782,6.527,6.259,6.527c3.479,0,6.262-2.73,6.262-6.527V49.805h5.566
	V64.79c0,7.276-5.673,11.612-11.828,11.612c-6.152,0-11.825-4.336-11.825-11.612V49.805z"/>
<path fill="#9CAC21" d="M90.325,53.501h3.158v-4.197l5.565-0.757v4.954h3.274v4.594h-3.274v8.948c0,2.437,0.642,3.562,2.3,4.404
	l2.998,1.501l-2.461,3.842c-5.727-2.391-8.401-4.124-8.401-8.856v-9.839h-3.158V53.501z"/>
<path fill="#9CAC21" d="M105.116,49.805h5.565v14.503c0,3.797,2.782,6.527,6.26,6.527c3.48,0,6.263-2.73,6.263-6.527V49.805h5.563
	V64.79c0,7.276-5.67,11.612-11.826,11.612c-6.154,0-11.825-4.336-11.825-11.612V49.805z"/>
<path fill="#9CAC21" d="M105.163,18.796h5.243v2.835h0.108c0.91-2.14,2.835-3.532,5.083-3.532c1.231,0,2.301,0.321,3.05,0.804
	l-1.978,5.511c-0.536-0.428-1.554-0.749-2.09-0.749c-2.031,0-3.852,1.553-3.852,3.908v17.123h-5.563V18.796z"/>
<path fill="#9CAC21" d="M48.108,48.297c-3.64,0-7.118,1.713-8.456,3.853h-0.108v-8.044l-5.565,2.909v27.878h5.565v-3.159h0.108
	c1.338,2.143,4.816,3.855,8.456,3.855c6.743,0,13.484-4.978,13.484-13.646S54.851,48.297,48.108,48.297z M47.627,70.345
	c-4.657,0-8.083-3.585-8.083-8.401c0-4.817,3.426-8.401,8.083-8.401c4.654,0,8.079,3.584,8.079,8.401
	C55.706,66.76,52.281,70.345,47.627,70.345z"/>
<polygon fill="#9CAC21" points="63.507,30.998 72.283,18.796 65.542,18.796 58.744,28.643 55.908,28.643 55.908,13.838 
	50.342,16.747 50.342,28.643 50.342,33.887 50.342,44.696 55.908,44.696 55.908,33.887 59.279,33.887 66.13,44.696 72.71,44.696 "/>
<path fill="#9CAC21" d="M13.88,23.918c1.587-0.328,3.312-0.549,5.41-0.691c0.06,0.159,0.121,0.318,0.184,0.478
	c-1.891,3.261-3.891,5.88-6.11,7.998c-1.504,1.436-3.628,2.405-5.543,2.529h0c-1.373,0.089-3.856-0.196-5.078-3.101
	c-0.346-0.821-0.331-1.567,0.044-2.282c1.545-2.945,8.655-4.423,10.99-4.909L13.88,23.918z M33.265,2.665
	c-1.003,3.879-2.577,7.517-4.108,10.919l-0.106,0.235c-0.787,1.745-1.597,3.542-2.445,5.303l0.023-0.002
	c2.899-0.189,6.324-0.493,9.757-1.33c2.548-0.621,5.224-1.326,7.573-2.498C42.157,9.917,38.292,5.357,33.265,2.665z M21.478,2.032
	c-0.805,3.201-0.697,7.066,0.306,10.88c0.332,1.271,0.707,2.585,1.119,3.92c0.085-0.194,0.169-0.387,0.253-0.582
	c0.352-0.81,0.708-1.618,1.065-2.426c1.297-2.93,2.637-5.959,3.612-9.061c1.093-3.482,0.724-3.935,0.678-3.976
	c-1.751-0.366-3.928-0.822-6.157-0.787C22.238,0.053,21.832,0.623,21.478,2.032z M28.863,22.735
	c-1.272,0.114-2.548,0.18-3.827,0.231c0.636,1.624,1.273,3.106,1.941,4.514l0.865,1.813c1.61,3.356,3.273,6.827,4.382,10.444
	c0.254,0.829,0.511,1.708,0.705,2.609c8.665-4.472,13.513-14.113,11.876-23.704c-0.382,0.169-0.77,0.333-1.164,0.489
	C38.73,21.048,33.482,22.327,28.863,22.735z M0.312,26.132c0.75-0.655,1.618-1.244,2.545-1.728c4.715-2.451,9.823-4.03,15.191-4.697
	c-0.71-2.188-1.246-4.219-1.634-6.19c-0.913-4.634-0.642-9.158,0.754-12.848C5.687,3.484-1.63,14.47,0.312,26.132z M27.07,41.443
	c-1.053-3.109-2.419-6.112-3.615-8.641c-0.833-1.764-1.518-3.255-2.121-4.623c-3.891,5.368-7.818,8.422-12.312,9.586
	c-0.818,0.213-1.705,0.34-2.608,0.368c4.607,4.697,10.947,7.129,17.556,6.701c0,0,0.001,0,0.001,0
	c0.851-0.055,1.711-0.16,2.557-0.311c0.452-0.083,0.917-0.183,1.409-0.308c-0.237-0.931-0.541-1.816-0.751-2.429L27.07,41.443z"/>
</svg>
