<?xml version="1.0" encoding="utf-8"?>
<!-- Generator: Adobe Illustrator 15.0.2, SVG Export Plug-In  -->
<!DOCTYPE svg PUBLIC "-//W3C//DTD SVG 1.1//EN" "http://www.w3.org/Graphics/SVG/1.1/DTD/svg11.dtd" [
	<!ENTITY ns_flows "http://ns.adobe.com/Flows/1.0/">
]>
<svg version="1.1"
	 xmlns="http://www.w3.org/2000/svg" xmlns:xlink="http://www.w3.org/1999/xlink" xmlns:a="http://ns.adobe.com/AdobeSVGViewerExtensions/3.0/"
	 x="0px" y="0px" width="344px" height="224px" viewBox="-2.728 0 344 224"
	 overflow="visible" enable-background="new -2.728 0 344 224" xml:space="preserve">
<defs>
</defs>
<path fill="#fff" stroke="#fff" stroke-width="3" d="M44.276,120.92v0.747c0,4.082,3.249,6.936,9.482,6.936
	c5.926,0,9.263-2.282,9.263-6.058c0-2.81-1.932-4.347-6.849-5.225l-6.189-1.054c-5.005-0.834-7.858-3.424-7.858-7.901
	c0-5.531,4.39-8.517,11.809-8.517c7.946,0,11.677,2.854,11.677,8.253c0,0.439-0.044,1.186-0.131,1.624h-3.205
	c0.044-0.307,0.088-0.878,0.088-1.272c0-3.644-2.458-5.795-8.385-5.795c-5.707,0-8.517,2.063-8.517,5.443
	c0,3.381,2.283,4.609,7.771,5.443l4.565,0.703c5.707,0.878,8.561,3.336,8.561,7.989c0,5.443-4.214,9.131-12.775,9.131
	c-8.736,0-12.424-3.95-12.424-9.657v-0.791H44.276z"/>
<path fill="#fff" stroke="#fff" stroke-width="3" d="M73.514,130.754v-30.247H93.4v2.941H76.762v10.097H92.61v2.941H76.762
	v11.282h17.296v2.985H73.514z"/>
<path fill="#fff" stroke="#fff" stroke-width="3" d="M102.796,100.639c2.854-0.132,5.663-0.264,8.517-0.264
	c2.546,0,5.18,0.176,7.112,0.571c3.6,0.746,5.751,3.248,5.751,7.067c0,3.6-1.449,5.619-5.137,6.761
	c3.907,0.57,6.629,2.941,6.629,7.375c0,3.337-1.756,6.541-5.443,7.727c-1.976,0.658-4.653,1.01-8.034,1.01
	c-3.117,0-6.277-0.088-9.395-0.22V100.639z M112.717,113.633c2.327,0,4.083-0.219,5.224-0.658c1.8-0.702,2.897-2.458,2.897-4.609
	c0-2.283-1.405-3.995-3.512-4.653c-1.185-0.352-3.644-0.527-6.014-0.527c-1.756,0-3.512,0.044-5.268,0.132v10.316H112.717z
	 M112.542,128.032c2.502,0,4.258-0.308,5.575-0.658c2.546-0.703,4.214-2.547,4.214-5.356c0-2.37-1.229-4.346-3.644-5.004
	c-1.405-0.396-3.117-0.615-5.707-0.615h-6.936v11.458C108.196,127.944,110.391,128.032,112.542,128.032z"/>
<path fill="#fff" stroke="#fff" stroke-width="3" d="M129.883,130.754l12.204-30.247h3.556l11.94,30.247h-3.6l-3.688-9.043
	h-13.214l-3.731,9.043H129.883z M149.287,118.813c-3.556-9.395-4.521-12.248-5.487-14.926c-0.966,2.722-1.888,5.487-5.663,14.926
	H149.287z"/>
<path fill="#fff" stroke="#fff" stroke-width="3" d="M165.311,120.92v0.747c0,4.082,3.249,6.936,9.483,6.936
	c5.926,0,9.262-2.282,9.262-6.058c0-2.81-1.932-4.347-6.848-5.225l-6.19-1.054c-5.005-0.834-7.858-3.424-7.858-7.901
	c0-5.531,4.39-8.517,11.809-8.517c7.946,0,11.677,2.854,11.677,8.253c0,0.439-0.043,1.186-0.131,1.624h-3.205
	c0.044-0.307,0.088-0.878,0.088-1.272c0-3.644-2.459-5.795-8.385-5.795c-5.707,0-8.517,2.063-8.517,5.443
	c0,3.381,2.283,4.609,7.771,5.443l4.565,0.703c5.707,0.878,8.561,3.336,8.561,7.989c0,5.443-4.214,9.131-12.775,9.131
	c-8.736,0-12.424-3.95-12.424-9.657v-0.791H165.311z"/>
<path fill="#fff" stroke="#fff" stroke-width="3" d="M202.978,130.754v-27.306h-10.931v-2.941h25.55v2.941h-11.326v27.306
	H202.978z"/>
<path fill="#fff" stroke="#fff" stroke-width="3" d="M224.665,130.754v-30.247h3.293v30.247H224.665z"/>
<path fill="#fff" stroke="#fff" stroke-width="3" d="M234.806,130.754l12.205-30.247h3.556l11.94,30.247h-3.6l-3.688-9.043
	h-13.214l-3.731,9.043H234.806z M254.21,118.813c-3.556-9.395-4.521-12.248-5.487-14.926c-0.966,2.722-1.888,5.487-5.663,14.926
	H254.21z"/>
<path fill="#fff" stroke="#fff" stroke-width="3" d="M269.488,130.754v-30.247h4.214
	c15.189,20.853,17.121,23.442,18.263,25.374c-0.088-5.312-0.088-11.589-0.088-25.374h3.249v30.247h-3.645
	c-16.242-22.696-17.604-24.54-18.832-26.428c0.131,7.156,0.131,13.17,0.131,26.428H269.488z"/>
<g>
	<g>
		<path fill="#fff" stroke="#fff" stroke-width="3" d="M64.118,162.922v0.747c0,4.082,3.249,6.936,9.482,6.936
			c5.926,0,9.263-2.282,9.263-6.058c0-2.81-1.932-4.347-6.849-5.225l-6.189-1.054c-5.005-0.834-7.858-3.424-7.858-7.901
			c0-5.531,4.39-8.517,11.809-8.517c7.946,0,11.677,2.854,11.677,8.253c0,0.439-0.044,1.186-0.131,1.624h-3.205
			c0.044-0.307,0.088-0.878,0.088-1.272c0-3.644-2.458-5.795-8.385-5.795c-5.707,0-8.517,2.063-8.517,5.443
			c0,3.381,2.283,4.609,7.771,5.443l4.565,0.703c5.707,0.878,8.561,3.336,8.561,7.989c0,5.443-4.214,9.131-12.775,9.131
			c-8.736,0-12.424-3.95-12.424-9.657v-0.791H64.118z"/>
		<path fill="#fff" stroke="#fff" stroke-width="3" d="M119.696,163.098c0,6.234-4.609,10.272-12.687,10.272
			c-9.877,0-13.873-5.794-13.873-15.54c0-11.194,5.663-15.979,14.268-15.979c7.814,0,11.984,3.292,11.984,9.395
			c0,0.878-0.044,1.668-0.131,2.107h-3.249c0.043-0.352,0.131-1.186,0.131-1.756c0-4.171-2.327-6.937-8.912-6.937
			c-6.497,0-10.711,3.775-10.711,12.95c0,9.351,3.907,12.994,10.755,12.994c4.961,0,9.175-2.326,9.175-7.551v-0.702h3.249V163.098z"
			/>
		<path fill="#fff" stroke="#fff" stroke-width="3" d="M128.433,172.756v-30.247h3.292v13.038h18.043v-13.038h3.249v30.247
			h-3.249v-14.268h-18.043v14.268H128.433z"/>
		<path fill="#fff" stroke="#fff" stroke-width="3" d="M163.466,172.756v-30.247h4.478
			c7.638,14.575,8.912,17.253,10.667,20.984c1.493-3.249,2.59-5.531,10.624-20.984h4.346v30.247h-3.248
			c0-18.481,0-23.574,0.131-26.647c-1.404,3.029-3.029,6.278-10.756,21.248h-2.545c-7.507-14.663-9.175-18.043-10.756-21.335
			c0.176,4.346,0.219,8.823,0.219,26.734H163.466z"/>
		<path fill="#fff" stroke="#fff" stroke-width="3" d="M204.514,172.756v-30.247h3.292v30.247H204.514z"/>
		<path fill="#fff" stroke="#fff" stroke-width="3" d="M219.132,142.641c2.723-0.132,5.84-0.264,8.561-0.264
			c10.888,0,17.253,2.941,17.253,14.839c0,11.106-5.663,15.672-18.087,15.672c-2.282,0-5.443-0.132-7.727-0.264V142.641z
			 M226.771,169.99c9.439,0,14.838-2.458,14.838-12.688c0-9.438-5.004-12.028-14.135-12.028c-1.58,0-3.557,0.088-5.093,0.22v24.276
			C223.741,169.902,225.41,169.99,226.771,169.99z"/>
		<path fill="#fff" stroke="#fff" stroke-width="3" d="M260.97,172.756V145.45h-10.931v-2.941h25.55v2.941h-11.326v27.306
			H260.97z"/>
	</g>
</g>
<path fill="#76765D" d="M0,216.102v-19.938c2.408-0.088,4.672-0.145,6.994-0.145c4.701,0,8.242,0.783,8.242,6.006
	c0,5.139-3.686,6.154-8.388,6.154c-1.509,0-3.163,0-4.673-0.059v7.98H0z M6.965,206.322c3.512,0,6.008-0.523,6.008-4.238
	c0-3.191-1.741-4.18-5.543-4.18c-1.742,0-3.6,0.059-5.254,0.117v8.242C3.976,206.322,5.311,206.322,6.965,206.322z"/>
<path fill="#76765D" d="M20.776,216.102v-19.996h2.176v8.619h11.929v-8.619h2.147v19.996h-2.147v-9.432H22.952v9.432H20.776z"/>
<path fill="#76765D" d="M51.913,216.508c-5.862,0-8.997-3.221-8.997-10.361c0-7.486,3.715-10.477,9.2-10.477
	c5.979,0,9.084,3.076,9.084,10.129C61.2,213.346,57.979,216.508,51.913,216.508z M52.059,197.527c-4.209,0-6.937,2.41-6.937,8.562
	c0,6.529,3.019,8.59,6.82,8.59c4.354,0,7.081-2.408,7.081-8.619C59.023,199.994,56.644,197.527,52.059,197.527z"/>
<path fill="#76765D" d="M71.819,216.102v-18.051h-7.227v-1.945h16.891v1.945h-7.487v18.051H71.819z"/>
<path fill="#76765D" d="M93.641,216.508c-5.862,0-8.997-3.221-8.997-10.361c0-7.486,3.715-10.477,9.2-10.477
	c5.979,0,9.084,3.076,9.084,10.129C102.928,213.346,99.706,216.508,93.641,216.508z M93.786,197.527
	c-4.209,0-6.937,2.41-6.937,8.562c0,6.529,3.019,8.59,6.82,8.59c4.354,0,7.081-2.408,7.081-8.619
	C100.751,199.994,98.371,197.527,93.786,197.527z"/>
<path fill="#76765D" d="M117.696,216.508c-6.704,0-9.606-3.191-9.606-10.215c0-7.285,3.222-10.623,9.606-10.623
	c5.543,0,8.098,2.293,8.098,6.008c0,0.291-0.029,0.783-0.087,1.016h-2.119c0.029-0.232,0.058-0.668,0.058-0.928
	c0-2.381-1.422-4.324-6.094-4.324c-5.544,0-7.285,3.686-7.285,8.502c0,6.646,2.642,8.766,7.691,8.766
	c2.002,0,4.208-0.494,5.717-1.336v-5.426h-6.211v-2.004h8.33v8.447C123.385,215.842,120.831,216.508,117.696,216.508z"/>
<path fill="#76765D" d="M131.798,216.102v-19.938c2.408-0.088,3.715-0.145,6.036-0.145c4.701,0,8.213,0.492,8.213,5.717
	c0,3.773-2.031,5.107-4.962,5.602l5.891,8.764h-2.554l-5.572-8.504c-0.377,0-0.929,0.029-1.393,0.029
	c-1.451,0-2.09-0.029-3.483-0.057v8.531H131.798z M137.834,205.74c3.396,0,5.979-0.406,5.979-3.945c0-3.193-1.828-3.918-5.543-3.918
	c-1.741,0-2.642,0.057-4.296,0.115v7.662C135.773,205.713,136.18,205.74,137.834,205.74z"/>
<path fill="#76765D" d="M151.093,216.102l8.068-19.996h2.351l7.895,19.996h-2.38l-2.438-5.979h-8.736l-2.467,5.979H151.093z
	 M163.921,208.207c-2.351-6.209-2.989-8.096-3.628-9.867c-0.639,1.801-1.248,3.629-3.744,9.867H163.921z"/>
<path fill="#76765D" d="M174.599,216.102v-19.938c2.408-0.088,4.672-0.145,6.994-0.145c4.701,0,8.242,0.783,8.242,6.006
	c0,5.139-3.686,6.154-8.388,6.154c-1.509,0-3.163,0-4.673-0.059v7.98H174.599z M181.563,206.322c3.512,0,6.008-0.523,6.008-4.238
	c0-3.191-1.741-4.18-5.543-4.18c-1.742,0-3.6,0.059-5.254,0.117v8.242C178.574,206.322,179.909,206.322,181.563,206.322z"/>
<path fill="#76765D" d="M194.794,216.102v-19.996h2.176v8.619h11.929v-8.619h2.147v19.996h-2.147v-9.432H196.97v9.432H194.794z"/>
<path fill="#76765D" d="M224.305,216.102v-8.068l-8.126-11.928h2.642c4.847,7.082,5.63,8.416,6.616,9.984
	c1.045-1.568,1.654-2.584,6.763-9.984h2.641l-8.358,11.928v8.068H224.305z"/>
<path fill="#76765D" d="M258.199,216.102l-2.583-2.35c-1.335,1.566-3.743,2.727-6.849,2.727c-4.963,0-7.633-2.291-7.633-5.891
	c0-2.729,1.654-4.295,5.369-5.979c-1.538-1.393-2.642-2.961-2.642-4.672c0-2.525,1.8-4.268,5.312-4.268
	c2.815,0,5.079,1.219,5.079,3.977c0,2.467-1.916,3.773-4.76,5.311l5.979,5.572c0.406-0.668,0.639-1.914,0.639-3.191
	c0-0.406-0.087-1.133-0.146-1.451h2.119c0.087,0.406,0.115,1.131,0.115,1.537c0,1.945-0.58,3.803-1.247,4.703l4.149,3.975H258.199z
	 M247.723,206.031c-2.699,1.219-4.383,2.264-4.383,4.498c0,2.09,1.597,4.092,5.515,4.092c1.915,0,4.092-0.492,5.427-2.234
	L247.723,206.031z M249.145,197.383c-2.438,0-3.222,1.131-3.222,2.496c0,1.363,1.22,2.611,2.438,3.83
	c2.611-1.219,3.918-2.438,3.918-3.918C252.279,198.398,251.264,197.383,249.145,197.383z"/>
<path fill="#76765D" d="M270.5,216.102v-19.996h13.205v1.945h-11.029v7.023h9.984v1.973h-9.984v9.055H270.5z"/>
<path fill="#76765D" d="M289.797,216.102v-19.996h2.176v19.996H289.797z"/>
<path fill="#76765D" d="M298.878,216.102v-19.996h2.176v18.023h10.535v1.973H298.878z"/>
<path fill="#76765D" d="M316.173,216.102v-19.996h2.96c5.05,9.635,5.892,11.406,7.053,13.873c0.986-2.148,1.712-3.656,7.022-13.873
	h2.874v19.996h-2.148c0-12.219,0-15.584,0.088-17.615c-0.929,2.002-2.003,4.148-7.111,14.047h-1.683
	c-4.963-9.693-6.065-11.93-7.11-14.105c0.116,2.873,0.145,5.834,0.145,17.674H316.173z"/>
<path fill="#fff" d="M154.441,37.939c0.41,0.292,0.775,0.568,1.119,0.832l6.298-3.629l3.641,2.106
	c0.504-0.54,0.965-1.181,1.364-1.933l0.117-0.233c1.221-2.443,1.635-4.623,1.225-6.479c-0.393-1.782-1.436-3.073-3.188-3.949
	c-1.514-0.756-3.873-0.985-5.824-0.021c-1.459,0.722-2.859,2.113-4.759,4.079l-4.609,4.635c-0.88,0.866-1.725,1.569-2.57,2.162
	c1.395,0.113,2.801,0.43,4.219,0.97C152.746,36.954,153.739,37.446,154.441,37.939z"/>
<path fill="#fff" d="M140.397,41.224c-0.599,1.579-0.586,3.953,0.571,5.796c0.863,1.377,2.391,2.631,4.539,4.32l5.078,4.117
	c1.201,0.994,2.138,1.959,2.922,2.959c0.008-0.36,0.024-0.724,0.062-1.094c0.176-1.741,0.697-3.47,1.555-5.183
	c0.494-1.001,0.981-1.803,1.45-2.42l-2.362-1.366l0.007-7.556c-0.158-0.207-0.327-0.409-0.511-0.603
	c-0.726-0.766-1.699-1.406-2.893-1.89l-0.242-0.093c-2.558-0.967-4.765-1.156-6.567-0.566
	C142.273,38.223,141.094,39.391,140.397,41.224z"/>
<path fill="#fff" d="M173.237,49.807l0.24,0.092c2.557,0.966,4.766,1.156,6.571,0.565c1.732-0.576,2.91-1.744,3.607-3.576
	c0.598-1.581,0.588-3.954-0.57-5.798c-0.863-1.375-2.393-2.63-4.539-4.318l-5.077-4.118c-1.375-1.133-2.398-2.23-3.243-3.389
	c0.012,0.56,0.002,1.125-0.057,1.705c-0.178,1.742-0.697,3.47-1.555,5.186c-0.432,0.866-0.854,1.586-1.264,2.167l2.131,1.234
	l-0.006,7.233c0.25,0.397,0.533,0.774,0.867,1.128C171.069,48.683,172.042,49.323,173.237,49.807z"/>
<path fill="#fff" d="M185.897,14.116l-0.42-0.164c-1.656-0.63-3.289-0.683-4.992-0.16c-1.602,0.502-3.9,2.238-4.76,4.527
	c-0.6,1.562-0.43,3.056,0.004,4.142c0.02,0.038,0.031,0.076,0.053,0.114c0.785,1.313,1.836,2.522,3.146,3.608l5.875,4.895
	c0.756,0.621,1.564,1.335,2.41,2.155c0.852,0.811,1.566,1.78,2.131,2.88c0.574,1.113,0.906,2.381,0.99,3.8
	c0.096,1.424-0.219,3.09-0.943,4.997c-0.607,1.615-1.488,3.003-2.658,4.147c-0.359,0.358-0.742,0.681-1.135,0.987
	c0.945,0.176,1.898,0.535,2.871,1.124c1.092,0.658,2.1,1.495,2.988,2.445c0.213,0.211,0.428,0.421,0.627,0.647
	c1.156,1.298,1.982,2.78,2.494,4.455c0.375,1.083,0.529,2.244,0.566,3.447c0.012,0.264,0.023,0.529,0.021,0.798
	c0,0.053-0.004,0.106-0.006,0.157c-0.006,0.348-0.01,0.693-0.037,1.05c-0.004,0.057-0.018,0.116-0.023,0.171
	c-0.002,0.061-0.004,0.113-0.01,0.173c-0.02,0.294-0.066,0.576-0.125,0.859c-0.244,1.487-0.748,3.017-1.498,4.592l6.547-3.773
	l0.043-44.103l-13.199-7.638C186.548,14.313,186.233,14.252,185.897,14.116z"/>
<path fill="#fff" d="M135.454,72.567c0.486,0.329,1.013,0.635,1.585,0.916l0.107,0.062l0.008-0.008
	c0.324,0.157,0.651,0.315,1.002,0.458l0.418,0.162c1.658,0.631,3.292,0.683,4.992,0.161c1.604-0.501,3.9-2.236,4.76-4.527
	c0.601-1.562,0.432-3.058-0.001-4.143c-0.021-0.037-0.034-0.074-0.056-0.109c-0.785-1.316-1.835-2.523-3.146-3.61l-5.873-4.896
	c-0.757-0.622-1.565-1.335-2.414-2.155c-0.847-0.812-1.562-1.781-2.129-2.88c-0.574-1.114-0.904-2.382-0.99-3.799
	c-0.095-1.426,0.221-3.09,0.945-4.996c0.607-1.619,1.488-3.005,2.658-4.151c0.281-0.279,0.574-0.542,0.877-0.79
	c-0.967-0.172-1.938-0.537-2.929-1.137c-1.093-0.663-2.099-1.496-2.99-2.45c-0.212-0.21-0.425-0.418-0.626-0.646
	c-1.156-1.295-1.98-2.781-2.492-4.454c-0.375-1.078-0.529-2.24-0.567-3.442c-0.012-0.266-0.023-0.533-0.02-0.806
	c-0.002-0.05,0.002-0.099,0.004-0.147c0.005-0.35,0.011-0.698,0.038-1.058c0.004-0.058,0.017-0.114,0.022-0.171
	c0.005-0.058,0.003-0.113,0.008-0.171c0.022-0.292,0.068-0.581,0.126-0.861c0.256-1.539,0.777-3.12,1.57-4.748l-6.672,3.845
	l-0.043,44.104L135.454,72.567z"/>
<path fill="#fff" d="M169.306,59.578l4.606-4.631c0.975-0.962,1.907-1.716,2.846-2.347c-1.381-0.114-2.776-0.435-4.178-0.968
	c-1.273-0.475-2.265-0.968-2.97-1.462c-0.535-0.384-0.994-0.734-1.416-1.068l-6.354,3.663l-3.385-1.956
	c-0.592,0.579-1.121,1.305-1.58,2.168l-0.117,0.23c-1.221,2.445-1.634,4.624-1.224,6.48c0.394,1.781,1.438,3.072,3.188,3.947
	c1.514,0.759,3.875,0.984,5.826,0.022C166.006,62.937,167.406,61.547,169.306,59.578z"/>
<path fill="#fff" d="M176.237,79.799l7.57-4.362c0.145-0.043,0.285-0.104,0.428-0.154l3.869-2.229
	c1.123-0.953,2.137-2.239,2.994-3.863l0.205-0.401c0.795-1.581,1.012-3.204,0.664-4.947c-0.332-1.645-1.828-4.105-4.02-5.197
	c-1.502-0.754-3.012-0.735-4.137-0.41c-0.033,0.015-0.07,0.022-0.104,0.036c-1.387,0.652-2.695,1.573-3.91,2.765l-5.465,5.351
	c-0.693,0.688-1.486,1.422-2.385,2.181c-0.895,0.761-1.933,1.372-3.085,1.825c-1.164,0.459-2.454,0.663-3.876,0.6
	c-1.426-0.046-3.049-0.531-4.877-1.443c-1.379-0.687-2.541-1.579-3.504-2.672c-0.104,0.868-0.348,1.756-0.784,2.679
	c-0.552,1.156-1.285,2.249-2.148,3.235c-0.184,0.227-0.365,0.458-0.568,0.676c-1.17,1.282-2.564,2.253-4.176,2.933
	c-1.018,0.473-2.134,0.739-3.3,0.902c-0.669,0.102-1.355,0.178-2.071,0.194c-0.063,0-0.129-0.007-0.191-0.008
	c-0.029,0.002-0.057,0.003-0.084,0.006l18.521,10.715l14.516-8.363L176.237,79.799z"/>
<path fill="#fff" d="M135.953,14.958c-1.257,0.973-2.373,2.366-3.312,4.144l-0.205,0.4c-0.794,1.584-1.011,3.204-0.665,4.95
	c0.333,1.643,1.829,4.106,4.019,5.194c1.504,0.758,3.013,0.737,4.139,0.413c0.033-0.014,0.068-0.022,0.104-0.037
	c1.385-0.651,2.694-1.572,3.911-2.767l5.464-5.349c0.691-0.689,1.486-1.42,2.383-2.179c0.897-0.762,1.936-1.375,3.088-1.827
	c1.165-0.459,2.454-0.661,3.878-0.6c1.426,0.049,3.049,0.533,4.875,1.444c1.506,0.748,2.76,1.733,3.771,2.965
	c0.057-1.018,0.316-2.062,0.832-3.153c0.549-1.157,1.281-2.246,2.143-3.232c0.186-0.229,0.368-0.459,0.573-0.68
	c1.17-1.282,2.564-2.252,4.178-2.934c1.016-0.472,2.129-0.738,3.295-0.899c0.596-0.09,1.207-0.153,1.838-0.181L161.885,0
	l-25.774,14.848C136.059,14.888,136.003,14.918,135.953,14.958z"/>
</svg>
