<?xml version="1.0" encoding="utf-8"?>
<!-- Generator: Adobe Illustrator 15.0.2, SVG Export Plug-In  -->
<!DOCTYPE svg PUBLIC "-//W3C//DTD SVG 1.1//EN" "http://www.w3.org/Graphics/SVG/1.1/DTD/svg11.dtd" [
	<!ENTITY ns_flows "http://ns.adobe.com/Flows/1.0/">
]>
<svg version="1.1"
	 xmlns="http://www.w3.org/2000/svg" xmlns:xlink="http://www.w3.org/1999/xlink" xmlns:a="http://ns.adobe.com/AdobeSVGViewerExtensions/3.0/"
	 x="0px" y="0px" width="241px" height="156px" viewBox="0 -0.001 241 156"
	 overflow="visible" enable-background="new 0 -0.001 241 156" xml:space="preserve">
<defs>
</defs>
<rect opacity="0.9" fill="#FFFFFF" width="240.945" height="154.754"/>
<rect y="124.396" fill="#B0A6A1" width="240.945" height="31.508"/>
<path fill="#3C2D26" d="M44.729,141.118h-0.82l-0.67-1.511H40.56l-0.631,1.511h-0.824l2.424-5.389h0.768L44.729,141.118z
	 M42.996,139.04l-0.991-2.296c-0.032-0.075-0.064-0.195-0.097-0.361h-0.018c-0.03,0.153-0.063,0.273-0.102,0.361l-0.983,2.296
	H42.996z"/>
<path fill="#3C2D26" d="M50.083,140.75c-0.634,0.306-1.34,0.458-2.115,0.458c-0.902,0-1.631-0.248-2.188-0.744
	c-0.557-0.496-0.835-1.152-0.835-1.969c0-0.834,0.31-1.519,0.928-2.054c0.619-0.535,1.402-0.802,2.352-0.802
	c0.688,0,1.265,0.095,1.732,0.285v0.699c-0.512-0.275-1.117-0.414-1.816-0.414c-0.708,0-1.288,0.208-1.74,0.624
	c-0.453,0.416-0.679,0.955-0.679,1.616c0,0.682,0.21,1.217,0.63,1.606s0.99,0.584,1.71,0.584c0.493,0,0.921-0.084,1.282-0.252v-1.51
	h-1.384v-0.571h2.124V140.75z"/>
<path fill="#3C2D26" d="M54.72,141.118h-3.35v-5.389h3.209v0.571h-2.468v1.792h2.282v0.567h-2.282v1.887h2.608V141.118z"/>
<path fill="#3C2D26" d="M60.85,141.118h-0.907l-3.253-4.295c-0.082-0.108-0.149-0.221-0.202-0.339h-0.026
	c0.023,0.115,0.035,0.362,0.035,0.74v3.894h-0.741v-5.389h0.961l3.165,4.228c0.132,0.176,0.217,0.296,0.255,0.36h0.018
	c-0.029-0.155-0.044-0.419-0.044-0.793v-3.795h0.74V141.118z"/>
<path fill="#3C2D26" d="M66.064,136.301H64.24v4.817H63.5v-4.817h-1.82v-0.571h4.385V136.301z"/>
<path fill="#3C2D26" d="M70.225,141.118h-3.35v-5.389h3.209v0.571h-2.468v1.792h2.282v0.567h-2.282v1.887h2.608V141.118z"/>
<path fill="#3C2D26" d="M76.354,141.118h-0.907l-3.253-4.295c-0.082-0.108-0.149-0.221-0.202-0.339h-0.026
	c0.023,0.115,0.035,0.362,0.035,0.74v3.894H71.26v-5.389h0.961l3.165,4.228c0.132,0.176,0.217,0.296,0.255,0.36h0.018
	c-0.029-0.155-0.044-0.419-0.044-0.793v-3.795h0.74V141.118z"/>
<path fill="#3C2D26" d="M83.332,136.301h-2.468v1.863h2.282v0.567h-2.282v2.387h-0.741v-5.389h3.209V136.301z"/>
<path fill="#3C2D26" d="M88.974,138.938c0,1.514-0.801,2.27-2.402,2.27c-1.534,0-2.301-0.728-2.301-2.183v-3.296h0.74v3.254
	c0,1.105,0.547,1.657,1.64,1.657c1.055,0,1.582-0.533,1.582-1.601v-3.311h0.741V138.938z M85.773,135.229
	c-0.123,0-0.229-0.037-0.315-0.11c-0.086-0.074-0.13-0.161-0.13-0.262c0-0.105,0.042-0.192,0.126-0.263s0.186-0.105,0.307-0.105
	c0.12,0,0.225,0.036,0.312,0.107s0.132,0.158,0.132,0.261s-0.042,0.19-0.127,0.264C85.992,135.193,85.891,135.229,85.773,135.229z
	 M87.466,135.229c-0.117,0-0.219-0.035-0.304-0.105c-0.086-0.069-0.128-0.159-0.128-0.267c0-0.105,0.041-0.192,0.123-0.263
	s0.183-0.105,0.3-0.105c0.123,0,0.228,0.036,0.313,0.107c0.085,0.071,0.127,0.158,0.127,0.261s-0.041,0.19-0.123,0.264
	C87.692,135.193,87.59,135.229,87.466,135.229z"/>
<path fill="#3C2D26" d="M94.434,141.118h-0.881l-0.833-1.623c-0.229-0.446-0.551-0.669-0.965-0.669h-0.644v2.292H90.37v-5.389h1.887
	c0.605,0,1.077,0.128,1.415,0.385s0.507,0.607,0.507,1.051c0,0.381-0.127,0.702-0.379,0.966c-0.253,0.263-0.596,0.438-1.027,0.522
	v0.015c0.238,0.075,0.454,0.288,0.647,0.639L94.434,141.118z M91.111,136.301v1.954h0.979c0.394,0,0.711-0.096,0.951-0.288
	c0.241-0.191,0.361-0.441,0.361-0.749c0-0.288-0.109-0.514-0.33-0.675s-0.536-0.242-0.947-0.242H91.111z"/>
<path fill="#3C2D26" d="M102.425,141.118h-0.74v-2.458h-3.27v2.458h-0.741v-5.389h0.741v2.363h3.27v-2.363h0.74V141.118z"/>
<path fill="#3C2D26" d="M106.449,141.208c-0.896,0-1.614-0.251-2.153-0.755s-0.809-1.159-0.809-1.966
	c0-0.866,0.275-1.558,0.824-2.074c0.55-0.516,1.297-0.773,2.243-0.773c0.873,0,1.576,0.25,2.109,0.751s0.8,1.156,0.8,1.966
	c0,0.879-0.273,1.574-0.82,2.085C108.098,140.953,107.366,141.208,106.449,141.208z M106.502,136.21
	c-0.664,0-1.203,0.205-1.617,0.613s-0.621,0.944-0.621,1.608c0,0.663,0.201,1.198,0.605,1.603s0.931,0.606,1.58,0.606
	c0.693,0,1.24-0.192,1.64-0.578s0.6-0.926,0.6-1.62c0-0.711-0.194-1.261-0.582-1.649S107.184,136.21,106.502,136.21z"/>
<path fill="#3C2D26" d="M116.969,141.118h-0.735v-3.615c0-0.285,0.021-0.635,0.062-1.048h-0.018
	c-0.07,0.242-0.134,0.417-0.189,0.521l-2.16,4.142h-0.361l-2.154-4.111c-0.062-0.12-0.125-0.304-0.189-0.552h-0.019
	c0.023,0.215,0.036,0.567,0.036,1.056v3.607h-0.715v-5.389h0.979l1.939,3.758c0.15,0.288,0.247,0.504,0.291,0.646h0.026
	c0.126-0.296,0.228-0.517,0.304-0.661l1.979-3.743h0.925V141.118z"/>
<path fill="#3C2D26" d="M121.799,141.118h-3.35v-5.389h3.209v0.571h-2.468v1.792h2.282v0.567h-2.282v1.887h2.608V141.118z"/>
<path fill="#3C2D26" d="M124.832,140.9v-0.744c0.188,0.146,0.426,0.263,0.712,0.352s0.558,0.133,0.813,0.133
	c0.813,0,1.221-0.269,1.221-0.808c0-0.208-0.082-0.396-0.245-0.562c-0.163-0.167-0.525-0.386-1.086-0.656
	c-0.503-0.243-0.862-0.479-1.08-0.71s-0.326-0.506-0.326-0.827c0-0.421,0.184-0.766,0.551-1.035s0.853-0.403,1.455-0.403
	c0.566,0,0.98,0.063,1.242,0.191v0.71c-0.335-0.221-0.761-0.331-1.278-0.331c-0.367,0-0.658,0.075-0.872,0.226
	c-0.215,0.15-0.322,0.346-0.322,0.587c0,0.197,0.064,0.376,0.192,0.535s0.474,0.371,1.038,0.637
	c0.546,0.261,0.934,0.512,1.163,0.752s0.344,0.511,0.344,0.812c0,0.443-0.183,0.796-0.547,1.058s-0.881,0.393-1.551,0.393
	c-0.235,0-0.497-0.03-0.785-0.092C125.184,141.055,124.97,140.982,124.832,140.9z"/>
<path fill="#3C2D26" d="M133.17,136.301h-1.824v4.817h-0.74v-4.817h-1.82v-0.571h4.385V136.301z"/>
<path fill="#3C2D26" d="M138.194,141.118h-0.82l-0.67-1.511h-2.679l-0.631,1.511h-0.824l2.424-5.389h0.768L138.194,141.118z
	 M136.462,139.04l-0.991-2.296c-0.032-0.075-0.064-0.195-0.097-0.361h-0.018c-0.03,0.153-0.063,0.273-0.102,0.361l-0.983,2.296
	H136.462z"/>
<path fill="#3C2D26" d="M143.549,140.75c-0.634,0.306-1.34,0.458-2.115,0.458c-0.902,0-1.631-0.248-2.188-0.744
	c-0.557-0.496-0.835-1.152-0.835-1.969c0-0.834,0.31-1.519,0.928-2.054c0.619-0.535,1.402-0.802,2.352-0.802
	c0.688,0,1.265,0.095,1.732,0.285v0.699c-0.512-0.275-1.117-0.414-1.816-0.414c-0.708,0-1.288,0.208-1.74,0.624
	c-0.453,0.416-0.679,0.955-0.679,1.616c0,0.682,0.21,1.217,0.63,1.606s0.99,0.584,1.71,0.584c0.493,0,0.921-0.084,1.282-0.252v-1.51
	h-1.384v-0.571h2.124V140.75z"/>
<path fill="#3C2D26" d="M145.577,141.118h-0.741v-5.389h0.741V141.118z"/>
<path fill="#3C2D26" d="M152.152,141.118h-0.907l-3.253-4.295c-0.082-0.108-0.149-0.221-0.202-0.339h-0.026
	c0.023,0.115,0.035,0.362,0.035,0.74v3.894h-0.741v-5.389h0.961l3.165,4.228c0.132,0.176,0.217,0.296,0.255,0.36h0.018
	c-0.029-0.155-0.044-0.419-0.044-0.793v-3.795h0.74V141.118z"/>
<path fill="#3C2D26" d="M158.354,140.75c-0.634,0.306-1.34,0.458-2.115,0.458c-0.902,0-1.631-0.248-2.188-0.744
	c-0.557-0.496-0.835-1.152-0.835-1.969c0-0.834,0.31-1.519,0.928-2.054c0.619-0.535,1.402-0.802,2.352-0.802
	c0.688,0,1.265,0.095,1.732,0.285v0.699c-0.512-0.275-1.117-0.414-1.816-0.414c-0.708,0-1.288,0.208-1.74,0.624
	c-0.453,0.416-0.679,0.955-0.679,1.616c0,0.682,0.21,1.217,0.63,1.606s0.99,0.584,1.71,0.584c0.493,0,0.921-0.084,1.282-0.252v-1.51
	h-1.384v-0.571h2.124V140.75z"/>
<path fill="#3C2D26" d="M167.391,141.118h-1.014l-0.679-0.594c-0.57,0.456-1.258,0.684-2.063,0.684
	c-0.625,0-1.116-0.136-1.472-0.409s-0.533-0.62-0.533-1.041c0-0.631,0.48-1.157,1.441-1.578c-0.456-0.496-0.684-0.92-0.684-1.271
	c0-0.365,0.157-0.669,0.47-0.909s0.71-0.36,1.192-0.36c0.458,0,0.824,0.106,1.097,0.319c0.273,0.213,0.41,0.48,0.41,0.804
	c0,0.318-0.102,0.59-0.304,0.813c-0.203,0.225-0.577,0.453-1.124,0.686c0.605,0.547,1.156,1.026,1.652,1.439
	c0.323-0.405,0.492-0.883,0.507-1.432h0.666c-0.003,0.682-0.256,1.29-0.758,1.826C166.316,140.196,166.715,140.537,167.391,141.118z
	 M165.283,140.156c-0.411-0.355-1.014-0.89-1.807-1.601c-0.74,0.308-1.11,0.701-1.11,1.18c0,0.28,0.119,0.51,0.359,0.688
	c0.239,0.178,0.542,0.267,0.909,0.267C164.281,140.689,164.831,140.512,165.283,140.156z M164.852,136.815
	c0-0.193-0.077-0.355-0.231-0.486c-0.154-0.132-0.339-0.197-0.553-0.197c-0.294,0-0.527,0.072-0.701,0.218
	c-0.173,0.146-0.26,0.332-0.26,0.56c0,0.273,0.209,0.606,0.626,1C164.479,137.604,164.852,137.239,164.852,136.815z"/>
<path fill="#3C2D26" d="M170.123,140.9v-0.744c0.188,0.146,0.426,0.263,0.712,0.352s0.558,0.133,0.813,0.133
	c0.813,0,1.221-0.269,1.221-0.808c0-0.208-0.082-0.396-0.245-0.562c-0.163-0.167-0.525-0.386-1.086-0.656
	c-0.503-0.243-0.862-0.479-1.08-0.71s-0.326-0.506-0.326-0.827c0-0.421,0.184-0.766,0.551-1.035s0.853-0.403,1.455-0.403
	c0.566,0,0.98,0.063,1.242,0.191v0.71c-0.335-0.221-0.761-0.331-1.278-0.331c-0.367,0-0.658,0.075-0.872,0.226
	c-0.215,0.15-0.322,0.346-0.322,0.587c0,0.197,0.064,0.376,0.192,0.535s0.474,0.371,1.038,0.637
	c0.546,0.261,0.934,0.512,1.163,0.752s0.344,0.511,0.344,0.812c0,0.443-0.183,0.796-0.547,1.058s-0.881,0.393-1.551,0.393
	c-0.235,0-0.497-0.03-0.785-0.092C170.475,141.055,170.261,140.982,170.123,140.9z"/>
<path fill="#3C2D26" d="M178.461,136.301h-1.824v4.817h-0.74v-4.817h-1.82v-0.571h4.385V136.301z"/>
<path fill="#3C2D26" d="M183.508,135.729l-2.085,3.397v1.991h-0.74v-1.977l-2.032-3.412h0.842l1.415,2.435
	c0.018,0.03,0.069,0.141,0.154,0.331h0.013c0.029-0.085,0.086-0.195,0.168-0.331l1.48-2.435H183.508z"/>
<path fill="#3C2D26" d="M187.487,141.118h-3.279v-5.389h0.741v4.817h2.538V141.118z"/>
<path fill="#3C2D26" d="M189.019,141.118h-0.741v-5.389h0.741V141.118z"/>
<path fill="#3C2D26" d="M195.594,141.118h-0.907l-3.253-4.295c-0.082-0.108-0.149-0.221-0.202-0.339h-0.026
	c0.023,0.115,0.035,0.362,0.035,0.74v3.894h-0.741v-5.389h0.961l3.165,4.228c0.132,0.176,0.217,0.296,0.255,0.36h0.018
	c-0.029-0.155-0.044-0.419-0.044-0.793v-3.795h0.74V141.118z"/>
<path fill="#3C2D26" d="M201.795,140.75c-0.634,0.306-1.34,0.458-2.115,0.458c-0.902,0-1.631-0.248-2.188-0.744
	c-0.557-0.496-0.835-1.152-0.835-1.969c0-0.834,0.31-1.519,0.928-2.054c0.619-0.535,1.402-0.802,2.352-0.802
	c0.688,0,1.265,0.095,1.732,0.285v0.699c-0.512-0.275-1.117-0.414-1.816-0.414c-0.708,0-1.288,0.208-1.74,0.624
	c-0.453,0.416-0.679,0.955-0.679,1.616c0,0.682,0.21,1.217,0.63,1.606s0.99,0.584,1.71,0.584c0.493,0,0.921-0.084,1.282-0.252v-1.51
	h-1.384v-0.571h2.124V140.75z"/>
<path fill="#B0A6A1" d="M58.322,88.468V68.693c2.273-0.012,5.137-0.171,7.891-0.4v9.297c-0.945,0.172-1.659,0.991-1.659,1.981
	c0,1.112,0.902,2.017,2.013,2.017c1.114,0,2.018-0.904,2.018-2.017c0-0.969-0.688-1.778-1.597-1.971v-9.374
	c4.027-0.358,7.667-0.857,8.644-1.258l-4.224-28.281H57.516v0.005H43.328l-4.537,28.284c1.709,0.702,11.426,1.687,17.308,1.717
	v19.774c-6.242,0.104-11.143,1.071-11.143,2.25c0,1.25,5.49,2.262,12.253,2.262c6.77,0,12.256-1.012,12.256-2.262
	C69.465,89.539,64.569,88.571,58.322,88.468z M51.983,55.122V65.21h-4.368V41.445h4.368v9.779h10.752v-9.779h4.384l-0.004,23.735
	l-4.396,0.021l0.017-10.08H51.983z"/>
<path fill="#B0A6A1" d="M84.192,41.467h-4.727l-8.914,23.804h4.808l2.011-5.92h8.758l1.326,3.752l4.234-1.453l-7.431-20.005
	L84.192,41.467z M81.727,46.432c0.029,0.118,0.059,0.223,0.088,0.312l3.101,8.914h-6.352l3.071-8.918
	C81.666,46.646,81.696,46.543,81.727,46.432z"/>
<path fill="#B0A6A1" d="M97.881,65.208V49.917c0-0.846-0.007-1.6-0.021-2.26c0.016,0.043,0.031,0.084,0.046,0.124l6.957,17.256
	l0.069,0.171h3.03l7.009-17.555c0.003-0.009,0.007-0.017,0.011-0.025c-0.045,0.831-0.067,1.586-0.067,2.257v15.323h4.374V41.404
	h-5.696l-6.295,15.592c-0.2,0.477-0.449,1.159-0.745,2.035c-0.168-0.527-0.405-1.185-0.711-1.966l-6.183-15.661h-5.893l0.012,20.198
	L97.881,65.208z"/>
<path fill="#B0A6A1" d="M134.57,52.456c0.979-0.437,1.78-1.058,2.391-1.854c0.779-1.016,1.175-2.229,1.175-3.604
	c0-1.663-0.699-3.029-2.079-4.062c-1.355-1.016-3.209-1.531-5.508-1.531h-7.653v23.804h7.734c2.44,0,4.494-0.642,6.104-1.907
	c1.63-1.281,2.456-2.979,2.456-5.048c0-1.666-0.509-3.041-1.512-4.09C136.867,53.315,135.824,52.743,134.57,52.456z M132.49,50.233
	c-0.709,0.588-1.711,0.886-2.979,0.886h-2.225v-6.07h2.532c2.501,0,3.717,0.887,3.717,2.711
	C133.535,48.841,133.193,49.65,132.49,50.233z M127.286,54.764h2.517c3.188,0,4.737,1.094,4.737,3.343
	c0,1.094-0.353,1.925-1.079,2.54c-0.73,0.62-1.792,0.934-3.155,0.934h-3.02V54.764z"/>
<path fill="#B0A6A1" d="M155.864,55.35c0,4.258-1.587,6.327-4.852,6.327c-3.396,0-5.046-2.149-5.046-6.57V41.404h-4.407v14.497
	c0,6.434,3.082,9.696,9.161,9.696c6.337,0,9.55-3.388,9.55-10.069V41.404h-4.406V55.35z"/>
<path fill="#B0A6A1" d="M176.728,56.901c-0.279-0.39-0.567-0.745-0.856-1.057c-0.285-0.307-0.591-0.609-0.908-0.898
	c-0.206-0.189-0.438-0.37-0.69-0.539c0.606-0.196,1.169-0.448,1.677-0.753c0.654-0.391,1.223-0.871,1.691-1.429
	c0.467-0.558,0.832-1.203,1.085-1.917c0.253-0.711,0.381-1.503,0.381-2.354c0-1.084-0.203-2.05-0.604-2.869
	c-0.401-0.818-0.966-1.512-1.676-2.059c-0.706-0.543-1.545-0.954-2.493-1.222c-0.938-0.266-1.979-0.4-3.091-0.4h-7.929v23.804h4.391
	V55.77h1.284c0.456,0,0.871,0.056,1.233,0.166c0.354,0.108,0.688,0.284,0.989,0.521c0.31,0.243,0.621,0.562,0.928,0.951
	c0.311,0.396,0.633,0.879,0.961,1.438l3.793,6.361h5.16l-4.403-6.96C177.312,57.736,177.005,57.287,176.728,56.901z M167.705,45.082
	h2.971c1.243,0,2.202,0.293,2.851,0.871c0.647,0.578,0.963,1.365,0.963,2.407c0,0.576-0.097,1.103-0.288,1.565
	c-0.188,0.458-0.456,0.852-0.794,1.17c-0.338,0.319-0.745,0.567-1.212,0.737c-0.468,0.172-0.99,0.259-1.552,0.259h-2.938V45.082z"/>
<path fill="#B0A6A1" d="M192.338,52.11v3.79h4.897v5.091c-1.093,0.543-2.396,0.817-3.878,0.817c-2.243,0-4.041-0.741-5.343-2.203
	c-1.311-1.471-1.975-3.53-1.975-6.119c0-2.509,0.773-4.578,2.299-6.15c1.523-1.57,3.506-2.366,5.894-2.366
	c2.398,0,4.492,0.585,6.223,1.738l0.425,0.283v-4.665l-0.166-0.07c-1.79-0.768-4.02-1.157-6.627-1.157
	c-3.647,0-6.7,1.191-9.072,3.541c-2.372,2.351-3.575,5.397-3.575,9.058c0,3.583,1.102,6.508,3.273,8.69
	c2.173,2.186,5.049,3.293,8.547,3.293c3.005,0,5.771-0.677,8.224-2.012l0.143-0.078V52.11H192.338z"/>
<path fill="#88CDD3" d="M97.106,80.245c0,0.393-0.039,0.904-0.157,1.219c-0.551-0.117-1.142-0.195-1.811-0.236
	c-0.669,4.605-5.863,10.705-10.35,11.846c-7.005-0.158-10.113-3.541-10.113-10.9c0-10.783,8.618-21.133,17.826-21.133
	c3.581,0,5.746,1.613,5.746,4.369c0,1.811-0.787,3.305-2.794,5.115c-1.221-0.354-2.204-1.377-2.401-2.559
	c1.811-1.338,2.44-2.242,2.44-3.777c0-1.18-0.787-1.811-2.164-1.811c-2.322,0-5.155,1.85-7.871,5.117
	c-3.896,4.643-5.588,9.404-5.588,15.582c0,4.566,1.968,7.793,4.447,8.029c3.345-0.748,7.044-5.746,7.477-9.523
	c-1.456,0.314-2.833,0.668-4.014,0.668c-1.574,0-2.834-0.826-3.267-2.203c1.85-1.023,7.91-2.479,10.389-2.479
	C96.28,77.569,97.106,78.552,97.106,80.245z"/>
<path fill="#88CDD3" d="M97.819,86.694c0-3.695,2.384-8.152,5.631-10.535c1.243-0.934,2.487-1.416,3.558-1.416
	c0.726,0.379,1.486,1.242,2.177,2.451c0.207,0,0.415-0.033,0.622-0.033c1.243,0,1.831,1.035,1.831,3.246
	c0,5.77-3.973,10.709-9.5,11.885C99.512,92.015,97.819,89.804,97.819,86.694z M101.101,88.423c0,1.105,0.449,2.314,0.898,2.453
	c4.111-0.898,7.116-5.32,7.116-10.709c0-1.176-0.138-1.832-0.449-2.316c-2.003,0.588-3.627,2.074-4.767,3.559
	C102.311,83.517,101.101,86.591,101.101,88.423z"/>
<path fill="#88CDD3" d="M115.686,77.717c2.797-7.44,5.239-12.385,7.562-15.163c1.065,0.208,3.354,1.562,3.715,2.132
	c-3.501,4.069-6.04,8.545-8.292,14.624c-1.911,5.183-2.947,9.506-2.972,12.307c-0.007,0.766-0.007,0.799,0.025,0.965
	c-0.601-0.071-1.098-0.342-1.229-0.644c-0.098-0.233-0.593-0.771-0.891-0.975c-0.398-0.269-0.688-1.539-0.675-2.971
	C112.947,86.059,113.946,82.368,115.686,77.717z"/>
<path fill="#88CDD3" d="M122.92,82.894c0.199-0.867,1.166-4.332,3.165-5.332c0.733,0.166,2.233,0.898,3.1,2.199
	c-2.033,2.266-2.633,4.633-3.766,7.564c-0.467,1.232-0.967,2.666-1,3.633c0,0.799,0,1.1-0.2,1.1c-0.333,0-2.433-0.867-2.433-2.832
	C121.786,88.458,122.053,86.892,122.92,82.894z M128.252,74.161c-0.233-0.232-0.4-0.732-0.4-1.1c0-0.766,0.467-2.932,1.033-4.365
	c1.033,0,3.365,1.334,4.032,2.332c-1,0.934-3.433,3.9-3.766,4.633c-0.533-0.1-1-0.533-1-0.9
	C128.151,74.628,128.185,74.429,128.252,74.161z"/>
<path fill="#88CDD3" d="M124.295,99.018c1.072,0.966,1.367,1.14,2.332,1.168c4.598,0.134,8.606-4.75,11.151-13.145
	c-1.065,1.068-3.409,2.567-4.588,3.001c-1.492-0.312-2.604-2.21-2.542-4.309c0.149-5.164,6.471-11.581,11.201-11.443
	c1.531,0.045,2.248,0.632,2.535,2.207c-0.229-0.139-0.594-0.218-0.927-0.228c-3.197-0.093-10.098,7.909-10.217,12.005
	c-0.009,0.301,0.057,0.336,0.123,0.338c0.767,0.022,3.054-1.811,4.773-3.629c1.961-2.076,3.708-4.859,4.713-7.298
	c1.196,0.102,2.218,0.531,2.541,0.875c-1.599,3.42-2.496,5.627-3.216,7.408c-2.551,6.327-4.299,10.31-7.6,13.748
	c-1.582,1.654-4.007,2.484-5.605,2.438c-2.165-0.063-4.532-1.199-5.129-2.451C123.85,99.438,124.056,99.21,124.295,99.018z"/>
<path fill="#88CDD3" d="M148.576,76.458c1.799-4.84,4.832-10.092,7.864-13.66c1.399,0,3.433,0.789,4.199,1.647
	c-3.333,3.5-6.099,7.241-7.665,10.399c-1.699,3.432-2.732,5.973-3.532,9.268c4.232-5.561,7.465-8.41,9.497-8.41
	c1.167,0,2.633,0.858,3.633,2.162c-2.732,3.09-6.231,9.475-6.231,11.327c0,0.446,0.1,0.583,0.533,0.583
	c0.666,0,1.066-0.273,1.166-0.273c0.2,0.342,0.233,0.444,0.233,0.549c0,0.342-2.533,1.577-3.232,1.577c-0.9,0-1.8-1.099-1.8-2.162
	c0-1.338,1.6-5.663,3.766-10.158c0-0.034-0.1-0.137-0.133-0.137c-0.134,0-0.833,0.446-1.3,0.822
	c-3.166,2.438-6.698,7.449-8.698,12.289c-0.133,0.308-0.466,0.651-0.633,0.651c-0.3,0-1-1.511-1.033-2.23
	C145.21,87.476,146.543,81.847,148.576,76.458z"/>
<path fill="#88CDD3" d="M165.66,76.373c-0.162-0.296-0.275-1.475-0.223-2.105c1.078,0.164,2.061,0.356,2.895,0.468
	c1.48-2.664,3.543-5.527,4.262-5.888c0.835,0.072,2.754,0.986,3.109,1.546c-1.393,1.646-2.285,2.946-3.48,4.823
	c0.806,0.069,1.675,0.11,2.553,0.081c0.167,0.227,0.289,0.626,0.254,1.011c-1.027,0.335-2.319,0.47-3.747,0.381
	c-2.438,4.312-4.077,8.765-4.328,11.641c-0.093,1.054,0.229,1.649,0.871,1.811c1.254-0.067,2.451-0.528,3.384-1.226
	c0.078,0.184,0.154,0.402,0.172,0.546c-0.535,0.767-2.913,2.257-3.601,2.267c-2.039-0.249-4.218-2.456-4.073-4.104
	c0.2-2.28,1.76-6.916,3.719-11.095L165.66,76.373z"/>
<path fill="#88CDD3" d="M178.756,78.137c2.797-7.44,5.239-12.385,7.562-15.163c1.064,0.208,3.353,1.562,3.715,2.132
	c-3.502,4.069-6.039,8.546-8.292,14.624c-1.911,5.183-2.948,9.506-2.973,12.307c-0.007,0.766-0.007,0.799,0.025,0.965
	c-0.6-0.071-1.098-0.341-1.228-0.643c-0.098-0.233-0.593-0.771-0.891-0.975c-0.398-0.27-0.688-1.54-0.675-2.971
	C176.018,86.479,177.017,82.788,178.756,78.137z"/>
<path fill="#88CDD3" d="M190.504,98.815c-2.128,2.081-4.438,3.191-6.649,3.138c-2.247-0.056-4.638-1.181-5.288-2.429
	c0.007-0.266,0.217-0.528,0.493-0.688c1.033,0.957,1.368,1.134,2.391,1.158c5.173,0.126,10.226-5.918,13.014-15.45
	c-1.201,1.771-3.778,5.476-5.907,6.156c-1.428-0.102-3.344-1.115-3.681-2.69c0.03-1.265,0.114-1.896,0.377-2.823
	c0.932-3.344,3.487-8.916,6.362-10.88c0.748,0.019,2.307,0.325,3.071,1.109c-0.521,0.421-2.455,2.907-4.614,7.589
	c-0.431,0.987-1.527,3.995-1.556,5.16c-0.007,0.334,0.157,0.537,0.224,0.605c0.82-0.113,2.277-1.211,4.039-3.635
	c2.223-3.113,3.694-6.176,5.993-9.687c1.192,0.029,2.88,0.637,3.276,1.146c-1.467,2.863-2.794,5.633-3.819,8.507
	C196.03,91.55,193.889,95.532,190.504,98.815z"/>
</svg>
