<?xml version="1.0" encoding="utf-8"?>
<!-- Generator: Adobe Illustrator 15.0.2, SVG Export Plug-In  -->
<!DOCTYPE svg PUBLIC "-//W3C//DTD SVG 1.1//EN" "http://www.w3.org/Graphics/SVG/1.1/DTD/svg11.dtd" [
	<!ENTITY ns_flows "http://ns.adobe.com/Flows/1.0/">
]>
<svg version="1.1"
	 xmlns="http://www.w3.org/2000/svg" xmlns:xlink="http://www.w3.org/1999/xlink" xmlns:a="http://ns.adobe.com/AdobeSVGViewerExtensions/3.0/"
	 x="0px" y="0px" width="512px" height="319px" viewBox="0 0 512 319" overflow="visible" enable-background="new 0 0 512 319"
	 xml:space="preserve">
<defs>
</defs>
<path fill="#07253E" d="M462.983,191.795h-18.205l-29.838-50.746v50.746h-16.172v-75.699h19.195L462.983,191.795z"/>
<polygon fill="#07253E" points="456.569,160.635 411.187,39.728 475.466,0 "/>
<polygon fill="#07253E" points="467.19,185.129 489.399,74.447 512.124,110.397 "/>
<path fill="#07253E" d="M55.86,185.693c-5.047,4.001-11.548,6.002-19.5,6.002H0v-75.699h36.703c7.724,0,14.07,1.65,19.042,4.948
	c4.74,3.089,8.373,7.511,10.896,13.266c2.295,5.335,3.441,11.302,3.441,17.897c0,6.738-1.225,13.092-3.67,19.057
	C63.89,177.412,60.37,182.256,55.86,185.693z M45.283,132.414c-2.992-2.312-8.438-3.469-16.339-3.469
	c-1.688,0-3.895,0.053-6.619,0.158c-2.724,0.105-4.545,0.158-5.464,0.158v49.483h17.03c6.06,0,10.816-2.731,14.27-8.194
	c3.068-4.833,4.602-10.752,4.602-17.757C52.763,143.059,50.27,136.266,45.283,132.414z"/>
<path fill="#07253E" d="M140.395,191.795h-16.861v-19.477c0-3.859-1.109-6.527-3.326-8.002c-1.913-1.403-5.124-2.105-9.637-2.105
	H92.22v29.584H75.358v-75.699h41.866c8.182,0,14.682,2.316,19.499,6.949c4.28,4.143,6.424,9.125,6.424,14.951
	c0,4-1.072,7.545-3.212,10.633c-2.294,3.301-5.506,5.616-9.635,6.949c3.976,1.193,6.728,3.089,8.259,5.686
	c1.222,2.105,1.835,5.158,1.835,9.159V191.795z M114.128,129.257H92.22v20.214h21.448c3.976,0,7.112-1.053,9.406-3.158
	c2.065-1.895,3.097-4.211,3.097-6.948s-0.994-5.054-2.983-6.948C120.896,130.31,117.874,129.257,114.128,129.257z"/>
<path fill="#07253E" d="M264.931,191.795h-17.205l-33.838-50.746L198.715,182.1l-1-4.916v-61.088h18.196l32.846,49.484v-49.484
	h16.174V191.795z"/>
<polygon fill="#07253E" points="268.956,146.419 299.843,116.096 322.095,116.096 289.634,146.102 322.897,191.795 301.907,191.795 
	"/>
<polyline fill="#07253E" points="265.3,166.105 265.3,191.795 248.21,191.795 248.21,116.096 265.3,116.096 265.3,146.944 "/>
<path fill="#07253E" d="M391.575,191.795h-62.627v-75.699h60.676v13.371h-43.816v16.109h40.262v13.266h-40.262v19.582h45.768
	V191.795z"/>
<path fill="#07253E" d="M102.801,255.021c0,5.195-1.261,9.512-3.784,12.951c-2.831,3.721-6.807,6.668-11.929,8.844
	c-4.818,1.964-9.903,2.947-15.255,2.947c-23.859-0.141-36.094-8.633-36.705-25.479h16.746c0.152,4.072,2.058,7.23,5.715,9.476
	c3.201,2.036,7.202,3.054,12.004,3.054c4.421,0,8.289-0.875,11.604-2.627c3.316-1.752,4.974-4.065,4.974-6.939
	c0.075-4.484-4.196-7.673-12.816-9.566c-14.267-3.152-22.278-5.114-24.031-5.886c-8.546-3.714-12.78-10.021-12.703-18.921
	c0.075-4.556,1.356-8.603,3.843-12.143c2.484-3.539,6.251-6.289,11.298-8.252c4.817-1.892,10.054-2.838,15.714-2.838
	c8.641,0,15.981,2.001,22.023,6.002c6.881,4.492,10.512,10.738,10.896,18.74H83.876c-0.383-3.791-2.257-6.702-5.62-8.738
	c-2.982-1.824-6.577-2.738-10.782-2.738c-3.67,0-6.922,0.668-9.75,2.001c-3.44,1.685-5.2,4.071-5.275,7.159
	c0,4.282,4.348,7.37,13.045,9.266c14.648,3.229,22.736,5.158,24.264,5.79C98.451,240.703,102.801,246.67,102.801,255.021z"/>
<path fill="#07253E" d="M182.086,277.658l-18.812-0.025l-5.142-15.588l-30.395-0.039l-5.871,15.574l-18.122-0.023l29.347-75.661
	l19.958,0.025L182.086,277.658z M153.217,249.089l-10.283-30.125h-0.23l-10.476,30.099L153.217,249.089z"/>
<path fill="#07253E" d="M206.376,277.658h-17.32v-75.699h17.32V277.658z"/>
<path fill="#07253E" d="M274.851,277.658h-58.268v-75.699h17.32v61.907h40.947V277.658z"/>
<path fill="#07253E" d="M351.585,240.282c0,12.845-3.555,22.812-10.666,29.901c-6.809,6.738-16.059,10.107-27.758,10.107
	c-13.076,0-23.113-3.755-30.109-11.266c-6.998-7.51-10.496-17.862-10.496-31.059c0-11.23,3.516-20.355,10.553-27.375
	c7.264-7.299,16.977-10.983,29.135-11.055c10.781,0,19.805,3.264,27.07,9.792C347.493,216.77,351.585,227.088,351.585,240.282z
	 M334.495,241.23c0-18.389-7.609-27.619-22.826-27.689c-7.188,0-12.771,2.702-16.746,8.106c-3.441,4.703-5.201,10.459-5.275,17.267
	c0,7.301,1.949,13.547,5.85,18.74c4.357,5.967,10.361,8.985,18.008,9.055c5.887,0,10.781-2.176,14.682-6.527
	C332.39,255.479,334.495,249.162,334.495,241.23z"/>
<path fill="#07253E" d="M422.944,277.658h-16.859v-19.478c0-3.859-1.111-6.527-3.328-8.001c-1.912-1.404-5.123-2.106-9.635-2.106
	h-18.352v29.585h-16.861v-75.699h41.865c8.182,0,14.682,2.316,19.5,6.949c4.281,4.143,6.424,9.125,6.424,14.95
	c0,4.001-1.072,7.546-3.211,10.634c-2.295,3.3-5.506,5.615-9.635,6.948c3.975,1.194,6.727,3.089,8.258,5.686
	c1.223,2.105,1.834,5.159,1.834,9.159V277.658z M396.679,215.119h-21.908v20.215h21.449c3.975,0,7.111-1.053,9.404-3.158
	c2.066-1.896,3.098-4.211,3.098-6.949c0-2.736-0.994-5.053-2.982-6.948C403.446,216.172,400.425,215.119,396.679,215.119z"/>
<path fill="#07253E" d="M213.974,165.896c0,9.407-2.982,16.495-8.945,21.268c-5.659,4.493-13.688,6.737-24.086,6.737
	c-13.307-0.07-22.905-3.858-28.792-11.37c-3.136-4.001-4.702-9.265-4.702-15.792v-50.643h17.55v49.168
	c0,4.492,1.222,8.107,3.67,10.844c2.599,2.949,6.309,4.423,11.126,4.423c11.011,0,16.517-4.878,16.517-14.635v-49.8h17.663V165.896z
	"/>
</svg>
