<?xml version="1.0" encoding="utf-8"?>
<!-- Generator: Adobe Illustrator 15.0.2, SVG Export Plug-In . SVG Version: 6.00 Build 0)  -->
<!DOCTYPE svg PUBLIC "-//W3C//DTD SVG 1.1//EN" "http://www.w3.org/Graphics/SVG/1.1/DTD/svg11.dtd">
<svg version="1.1" id="Ebene_1" xmlns="http://www.w3.org/2000/svg" xmlns:xlink="http://www.w3.org/1999/xlink" x="0px" y="0px"
	 width="215px" height="262px" viewBox="0 0 215 262" enable-background="new 0 0 215 262" xml:space="preserve">
<g>
	<path fill="#DB5126" d="M0.001,183.094c12.013-4.322,23.99-16.011,37.413-29.111c20.39-19.898,43.5-42.454,76.338-47.854
		c18.287-3.007,35.021-1.602,48.395,4.065c14.912,6.32,26.547,17.215,30.85,33.047c-12.176-10.224-24.005-12.336-35.854-9.539
		c-3.17,1.003-6.701,2.483-10.312,4.573c-6.154,3.563-14.635,10.127-20.09,21.164c-6.192,12.528-7.133,27.92-2.795,45.748
		c4.115,16.918,12.939,35.793,26.312,56.328h64.56V0H0"/>
</g>
<path fill="#FFFFFF" d="M40.398,36.236c1.744-2.007,2.628-4.605,2.628-7.722c0-1.825-0.314-3.502-0.937-4.986
	c-0.628-1.497-1.522-2.78-2.659-3.816c-1.13-1.029-2.496-1.839-4.06-2.38c-1.54-0.533-3.234-0.816-5.037-0.816H14.642v41h6v-17h7.64
	l8.978,17h7.195l-9.543-17.999C37.101,38.851,38.942,37.911,40.398,36.236z M20.642,22.515h9.305c2.077,0,3.774,0.427,5.044,1.47
	c1.229,1.011,1.825,2.493,1.825,4.636c0,2.14-0.595,3.507-1.819,4.499c-1.27,1.029-2.969,1.396-5.05,1.396h-9.305V22.515z"/>
<rect x="48.642" y="16.515" fill="#FFFFFF" width="6" height="41"/>
<path fill="#FFFFFF" d="M86.896,19.962c-1.181-1.08-2.596-1.944-4.206-2.54c-1.602-0.593-3.368-0.907-5.252-0.907H61.642v41h6v-16
	h9.796c1.885,0,3.651-0.178,5.252-0.771c1.614-0.598,3.032-1.398,4.213-2.5c1.19-1.109,2.12-2.426,2.764-3.974
	c0.639-1.538,0.963-3.265,0.963-5.163c0-1.896-0.324-3.63-0.963-5.169C89.021,22.387,88.089,21.055,86.896,19.962z M67.642,22.515
	h9.463c2.221,0,4.027,0.471,5.368,1.601c1.309,1.104,1.944,2.725,1.944,5.059c0,2.338-0.638,3.756-1.95,4.878
	c-1.358,1.162-3.112,1.462-5.362,1.462h-9.463V22.515z"/>
<polygon fill="#FFFFFF" points="92.642,22.515 103.642,22.515 103.642,57.515 110.643,57.515 110.643,22.515 121.643,22.515 
	121.643,16.515 92.642,16.515 "/>
<rect x="126.643" y="16.515" fill="#FFFFFF" width="7" height="41"/>
<path fill="#FFFFFF" d="M169.361,28.46c-0.231-1.393-0.596-2.72-1.082-3.945c-0.504-1.272-1.25-2.448-2.217-3.496
	c-1.426-1.545-3.068-2.706-4.883-3.423c-1.793-0.708-3.884-1.081-6.216-1.081h-14.323v41h14.323c2.332,0,4.423-0.118,6.216-0.826
	c1.813-0.718,3.457-1.744,4.868-3.274c0.974-1.014,1.726-2.126,2.233-3.428c0.484-1.241,0.848-2.545,1.08-3.938
	c0.228-1.368,0.363-2.807,0.4-4.309c0.036-1.467,0.057-2.955,0.057-4.478c0-1.522-0.021-3.014-0.057-4.483
	C169.727,31.278,169.59,29.828,169.361,28.46z M146.643,22.515h7.604c1.406,0,2.744,0.088,3.975,0.463
	c1.164,0.357,2.159,0.955,3.057,1.952c0.531,0.563,0.955,1.234,1.259,2.047c0.325,0.873,0.567,1.836,0.724,2.888
	c0.159,1.075,0.26,2.241,0.295,3.479c0.036,1.265,0.055,2.574,0.055,3.93c0,1.357-0.019,2.667-0.055,3.931
	c-0.035,1.238-0.136,2.41-0.295,3.485c-0.154,1.05-0.398,2.025-0.723,2.899c-0.305,0.812-0.729,1.51-1.275,2.091
	c-0.882,0.98-1.876,1.771-3.039,2.127c-1.229,0.375-2.565,0.708-3.976,0.708h-7.604V22.515L146.643,22.515z"/>
<polygon fill="#FFFFFF" points="201.643,22.515 201.643,16.515 175.643,16.515 175.643,57.515 201.643,57.515 201.643,52.515 
	181.643,52.515 181.643,39.515 198.643,39.515 198.643,34.515 181.643,34.515 181.643,22.515 "/>
<rect x="132.795" y="261.514" fill="#FFFFFF" width="17.463" height="0.002"/>
<path fill="#FFFFFF" d="M126.74,159.439c5.455-11.037,13.936-17.601,20.09-21.164c3.611-2.09,7.143-3.57,10.312-4.573
	c11.849-2.797,23.678-0.685,35.854,9.539c-4.303-15.832-15.938-26.728-30.85-33.047c-13.371-5.667-30.106-7.072-48.395-4.065
	c-32.838,5.4-55.948,27.955-76.338,47.854c-13.423,13.102-25.4,24.789-37.413,29.111l0.001,24.084
	c20.208-3.934,36.514-19.848,53.644-36.564c18.81-18.358,38.261-37.342,63.877-41.554c4.41-0.725,10.902-1.451,17.916-1.103
	c-8.443,5.676-16.459,13.81-21.955,24.933c-7.773,15.728-9.088,34.5-3.906,55.795c3.947,16.228,11.727,33.91,23.218,52.832h17.463
	c-13.372-20.535-22.196-39.41-26.312-56.328C119.607,187.359,120.548,171.968,126.74,159.439z"/>
<path fill="#3A3A3A" d="M16.532,70.773v7.812h9.303v2.028h-9.303v9.362h-2.266V68.746h13.179v2.028L16.532,70.773L16.532,70.773z"/>
<path fill="#3A3A3A" d="M32.753,89.975V68.746h2.266v21.229H32.753z"/>
<path fill="#3A3A3A" d="M41.757,89.975V68.746h2.266v19.202h10.854v2.027H41.757z"/>
<path fill="#3A3A3A" d="M75.956,89.975V73.844l-5.814,12.792h-1.938L62.3,73.844v16.131h-2.266V68.746H62.3l6.918,15.058
	l6.738-15.058h2.266v21.229H75.956z"/>
<path fill="#3A3A3A" d="M100.883,89.975V73.844l-5.814,12.792h-1.938l-5.904-12.792v16.131h-2.266V68.746h2.266l6.918,15.058
	l6.738-15.058h2.266v21.229H100.883z"/>
<path fill="#3A3A3A" d="M122.857,89.975l-1.7-4.8h-9.272l-1.699,4.8h-2.416l7.812-21.229h1.908l7.781,21.229H122.857z
	 M116.564,71.996l-3.994,11.211h7.932L116.564,71.996z"/>
<path fill="#3A3A3A" d="M143.104,89.975l-6.471-11.3l-4.473,5.367v5.934h-2.266v-21.23h2.266V80.94l9.898-12.195h2.772l-6.679,8.2
	l7.633,13.03H143.104z"/>
<path fill="#3A3A3A" d="M150.468,89.975V68.746h13.179v2.028h-10.912v7.484h9.303v2.027h-9.303v7.663h10.912v2.027H150.468z"/>
<path fill="#3A3A3A" d="M181.744,89.975l-4.83-9.422h-5.1v9.422h-2.266V68.746h8.141c0.914,0,1.76,0.134,2.533,0.403
	c0.775,0.268,1.441,0.656,1.998,1.163s0.988,1.128,1.297,1.864c0.309,0.735,0.463,1.561,0.463,2.475c0,1.55-0.429,2.817-1.281,3.802
	c-0.855,0.984-1.969,1.615-3.34,1.893l5.039,9.631h-2.654V89.975z M181.715,74.679c0-1.312-0.393-2.291-1.178-2.937
	s-1.805-0.969-3.057-0.969h-5.666v7.782h5.666c1.252,0,2.271-0.317,3.057-0.954C181.322,76.965,181.715,75.991,181.715,74.679z"/>
<path fill="#3A3A3A" d="M203.093,84.131c0,0.935-0.174,1.774-0.521,2.52c-0.35,0.746-0.84,1.377-1.477,1.894
	s-1.406,0.915-2.312,1.192c-0.904,0.278-1.913,0.417-3.026,0.417c-0.795,0-1.525-0.055-2.191-0.164
	c-0.666-0.109-1.291-0.273-1.877-0.492c-0.588-0.219-1.14-0.507-1.655-0.865c-0.519-0.358-1.024-0.785-1.521-1.282l1.521-1.521
	c0.874,0.875,1.759,1.476,2.653,1.804c0.895,0.328,1.938,0.492,3.131,0.492c1.57,0,2.803-0.343,3.697-1.029s1.342-1.655,1.342-2.907
	c0-1.153-0.349-2.038-1.043-2.654c-0.16-0.139-0.323-0.263-0.492-0.373c-0.17-0.109-0.358-0.203-0.566-0.283
	c-0.209-0.079-0.453-0.149-0.73-0.208c-0.278-0.06-0.605-0.119-0.983-0.179l-2.476-0.358c-1.67-0.258-2.961-0.795-3.875-1.61
	c-1.094-0.974-1.642-2.306-1.642-3.995c0-0.895,0.159-1.709,0.478-2.445c0.318-0.735,0.771-1.366,1.356-1.893
	c0.587-0.526,1.298-0.929,2.132-1.208c0.836-0.279,1.779-0.417,2.834-0.417c1.352,0,2.514,0.189,3.487,0.566
	c0.974,0.378,1.918,0.964,2.833,1.759l-1.461,1.461c-0.637-0.616-1.342-1.078-2.117-1.387c-0.775-0.308-1.72-0.462-2.833-0.462
	c-1.431,0-2.538,0.363-3.323,1.088c-0.785,0.725-1.179,1.685-1.179,2.877c0,1.093,0.317,1.918,0.954,2.475
	c0.338,0.278,0.745,0.507,1.223,0.686c0.478,0.179,0.993,0.318,1.551,0.417l2.476,0.388c0.974,0.159,1.738,0.343,2.296,0.552
	c0.557,0.208,1.073,0.532,1.551,0.969c0.575,0.497,1.019,1.094,1.326,1.789C202.938,82.442,203.093,83.236,203.093,84.131z"/>
</svg>
